<?xml version="1.0" encoding="utf-8"?>
<!-- Generator: Adobe Illustrator 24.2.1, SVG Export Plug-In . SVG Version: 6.00 Build 0)  -->
<svg version="1.1" id="Capa_1" xmlns="http://www.w3.org/2000/svg" xmlns:xlink="http://www.w3.org/1999/xlink" x="0px" y="0px"
	 viewBox="0 0 200 200" style="enable-background:new 0 0 200 200;" xml:space="preserve">
<style type="text/css">
	.st0{fill:#F9BA31;}
</style>
<g id="_x34_-Partiture">
	<g>
		<polygon class="st0" points="70.81,72.24 94.25,62.86 94.25,57.45 70.81,66.83 		"/>
		<path class="st0" d="M26.86,123.44H12.21v43.95c0,1.62,1.31,2.93,2.93,2.93h11.72V123.44z"/>
		<circle class="st0" cx="88.39" cy="97.07" r="5.86"/>
		<rect x="12.21" y="76.56" class="st0" width="14.65" height="41.02"/>
		<path class="st0" d="M26.86,70.7V23.83H15.14c-1.62,0-2.93,1.31-2.93,2.93V70.7H26.86z"/>
		<circle class="st0" cx="59.09" cy="108.79" r="5.86"/>
		<circle class="st0" cx="123.54" cy="126.37" r="5.86"/>
		<path class="st0" d="M144.05,123.44c-1.62,0-2.93-1.31-2.93-2.93c0-1.62,1.31-2.93,2.93-2.93H188V76.56h-14.65
			c-1.62,0-2.93-1.31-2.93-2.93s1.31-2.93,2.93-2.93H188V26.76c0-1.62-1.31-2.93-2.93-2.93H32.72V70.7h23.44
			c1.62,0,2.93,1.31,2.93,2.93s-1.31,2.93-2.93,2.93H32.72v41.02h8.79c1.62,0,2.93,1.31,2.93,2.93c0,1.62-1.31,2.93-2.93,2.93h-8.79
			v46.88h152.35c1.62,0,2.93-1.31,2.93-2.93v-43.95H144.05z M59.09,120.51c-6.46,0-11.72-5.26-11.72-11.72
			c0-6.46,5.26-11.72,11.72-11.72c2.14,0,4.13,0.62,5.86,1.63V76.56c0-0.76,0-1.51,0-2.26c0-1.57,0-3.13,0-4.7c0-1.33,0-2.66,0-4
			c0-0.55-0.02-1.08,0.16-1.61c0.22-0.64,0.64-1.22,1.2-1.6c0.49-0.33,1.07-0.51,1.62-0.73c0.6-0.24,1.2-0.48,1.8-0.72
			c1.06-0.42,2.12-0.85,3.18-1.27c1.29-0.52,2.58-1.03,3.87-1.55c1.41-0.57,2.82-1.13,4.23-1.69c1.42-0.57,2.84-1.14,4.27-1.71
			c1.32-0.53,2.65-1.06,3.97-1.59c1.11-0.45,2.23-0.89,3.34-1.34c0.79-0.32,1.59-0.64,2.38-0.95c0.23-0.09,0.46-0.19,0.7-0.28
			c1.03-0.39,2.06-0.54,3.05,0.08c0.93,0.58,1.39,1.61,1.39,2.69c0,0.39,0,0.78,0,1.17c0,1.38,0,2.76,0,4.14c0,1.44,0,2.89,0,4.33
			c0,0.62,0,1.25,0,1.87v32.23c0,6.46-5.26,11.72-11.72,11.72c-6.46,0-11.72-5.26-11.72-11.72c0-6.46,5.26-11.72,11.72-11.72
			c2.14,0,4.13,0.62,5.86,1.63V69.17l-23.44,9.38v30.24C70.81,115.25,65.55,120.51,59.09,120.51z M103.04,123.44H76.67
			c-1.62,0-2.93-1.31-2.93-2.93c0-1.62,1.31-2.93,2.93-2.93h26.37c1.62,0,2.93,1.31,2.93,2.93
			C105.97,122.13,104.65,123.44,103.04,123.44z M108.9,73.63c0-1.62,1.31-2.93,2.93-2.93h14.65c1.62,0,2.93,1.31,2.93,2.93
			s-1.31,2.93-2.93,2.93h-14.65C110.21,76.56,108.9,75.25,108.9,73.63z M123.54,138.09c-6.46,0-11.72-5.26-11.72-11.72
			s5.26-11.72,11.72-11.72c2.14,0,4.13,0.62,5.86,1.63V94.14c0-1.24,0-2.49,0-3.73c0-2.07,0-4.13,0-6.19c0-1.09-0.16-2.26,0.42-3.24
			c0.64-1.08,1.79-1.42,2.88-1.86c1.17-0.47,2.33-0.93,3.5-1.4c1.61-0.64,3.23-1.29,4.83-1.93c1.82-0.73,3.64-1.46,5.47-2.19
			c1.8-0.72,3.59-1.44,5.39-2.16c1.54-0.62,3.07-1.23,4.61-1.84c1.04-0.42,2.07-0.83,3.11-1.25c0.31-0.13,0.63-0.25,0.94-0.38
			c0.9-0.36,1.92-0.25,2.73,0.3c0.81,0.54,1.29,1.45,1.29,2.43v11.72c0,1.2-0.73,2.27-1.84,2.72l-27.46,10.98v30.24
			C135.26,132.83,130,138.09,123.54,138.09z"/>
		<polygon class="st0" points="135.26,89.81 158.7,80.44 158.7,75.03 135.26,84.41 		"/>
	</g>
</g>
</svg>
