<?xml version="1.0" encoding="utf-8"?>
<!-- Generator: Adobe Illustrator 24.2.1, SVG Export Plug-In . SVG Version: 6.00 Build 0)  -->
<svg version="1.1" id="Capa_1" xmlns="http://www.w3.org/2000/svg" xmlns:xlink="http://www.w3.org/1999/xlink" x="0px" y="0px"
	 viewBox="0 0 60 60" style="enable-background:new 0 0 60 60;" xml:space="preserve">
<style type="text/css">
	.st0{fill:#F9BA31;}
</style>
<g>
	<path class="st0" d="M31.35,13.75c0,0.81-0.66,1.47-1.47,1.47c-0.81,0-1.47-0.66-1.47-1.47c0-0.81,0.66-1.47,1.47-1.47
		C30.7,12.28,31.35,12.94,31.35,13.75L31.35,13.75z M31.35,13.75"/>
	<path class="st0" d="M50.42,4.95H9.35c-0.81,0-1.47,0.66-1.47,1.47v16.13h44V6.42C51.89,5.6,51.23,4.95,50.42,4.95L50.42,4.95z
		 M18.15,18.15c-2.43,0-4.4-1.97-4.4-4.4s1.97-4.4,4.4-4.4c2.43,0,4.4,1.97,4.4,4.4S20.58,18.15,18.15,18.15L18.15,18.15z
		 M29.88,18.15c-2.43,0-4.4-1.97-4.4-4.4s1.97-4.4,4.4-4.4c2.43,0,4.4,1.97,4.4,4.4S32.31,18.15,29.88,18.15L29.88,18.15z
		 M41.62,18.15c-2.43,0-4.4-1.97-4.4-4.4s1.97-4.4,4.4-4.4c2.43,0,4.4,1.97,4.4,4.4S44.04,18.15,41.62,18.15L41.62,18.15z
		 M41.62,18.15"/>
	<path class="st0" d="M19.62,13.75c0,0.81-0.66,1.47-1.47,1.47c-0.81,0-1.47-0.66-1.47-1.47c0-0.81,0.66-1.47,1.47-1.47
		C18.96,12.28,19.62,12.94,19.62,13.75L19.62,13.75z M19.62,13.75"/>
	<path class="st0" d="M43.09,13.75c0,0.81-0.66,1.47-1.47,1.47c-0.81,0-1.47-0.66-1.47-1.47c0-0.81,0.66-1.47,1.47-1.47
		C42.43,12.28,43.09,12.94,43.09,13.75L43.09,13.75z M43.09,13.75"/>
	<path class="st0" d="M7.89,53.54c0,0.81,0.66,1.47,1.47,1.47h41.07c0.81,0,1.47-0.66,1.47-1.47V25.48h-44V53.54z M43.58,29.93h0.98
		c0.81,0,1.47,0.66,1.47,1.47c0,0.81-0.66,1.47-1.47,1.47h-0.98c-0.81,0-1.47-0.66-1.47-1.47C42.11,30.59,42.77,29.93,43.58,29.93
		L43.58,29.93z M43.58,35.8h0.98c0.81,0,1.47,0.66,1.47,1.47c0,0.81-0.66,1.47-1.47,1.47h-0.98c-0.81,0-1.47-0.66-1.47-1.47
		C42.11,36.46,42.77,35.8,43.58,35.8L43.58,35.8z M43.58,41.67h0.98c0.81,0,1.47,0.66,1.47,1.47c0,0.81-0.66,1.47-1.47,1.47h-0.98
		c-0.81,0-1.47-0.66-1.47-1.47C42.11,42.32,42.77,41.67,43.58,41.67L43.58,41.67z M43.58,47.63h0.98c0.81,0,1.47,0.66,1.47,1.47
		c0,0.81-0.66,1.47-1.47,1.47h-0.98c-0.81,0-1.47-0.66-1.47-1.47C42.11,48.29,42.77,47.63,43.58,47.63L43.58,47.63z M32.82,44.6
		V31.4c0-0.81,0.66-1.47,1.47-1.47c0.81,0,1.47,0.66,1.47,1.47v13.2c0.81,0,1.47,0.66,1.47,1.47c0,0.81-0.66,1.47-1.47,1.47v1.56
		c0,0.81-0.66,1.47-1.47,1.47c-0.81,0-1.47-0.66-1.47-1.47v-1.56c-0.81,0-1.47-0.66-1.47-1.47C31.35,45.26,32.01,44.6,32.82,44.6
		L32.82,44.6z M24.02,38.73V31.4c0-0.81,0.66-1.47,1.47-1.47c0.81,0,1.47,0.66,1.47,1.47v7.33c0.81,0,1.47,0.66,1.47,1.47
		c0,0.81-0.66,1.47-1.47,1.47v7.43c0,0.81-0.66,1.47-1.47,1.47c-0.81,0-1.47-0.66-1.47-1.47v-7.43c-0.81,0-1.47-0.66-1.47-1.47
		C22.55,39.39,23.21,38.73,24.02,38.73L24.02,38.73z M15.22,32.87V31.4c0-0.81,0.66-1.47,1.47-1.47c0.81,0,1.47,0.66,1.47,1.47v1.47
		c0.81,0,1.47,0.66,1.47,1.47c0,0.81-0.66,1.47-1.47,1.47v13.3c0,0.81-0.66,1.47-1.47,1.47c-0.81,0-1.47-0.66-1.47-1.47V35.8
		c-0.81,0-1.47-0.66-1.47-1.47C13.75,33.52,14.41,32.87,15.22,32.87L15.22,32.87z M15.22,32.87"/>
</g>
</svg>
