<?xml version="1.0" encoding="utf-8"?>
<!-- Generator: Adobe Illustrator 24.2.1, SVG Export Plug-In . SVG Version: 6.00 Build 0)  -->
<svg version="1.1" id="Capa_1" xmlns="http://www.w3.org/2000/svg" xmlns:xlink="http://www.w3.org/1999/xlink" x="0px" y="0px"
	 viewBox="0 0 200 200" style="enable-background:new 0 0 200 200;" xml:space="preserve">
<style type="text/css">
	.st0{fill:#F9BA31;}
</style>
<g>
	<path class="st0" d="M166.36,131.27c1.65-3.84,1.79-7.31,0.41-10.35c-0.54-1.19-1.31-2.29-2.3-3.27c-1.66-1.66-3.61-2.7-5.01-3.29
		c1.08-3.73,0.8-6.99-0.82-9.7c-0.44-0.74-1-1.44-1.64-2.1c-4.34-4.44-7.62-3.3-7.62-3.3s1.77-7.08-3.36-12.11
		c-5.13-5.02-10.02-2.88-14.25,1.43l-21.35,21.34c-3.02-1.13-7.76-3.98-12.65-3.42c-8.71,1-10.98,6.82-12.2,11.69
		c-2.78,11.01-1.95,27.42-5.1,33.76c-3.87,7.8-11.44,14.35-11.44,14.35l29.7,29.7c12.09-12.09,23.73-15.22,32.41-18.85
		c19.67-8.23,29.33-18.08,34.24-23.38C175.54,142.8,167.79,133.28,166.36,131.27L166.36,131.27z M166.36,131.27"/>
	<path class="st0" d="M86.54,95.53c0.21,1.02,1.09,1.78,2.14,1.82l12.58,0.57l5.77,5.37l14.22-14.88l-8.57-7.98l0.76-2.65
		c0.23-0.81,0-1.68-0.6-2.27l-0.97-0.95c-0.56-0.55-58.52-57.14-60.28-58.88c-3.08-3.03-6.31-4.57-9.62-4.57
		c-2.85,0-5.19,1.15-6.65,2.12c-5.39,3.56-6.72,10.72-3.03,16.3c2.21,3.34,5.93,5.34,9.96,5.34c2.04,0,4.05-0.53,5.82-1.53
		l8.55,36.65c0.26,1.13,1.34,1.89,2.49,1.75c0.94-0.11,1.91-0.17,2.88-0.17c3.59,0,8.89,0.77,13.74,4.4
		C81.05,80.01,84.69,86.57,86.54,95.53L86.54,95.53z M86.54,95.53"/>
	<path class="st0" d="M113.74,57.32c0,3.28-2.66,5.94-5.94,5.94c-3.28,0-5.94-2.66-5.94-5.94c0-3.28,2.66-5.94,5.94-5.94
		C111.08,51.37,113.74,54.04,113.74,57.32L113.74,57.32z M113.74,57.32"/>
	<path class="st0" d="M100.76,44.43c0,3.28-2.66,5.94-5.94,5.94c-3.28,0-5.94-2.66-5.94-5.94c0-3.28,2.66-5.94,5.94-5.94
		C98.1,38.49,100.76,41.15,100.76,44.43L100.76,44.43z M100.76,44.43"/>
	<path class="st0" d="M87.79,31.54c0,3.28-2.66,5.94-5.94,5.94c-3.28,0-5.94-2.66-5.94-5.94c0-3.28,2.66-5.94,5.94-5.94
		C85.13,25.6,87.79,28.26,87.79,31.54L87.79,31.54z M87.79,31.54"/>
	<path class="st0" d="M74.82,18.65c0,3.28-2.66,5.94-5.94,5.94s-5.94-2.66-5.94-5.94c0-3.28,2.66-5.94,5.94-5.94
		S74.82,15.37,74.82,18.65L74.82,18.65z M74.82,18.65"/>
</g>
</svg>
