<?xml version="1.0" encoding="utf-8"?>
<!-- Generator: Adobe Illustrator 24.2.1, SVG Export Plug-In . SVG Version: 6.00 Build 0)  -->
<svg version="1.1" id="Capa_1" xmlns="http://www.w3.org/2000/svg" xmlns:xlink="http://www.w3.org/1999/xlink" x="0px" y="0px"
	 viewBox="0 0 140 144" style="enable-background:new 0 0 140 144;" xml:space="preserve">
<style type="text/css">
	.st0{fill:#231F20;}
	.st1{fill:#FFFFFF;}
	.st2{fill:#030102;}
</style>
<g>
	<g id="XMLID_567_">
		<g id="XMLID_577_">
			<path id="XMLID_580_" class="st0" d="M55.34,67.39c0.56-0.68,0.04-1.97-0.98-1.61c-7.23,2.61-14.12,6.07-20.46,10.43
				c-6.03,4.15-12.18,9.07-16.5,15.04c-4.18,5.78-4.73,12.6-1.8,19.08c2.48,5.48,6.87,9.58,11.57,13.22
				c-1.06,0.61-1.62,1.86-1.44,3.07c-0.81,0.34-1.39,1.09-1.44,2.05c-0.17,3.01,3.38,5.31,5.91,5.96c0.11,0.03,0.22,0.03,0.32,0.03
				c6.57,2.37,11.54-4.27,11.3-10.29c-0.26-6.39-4.47-11.39-7.12-16.97c0.08-0.13,0.14-0.27,0.16-0.44
				c1.14-8.73,13.35-9.77,18.06-15.99C58.07,84.15,56.77,75.21,55.34,67.39z"/>
			<path id="XMLID_579_" class="st1" d="M47.43,93.24c-5.03,3.27-11.73,5.36-13.94,11.18c-0.31-0.92-0.55-1.87-0.71-2.84
				c-0.21-1.26-2.13-0.73-1.92,0.53c1.04,6.36,5.42,11.16,7.75,17.01c1.24,3.13,1.87,6.91,0.34,10.07c-1.46,3.01-4.84,4.7-8.03,3.5
				c-0.16-0.06-0.32-0.08-0.45-0.06c-1.64-0.48-3.58-1.64-4.1-3.35c-0.43-1.4,1.06-0.67,1.63-0.24c0.66,0.5,1.23,0.96,1.97,1.3
				c0,0.02,0,0.05,0,0.07c0.11,1.27,2.1,1.28,1.99,0c-0.13-1.54,0.25-3.01,1.24-4.21c0.76-0.92-0.43-2.23-1.25-1.57
				c-5.62-4.07-11.44-8.5-14.46-14.94c-3.33-7.12-1.6-13.98,3.46-19.7c8.66-9.78,20.34-17.14,32.52-21.76
				C55.07,77.14,56.09,87.62,47.43,93.24z"/>
			<path id="XMLID_578_" class="st1" d="M30.11,128.21c-0.8-0.49-1.44-1.19-2.28-1.55c-0.38-0.75,0.07-1.43,0.91-1.55
				c0.12-0.02,0.23-0.07,0.32-0.14c0.59,0.44,1.18,0.86,1.76,1.29C30.5,126.88,30.26,127.53,30.11,128.21z"/>
		</g>
		<g id="XMLID_571_">
			<path id="XMLID_576_" class="st0" d="M94.28,138.03c0.73-0.87,1.01-2.11,1.11-3.8c0.09-1.54,0.18-3.09,0.3-4.63
				c0.77-10.73,1.01-21.5,0.72-32.26c-0.15-5.38-0.43-10.75-0.84-16.12c-0.29-3.72-0.49-7.68-2.2-11.07
				c-1.67-3.33-4.68-5.06-8.21-5.88c-7.6-1.78-15.78-1.43-23.35-0.33c-2.38,0.35-4.97,0.51-7.2,1.47c-4.01,1.73-6.19,6.12-7.67,9.98
				c-1.97,5.14-2.9,10.68-3.88,16.07c-1.08,5.94-1.97,11.91-2.67,17.9c-0.61,5.14-1.15,10.28-1.45,15.44
				c-0.15,2.58-0.24,5.17-0.24,7.75c0,1.22-0.54,2.92,0.24,3.97c1.58,2.12,5.05,1.92,7.37,2.3c6.83,1.11,13.56,2.15,20.49,2.34
				c8.01,0.22,16.32-0.18,24.22-1.57C92.6,139.31,93.62,138.82,94.28,138.03z"/>
			<path id="XMLID_573_" class="st1" d="M40.74,134.82c-0.04-0.06-0.07-0.13-0.1-0.22c-0.11-0.34-0.09-0.7-0.07-1.05
				c0.61-10.42,1.32-20.8,2.81-31.14c1.21-8.39,2.34-17.22,5.13-25.26c1.56-4.51,3.92-9.35,8.97-10.44
				c9.4-2.02,19.36-2.96,28.68-0.02c4.77,1.51,6.39,5.79,6.96,10.37c1.23,9.85,1.36,19.98,1.34,29.9
				c-0.02,9.64-0.56,19.23-1.32,28.84c-0.14,1.77-5.22,1.72-6.56,1.87c-2.11,0.23-4.22,0.42-6.33,0.61
				c-4.38,0.39-8.78,0.53-13.17,0.42c-4.39-0.11-8.78-0.47-13.14-1.07c-2.18-0.3-4.35-0.67-6.51-1.1c-1.74-0.34-4.61-0.46-6.14-1.28
				C41.05,135.11,40.86,135.02,40.74,134.82z"/>
		</g>
		<g id="XMLID_568_">
			<path id="XMLID_570_" class="st0" d="M127.25,69.93c-0.18-1.5-1.37-2.18-2.86-2.38c1.17-0.84,1.89-1.89,1.36-3.16
				c-0.59-1.41-2.25-1.68-4.01-1.52c1.95-1.53,3.46-3.38,1.82-4.97c-1.29-1.25-3.38-0.63-4.88-0.21c-0.78,0.22-1.55,0.49-2.29,0.79
				c1.89-2.58,3.25-5.42,0.13-5.77c-2.06-0.23-4.28,1.91-5.73,3.13c-1.45,1.23-2.74,2.63-3.88,4.13c-0.46-2.79-1.46-5.61-4.06-4.27
				c-1.59,0.81-1.94,3.06-2.16,4.62c-0.22,1.52-0.19,3.02,0.02,4.51c-0.03,0.12-0.04,0.25-0.02,0.39c0.4,2.88,1.2,5.63,2.34,8.3
				c-0.07,0.1-0.13,0.22-0.16,0.37c-0.77,3.38-1.68,6.72-2.72,10.01c0.37-1.17-0.62-3.66-0.98-4.8c-0.52-1.69-1.22-3.32-2.08-4.85
				c-1.64-2.92-3.98-5.88-6.77-7.8c-2.19-1.51-2.5,2.63-2.82,3.91c-0.62,2.46-1.15,4.95-1.61,7.45c-0.91,5-1.49,10.06-1.72,15.14
				c-0.21,4.69-0.13,9.39,0.25,14.07c0.32,3.91,0.66,8,2,11.72c2.05,5.71,7.8,11.23,14.3,8.83c7.29-2.69,9.19-11.97,10.76-18.64
				c2.27-9.69,3.13-19.65,2.65-29.59c0.03-0.02,0.06-0.03,0.09-0.05c1.58-1.19,2.89-2.63,3.89-4.34c2.24-0.64,4.56-1.18,6.74-1.98
				C126.17,72.49,127.43,71.48,127.25,69.93z"/>
			<path id="XMLID_569_" class="st1" d="M124.43,71c-0.8,0.59-2.35,0.73-3.3,1c-1.25,0.36-2.51,0.73-3.76,1.09
				c-0.13,0.04-0.23,0.09-0.32,0.16c-0.19,0.07-0.37,0.2-0.5,0.44c-0.84,1.51-1.95,2.84-3.33,3.88c-0.23,0.17-0.35,0.4-0.4,0.63
				c-0.39,0.09-0.71,0.4-0.68,0.93c0.49,9.83-0.32,19.68-2.57,29.27c-1.07,4.56-2.14,9.85-4.96,13.7
				c-3.12,4.25-8.39,5.31-12.53,1.78c-3.55-3.03-4.61-7.87-5.18-12.29c-0.64-4.93-0.88-9.92-0.82-14.88
				c0.11-9.46,1.46-18.84,3.93-27.96c5.99,4.94,9.03,12.67,8.14,20.4c-0.02,0.19,0.01,0.35,0.07,0.49
				c-2.37,6.43-5.26,12.66-8.65,18.65c-0.63,1.12,1.09,2.12,1.72,1.01C97.45,98.37,102,86.65,104.8,74.42
				c0.02-0.09,0.03-0.18,0.03-0.26c0.24-0.29,0.35-0.69,0.16-1.12c-0.83-1.86-1.45-3.77-1.89-5.74c0.08-0.18,0.11-0.4,0.04-0.65
				c-0.36-1.29-0.6-2.6-0.61-3.94c-0.01-1.17-0.09-3.43,0.69-4.39c1.23-1.5,1.45,1.22,1.6,2.14c0.19,1.14,0.37,2.27,0.56,3.41
				c-0.04,0.23-0.01,0.47,0.11,0.66l0,0c0.11,0.68,0.72,0.84,1.23,0.64c0.78,0.36,1.39,1,1.67,1.85c0.39,1.22,2.32,0.7,1.92-0.53
				c-0.48-1.48-1.57-2.67-2.99-3.24c-0.01-0.11-0.02-0.22-0.03-0.34c1.69-2.6,3.76-4.9,6.28-6.72c0.23-0.16,1.46-1.16,1.64-1.09
				c0.92,0.36-0.36,1.99-0.59,2.27c-1.03,1.28-2.05,2.56-3.08,3.83c-0.65,0.8,0.2,2.27,1.21,1.57c2.02-1.42,4.75-3.16,7.29-3.38
				c0.41-0.03,1.84-0.18,1.81,0.65c-0.01,0.26-1.43,1.08-1.7,1.28c-1.19,0.88-2.38,1.76-3.57,2.64c-0.68,0.5-0.46,1.44,0.06,1.78
				c0.21,0.25,0.54,0.37,0.95,0.22c0.98-0.36,1.97-0.66,3.01-0.83c0.57-0.1,2.68-0.59,3.14-0.09c0.66,0.7-4.93,2.78-5.5,2.95
				c-0.64,0.18-0.8,0.79-0.64,1.28c-0.1,0.68,0.39,1.42,1.17,1.09c1.14-0.48,2.31-0.8,3.56-0.85
				C123.06,69.48,126.22,69.67,124.43,71z"/>
		</g>
	</g>
	<g id="XMLID_556_">
		<g id="XMLID_564_">
			<path id="XMLID_566_" class="st0" d="M89.65,58.13c-1.47,0.07-2.87-0.41-3.94-1.35c-1.2-1.05-1.92-2.52-2.01-4.14
				c-0.1-1.67,0.49-3.35,1.63-4.61c0.96-1.06,2.28-1.76,3.72-1.96c0.17-0.02,0.34-0.04,0.52-0.05c1.48-0.07,3,0.41,4.07,1.3
				c0.68,0.57,1.16,1.26,1.41,2.06c0.22,0.7,0.31,1.47,0.27,2.28c-0.08,1.5-0.6,3-1.47,4.21C92.9,57.23,91.37,58.05,89.65,58.13
				L89.65,58.13z"/>
			<path id="XMLID_565_" class="st1" d="M92.41,54.82c-1.32,1.84-4.04,2.04-5.66,0.47c-1.6-1.55-1.6-3.9-0.3-5.64
				c0.69-0.92,1.71-1.61,2.85-1.82c1.13-0.2,2.34,0.21,3.19,0.97c0.96,0.84,1.2,1.97,1.03,3.2C93.39,53.01,93,54,92.41,54.82z"/>
		</g>
		<g id="XMLID_561_">
			<path id="XMLID_563_" class="st0" d="M53.73,52.16c-1.47,0.07-2.87-0.41-3.94-1.34c-1.2-1.05-1.92-2.52-2.01-4.14
				c-0.1-1.67,0.49-3.35,1.63-4.61c0.96-1.06,2.28-1.76,3.72-1.96c0.17-0.02,0.34-0.04,0.52-0.05c1.48-0.07,3,0.41,4.07,1.3
				c0.68,0.57,1.16,1.26,1.42,2.06c0.22,0.7,0.31,1.47,0.27,2.28c-0.08,1.5-0.6,3-1.47,4.21C56.98,51.26,55.44,52.07,53.73,52.16
				L53.73,52.16z"/>
			<path id="XMLID_562_" class="st1" d="M56.49,48.85c-1.32,1.84-4.04,2.04-5.66,0.47c-1.6-1.55-1.6-3.9-0.3-5.64
				c0.69-0.92,1.71-1.61,2.85-1.82c1.13-0.2,2.34,0.21,3.19,0.97c0.96,0.84,1.2,1.97,1.03,3.2C57.47,47.04,57.08,48.03,56.49,48.85z
				"/>
		</g>
		<g id="XMLID_557_">
			<path id="XMLID_560_" class="st0" d="M60.27,69.1c0.02-0.6,0.04-1.2,0.09-1.8c0.1-1.3,0.28-2.6,0.52-3.88
				c0.22-1.22,0.26-2.48,0.38-3.72c0.05-0.55,0.25-1.27-0.02-1.77c-0.28-0.51-1-0.78-1.45-1.13c-0.63-0.5-1.21-1.07-1.76-1.65
				c-1.2-1.28-2.21-2.73-2.99-4.31c-2.49-5.04-3.18-11.33-2.13-19.22c0.95-7.15,4.11-19.67,14.59-23.11
				c0.12-0.04,0.23-0.07,0.34-0.09c0.1-0.03,0.21-0.05,0.35-0.1c1.57-0.59,3.26-0.94,5.01-1.03c2.99-0.15,6.13,0.47,9.09,1.79
				c4.68,2.08,8.28,6.22,10.13,11.65c1.44,4.19,1.92,9.12,1.44,14.63c-0.61,6.99-2.26,12.74-4.93,17.09
				c-1.25,2.05-2.89,3.78-4.87,5.14c-0.67,0.46-1.38,0.88-2.1,1.25c-0.42,0.21-0.46,0.39-0.56,0.96l-0.05,0.28
				c-0.1,0.52-0.2,1.04-0.29,1.57c-0.19,1.07-0.35,2.13-0.48,3.15c-0.27,2.18-0.41,4.32-0.41,6.34c0,0.08-9.32,20.73-14.92,18.32
				c-2.71-1.17-4.66-5.09-5.05-7.98c-0.45-3.34-0.21-6.79,0-10.15C60.24,70.58,60.25,69.84,60.27,69.1z"/>
			<path id="XMLID_559_" class="st1" d="M89.25,47.7c-1.63,4.18-4.24,7.58-8.17,9.59c-0.22,0.17-0.42,0.35-0.6,0.55
				c-0.15,0.17-0.27,0.35-0.39,0.54c-0.24,0.59-0.44,1.2-0.59,1.83c-0.01,0.03-0.02,0.05-0.04,0.07c-0.69,3.42-1.05,6.88-1.08,10.37
				c-0.92,4.19-9.98,17.37-12.86,16.33c-2.01-0.73-2.72-3.36-3.1-5.22c-0.56-2.68-0.66-5.46-0.65-8.19c0-1.86,0.02-3.72,0.2-5.57
				c0.17-1.78,0.61-3.52,0.81-5.29c0.19-1.6,0.53-3.36,0.01-4.96c-0.58-1.79-2.27-2.5-3.5-3.78c-1.25-1.3-2.28-2.82-3.02-4.46
				c-1.98-4.4-2.25-9.44-1.94-14.2c0.57-8.8,3.44-20.52,12.27-24.52c0.4-0.21,0.54-0.28,0.82-0.41c4.05-1.97,8.63-1.67,12.87-0.16
				c4.23,1.51,7.51,4.65,9.43,8.67c1.89,3.96,2.55,8.4,2.52,12.76C92.22,37.07,91.21,42.64,89.25,47.7z"/>
		</g>
	</g>
	<g id="XMLID_536_">
		<g id="XMLID_548_">
			<path id="XMLID_550_" class="st0" d="M105.2,10.28c-0.8-5.75-6.18-10.46-12.1-9.68c-4.09,0.54-7.01,3.53-7.6,7.58
				c-0.61,4.15,0.91,9.4,4.31,12.06c1.92,1.5,4.39,2.18,6.81,1.82C102.27,21.22,105.98,15.85,105.2,10.28z"/>
			<path id="XMLID_549_" class="st0" d="M96.88,19.99c-2.17,0.48-4.45-0.2-6.13-1.62c-1.88-1.59-3.04-3.93-3.62-6.29
				c-0.65-2.64-0.33-4.62,1.38-6.79c1.46-1.84,3.76-2.87,6.11-2.78c4.45,0.17,8.08,3.83,8.63,8.16
				C103.79,14.93,101.14,19.04,96.88,19.99z"/>
		</g>
		<g id="XMLID_543_">
			<path id="XMLID_547_" class="st0" d="M86.44,7.05c-2.23-0.08-4.68,1.6-4.99,3.91c-0.18,1.38,0.4,2.57,0.97,3.77
				c0.27,0.57,0.56,1.13,0.87,1.68c0.64,1.14,1.37,2.24,2.18,3.28c1.56,1.98,3.51,3.8,5.89,4.71c0.33,0.13,0.66,0.23,1,0.32
				c1.88,0.48,3.74-0.16,4.72-1.87c1.09-1.89,0.68-4.13-0.08-6.06C95.39,12.67,91.32,7.23,86.44,7.05z"/>
			<path id="XMLID_544_" class="st1" d="M96.01,19.02c0.36,1.89-0.27,4.38-2.66,4.23c-1.68-0.1-3.33-1.55-4.53-2.61
				c-2.05-1.82-3.65-4.02-4.85-6.46c-2.14-3.98,0.63-5.76,2.82-5.47c1.41,0.19,2.66,1.01,3.74,1.89
				C93.04,12.63,95.4,15.79,96.01,19.02z"/>
		</g>
		<g id="XMLID_540_">
			<path id="XMLID_542_" class="st0" d="M91.41,17.06c-0.07-1.11-1-2-1.67-2.94c-0.79-1.1-1.71-2.11-2.73-2.99
				c-1.99-1.7-4.37-2.89-6.89-3.57C74.93,6.17,69.25,6.89,64.39,9.1c-1.19,0.54-2.34,1.18-3.43,1.9
				c-5.12,3.41-9.48,8.23-11.89,13.93c-2.68,6.34-0.17,12.57,2.88,18.26c0.93,1.74,2.12-0.66,2.05-1.63c-0.25-3.3,0-6.64,0.61-9.89
				c0.27-1.41,0.36-1.86,1.86-1.97c2.17-0.17,4.33-0.23,6.49-0.47c4.37-0.49,8.71-1.33,12.94-2.55c2.81-0.81,5.64-1.63,8.28-2.9
				c1.59-0.76,3.09-1.74,4.42-2.89c0.92-0.8,2.2-1.66,2.65-2.89C91.39,17.66,91.43,17.35,91.41,17.06z"/>
			<path id="XMLID_541_" class="st0" d="M73.74,25.2c-6.14,1.61-12.44,2.44-18.79,2.54c-0.49-0.44-1.36-0.45-1.58,0.36
				c-0.92,3.52-1.39,7.07-1.43,10.66c-1.83-3.96-2.98-8.11-1.28-12.48c1.97-5.08,6.1-9.83,10.48-13c8.75-6.32,22.65-6.62,28.13,3.92
				c-0.02,0.03-0.05,0.05-0.07,0.08C85.91,22.12,79.09,23.8,73.74,25.2z"/>
		</g>
		<g id="XMLID_537_">
			<path id="XMLID_539_" class="st0" d="M97.37,30.87c-0.19-4.4-1.67-11.84-6.14-14c-5.81-2.8-5.85,6.09-5.67,9.27
				c0.2,3.76,0.72,7.5,1.54,11.17c0.42,1.86,0.91,3.71,1.47,5.53c0.27,0.89,0.57,1.77,0.87,2.64c0.21,0.6,0.4,1.82,1.05,2.11
				c2.21,0.99,4.77-5.54,5.31-6.96C96.97,37.53,97.51,34.19,97.37,30.87z"/>
			<path id="XMLID_538_" class="st0" d="M91.32,44.83c-1.59-4.48-2.72-9.1-3.33-13.82c-0.36-2.77-0.6-5.59-0.54-8.39
				c0.02-0.93,0.05-1.93,0.41-2.8c1.11-2.63,3.83-0.24,4.72,1.25C96.95,28.37,96.08,37.99,91.32,44.83z"/>
		</g>
	</g>
	<path class="st1" d="M40.94,139.77c0.44,0.33,0.83-0.14,1.17-0.43c0.46-0.39,0.91-0.84,1.44-1.13c2.27-1.24,4.03,1.02,5.56,2.35
		c0.6,0.52,1.26,0.95,2.07,0.71c1.13-0.33,2.07-1.19,3.11-1.73c2.2-1.14,4.32-0.48,6.33,0.73c1.36,0.82,3.2,2.4,4.82,1.33
		c0.8-0.53,1.51-1.26,2.39-1.73c1.09-0.58,2.42-0.99,3.65-0.65c1.02,0.28,1.86,0.98,2.67,1.63c0.58,0.47,1.35,1.22,2.16,1.15
		c1.15-0.1,2.05-1.49,2.9-2.15c1.01-0.79,2.22-1.21,3.49-1.27c1.28-0.06,2.65,0.28,3.72,1c0.59,0.39,1.05,0.88,1.52,1.4
		c0.4,0.44,0.81,0.86,1.41,0.97c1.08,0.2,2.21-0.41,2.82-1.28c0.77-1.09,0.84-5.24,0.81-6.54l-52.2-0.23
		C40.69,134.85,40.24,139.24,40.94,139.77z"/>
	<path d="M95.03,136.59c-0.06-1.31-2.1-1.32-2.04,0c0,0.1,0.01,0.2,0.01,0.3c0.03,1.31-0.12,2.68-0.89,3.77
		c-0.62,0.87-1.74,1.48-2.82,1.28c-0.6-0.11-1.01-0.53-1.41-0.97c-0.47-0.52-0.94-1.01-1.52-1.4c-1.07-0.72-2.44-1.07-3.72-1
		c-1.27,0.06-2.48,0.48-3.49,1.27c-0.85,0.66-1.74,2.05-2.9,2.15c-0.81,0.07-1.58-0.68-2.16-1.15c-0.81-0.65-1.64-1.35-2.67-1.63
		c-1.23-0.33-2.56,0.07-3.65,0.65c-0.88,0.47-1.58,1.2-2.38,1.73c-1.62,1.07-3.46-0.51-4.82-1.33c-2.01-1.21-4.13-1.87-6.32-0.73
		c-1.04,0.54-1.98,1.4-3.11,1.73c-0.8,0.24-1.47-0.19-2.06-0.71c-1.53-1.33-3.29-3.59-5.56-2.35c-0.53,0.29-0.98,0.74-1.44,1.13
		c-0.34,0.29-0.73,0.76-1.17,0.43c-0.71-0.53-0.62-1.92-0.52-2.88c0.02-0.2,0.04-0.4,0.06-0.55c0.13-1.31-1.91-1.3-2.04,0
		c-0.11,1.16-0.19,2.49,0.22,3.6c0.19,0.5,0.5,0.97,0.91,1.33c0.64,0.58,1.5,0.88,2.37,0.58c0.55-0.19,1.01-0.56,1.45-0.93
		c0.39-0.33,0.8-0.83,1.31-0.98c0.57-0.17,1.26,0.5,1.75,0.96c1.62,1.51,3.29,3.16,5.67,2.2c1.25-0.5,2.27-1.44,3.51-1.95
		c0.93-0.39,1.94-0.13,2.82,0.29c1.18,0.56,2.3,1.46,3.52,2.03c0.75,0.35,1.53,0.59,2.37,0.55c0.71-0.03,1.31-0.23,1.87-0.55
		c0.34-0.19,0.66-0.43,0.98-0.69c0.9-0.73,1.88-1.49,3.07-1.63c0.93-0.11,1.72,0.59,2.4,1.14c0.5,0.41,1.02,0.84,1.58,1.17
		c0.37,0.22,0.75,0.39,1.17,0.49c1.01,0.23,1.82-0.03,2.54-0.49c1.44-0.9,2.57-2.58,4.36-2.82c1.42-0.19,2.77,0.32,3.74,1.36
		c0.54,0.57,1.08,1.09,1.68,1.46c0.66,0.4,1.4,0.63,2.3,0.55c0.71-0.06,1.34-0.26,1.89-0.55c0.5-0.26,0.93-0.61,1.3-1.02
		C94.59,140.96,95.13,138.67,95.03,136.59z"/>
	<g>
		<g>
			<path class="st0" d="M25.95,82.18c-0.83,4.03,0.74,8.09,2.87,11.47c1.96,3.12,4.59,5.68,7.38,8.05c0.74,0.63,1.82,0.73,2.55,0
				c0.65-0.65,0.74-1.91,0-2.55c-2.4-2.04-4.76-4.2-6.51-6.84c-1.71-2.58-3.47-5.99-2.81-9.18c0.2-0.95-0.28-1.94-1.26-2.21
				C27.28,80.68,26.15,81.22,25.95,82.18L25.95,82.18z"/>
		</g>
	</g>
	<g>
		<g>
			<path class="st0" d="M83.95,101.61c0.7-1.03,1.01-0.16,0.93,2.59c-0.33-0.15-0.38-0.17-0.17-0.07c0.23,0.1,0.48,0.22,0.73,0.29
				c0.42,0.12,0.88,0.16,1.31,0.17c0.67,0.01,1.34-0.05,2-0.08c1.44-0.07,2.89-0.14,4.33-0.21c0.94-0.05,1.84-0.8,1.8-1.8
				c-0.04-0.94-0.79-1.85-1.8-1.8c-1.12,0.05-2.24,0.11-3.36,0.16c-1.07,0.05-2.16,0.16-3.23,0.12c-0.34-0.01,0.23,0.07,0.03,0
				c-0.07-0.02-0.47-0.08-0.21-0.05c0.12,0.05,0.13,0.05,0.02,0c-0.14-0.06-0.29-0.12-0.43-0.18c-0.17-0.06-0.48-0.1-0.6-0.1
				c-0.88,0.02-1.66,0.57-1.88,1.44c-0.27,1.02,0.35,2.02,1.33,2.35c0.94,0.31,1.81-0.26,2.31-1.01c0.52-0.79,0.18-2.03-0.65-2.46
				C85.51,100.49,84.51,100.77,83.95,101.61L83.95,101.61z"/>
		</g>
	</g>
	<g id="XMLID_376_">
		<g id="XMLID_604_">
			<path id="XMLID_607_" class="st2" d="M84.95,37.53c0.36-0.42,0.36-1.24-0.32-1.55c-3.51-1.59-7.32-1.87-11.01-0.82
				c-2.18-0.95-4.46-0.97-6.63-0.04c-3.63-1.43-7.51-1.5-11.2-0.2c-0.7,0.25-0.78,1.07-0.45,1.52c-0.02,0.05-0.03,0.1-0.04,0.15
				c-0.76,4.72,0.93,10.64,6.86,10.07c5.05-0.49,7.05-5.67,5.85-10.01c1.39-0.54,2.92-0.57,4.33-0.06
				c-1.61,4.23-0.08,9.61,4.94,10.53c5.86,1.08,8.06-4.67,7.71-9.44C84.97,37.63,84.96,37.58,84.95,37.53z"/>
			<path id="XMLID_606_" class="st1" d="M60.91,44.81c-4.15-0.53-4.33-4.92-3.8-8.15c0.01-0.09,0.01-0.17,0-0.25
				c3.02-0.87,6.07-0.76,9.04,0.34C67.52,40.42,65.43,45.39,60.91,44.81z"/>
			<path id="XMLID_605_" class="st1" d="M78.67,45.39c-4.55,0.19-6.2-4.95-4.53-8.49c3.06-0.84,6.1-0.68,9.04,0.44
				c-0.02,0.08-0.02,0.16-0.02,0.25C83.4,40.86,82.85,45.21,78.67,45.39z"/>
		</g>
		<g id="XMLID_457_">
			<path id="XMLID_603_" class="st0" d="M64.69,39.49c-0.4-0.82-1.22-0.67-1.68-0.08c-0.65,0.83-0.59,2.32,0.1,3.1
				c0.45,0.51,1.33,0.52,1.62-0.18C65.12,41.41,65.12,40.38,64.69,39.49z"/>
			<path id="XMLID_602_" class="st0" d="M78.6,39.49c-0.4-0.82-1.22-0.67-1.68-0.08c-0.65,0.83-0.59,2.32,0.1,3.1
				c0.45,0.51,1.33,0.52,1.62-0.18C79.02,41.41,79.03,40.38,78.6,39.49z"/>
			<path id="XMLID_601_" class="st0" d="M69.92,47.3c-0.44-1.5-0.4-2.96,0.14-4.43c0.41-1.1-1.31-1.7-1.71-0.6
				c-0.64,1.74-0.73,3.6-0.21,5.39C68.46,48.77,70.24,48.42,69.92,47.3z"/>
			<path id="XMLID_458_" class="st0" d="M74.36,49.02c-0.86,1.3-2.57,1.6-3.8,0.61c-0.9-0.73-2.19,0.55-1.28,1.28
				c2.16,1.75,5.1,1.36,6.65-0.97C76.57,48.96,75,48.05,74.36,49.02z"/>
		</g>
	</g>
	<g>
		<path d="M57.58,91.6c-2.33-0.08-4.65-0.34-6.93-0.77c-0.32-0.06-0.67-0.11-0.93,0.08c-0.25,0.19-0.31,0.53-0.34,0.85
			c-0.16,1.53-0.23,3.07-0.19,4.61c0.04,1.86,0.43,4.03,2.09,4.85c1.42,0.71,3.22,0.04,4.27-1.14c1.06-1.18,1.54-2.75,1.97-4.28
			c0.37-1.33,0.72-2.69,0.63-4.07"/>
		<g>
			<path d="M57.58,89.6c-1.4-0.05-2.79-0.17-4.18-0.34c-0.06-0.01-0.39-0.05-0.06-0.01c-0.2-0.03-0.4-0.06-0.59-0.09
				c-0.3-0.05-0.59-0.09-0.89-0.14c-0.85-0.15-1.69-0.37-2.55-0.12c-1.97,0.57-1.98,2.79-2.08,4.45c-0.08,1.23-0.12,2.49-0.03,3.72
				c0.19,2.55,1.09,5.14,3.66,6.14c2.65,1.03,5.46-0.61,6.91-2.79c0.78-1.18,1.23-2.58,1.61-3.93c0.44-1.54,0.83-3.15,0.74-4.76
				c-0.06-1.04-0.88-2.05-2-2c-1.03,0.05-2.06,0.88-2,2c0.01,0.26,0.02,0.52,0.01,0.78c-0.01,0.13-0.02,0.26-0.03,0.39
				c-0.03,0.4-0.01,0.14,0,0.05c-0.09,0.59-0.23,1.16-0.38,1.74c-0.12,0.47-0.25,0.93-0.39,1.39c-0.07,0.22-0.13,0.44-0.21,0.65
				c-0.04,0.11-0.07,0.22-0.11,0.32c-0.05,0.14-0.2,0.48-0.05,0.15c-0.18,0.41-0.39,0.81-0.64,1.19c-0.06,0.09-0.13,0.19-0.19,0.28
				c0.24-0.31,0.05-0.07-0.01-0.01c-0.07,0.07-0.14,0.15-0.21,0.22c-0.06,0.05-0.41,0.43-0.05,0.08c-0.14,0.14-0.34,0.23-0.51,0.33
				c-0.04,0.02-0.2,0.13-0.27,0.14c0.32-0.03,0.22-0.08,0.06-0.03c-0.12,0.04-0.45,0.19-0.57,0.15c0.14,0.06,0.36-0.02,0.1-0.02
				c-0.05,0-0.4-0.03-0.43-0.01c0.07-0.04,0.45,0.12,0.11,0c-0.03-0.01-0.28-0.08-0.28-0.09c0.03-0.04,0.41,0.24,0.09,0.02
				c-0.03-0.02-0.23-0.12-0.23-0.14c0-0.03,0.31,0.29,0.09,0.06c-0.06-0.06-0.12-0.13-0.19-0.19c-0.29-0.27,0.09,0.1,0.06,0.1
				c-0.03,0-0.2-0.31-0.22-0.34c-0.04-0.08-0.08-0.16-0.13-0.24c-0.13-0.24-0.04,0.04,0.04,0.1c-0.09-0.06-0.15-0.43-0.17-0.53
				c-0.05-0.18-0.09-0.37-0.13-0.56c-0.02-0.09-0.03-0.19-0.05-0.28c-0.09-0.49,0.03,0.45,0-0.04c-0.07-0.97-0.08-1.93-0.05-2.9
				c0.02-0.57,0.05-1.14,0.09-1.7c0.02-0.27,0.05-0.53,0.07-0.8c0.01-0.13,0.09-0.46-0.01,0.06c0.01-0.04,0.02-0.09,0.03-0.13
				c-0.08,0.31-0.3,0.5-0.66,0.56c-0.18,0.11-0.37,0.22-0.55,0.33c0.2,0.01,0.22,0.01,0.06,0c-0.31-0.03,0.23,0.05,0.29,0.06
				c0.33,0.06,0.66,0.11,0.98,0.17c0.73,0.12,1.47,0.22,2.21,0.3c1.29,0.15,2.58,0.25,3.88,0.3c1.05,0.04,2.05-0.95,2-2
				C59.53,90.48,58.71,89.64,57.58,89.6L57.58,89.6z"/>
		</g>
	</g>
</g>
</svg>
