<?xml version="1.0" encoding="utf-8"?>
<!-- Generator: Adobe Illustrator 24.2.1, SVG Export Plug-In . SVG Version: 6.00 Build 0)  -->
<svg version="1.1" id="Capa_1" xmlns="http://www.w3.org/2000/svg" xmlns:xlink="http://www.w3.org/1999/xlink" x="0px" y="0px"
	 viewBox="0 0 200 200" style="enable-background:new 0 0 200 200;" xml:space="preserve">
<style type="text/css">
	.st0{fill:#F9BA31;}
</style>
<g>
	<path class="st0" d="M101.24,95.87c3.11,0,5.63,2.52,5.63,5.63c0,3.11-2.52,5.63-5.63,5.63c-3.11,0-5.63-2.52-5.63-5.63
		C95.61,98.39,98.13,95.87,101.24,95.87z"/>
	<path class="st0" d="M101.24,29c-40.04,0-72.5,32.46-72.5,72.5c0,40.04,32.46,72.5,72.5,72.5c40.04,0,72.5-32.46,72.5-72.5
		C173.74,61.46,141.29,29,101.24,29z M50.04,74.92c-0.59,0-1.19-0.16-1.72-0.51c-1.47-0.95-1.89-2.92-0.93-4.38
		c8.29-12.78,20.77-22.49,35.15-27.33c1.66-0.56,3.46,0.33,4.01,1.99c0.56,1.66-0.33,3.46-1.99,4.01
		C71.53,53.1,60.22,61.89,52.7,73.48C52.1,74.42,51.08,74.92,50.04,74.92z M59.9,83.37c-0.58,0-1.16-0.16-1.68-0.48
		c-1.48-0.93-1.93-2.88-1.01-4.37c7.37-11.81,18.74-20.53,32.01-24.56c1.66-0.51,3.44,0.44,3.95,2.11c0.51,1.67-0.44,3.44-2.11,3.95
		c-11.8,3.58-21.91,11.34-28.47,21.85C61.99,82.84,60.95,83.37,59.9,83.37z M73.52,87.02c-0.61,0.91-1.61,1.39-2.62,1.39
		c-0.61,0-1.23-0.17-1.77-0.54c-1.45-0.98-1.83-2.95-0.85-4.4c5.56-8.23,13.79-14.5,23.17-17.66c1.67-0.55,3.46,0.34,4.01,2
		c0.56,1.66-0.33,3.46-1.99,4.02C85.38,74.53,78.31,79.94,73.52,87.02z M80.13,101.5c0-11.66,9.45-21.12,21.12-21.12
		c11.66,0,21.12,9.45,21.12,21.12c0,11.66-9.46,21.12-21.12,21.12C89.58,122.62,80.13,113.16,80.13,101.5z M101.3,136.62
		c-0.32-1.72,0.81-3.38,2.53-3.7c10.02-1.89,19.11-7.82,24.92-16.27c0.99-1.44,2.96-1.81,4.4-0.82c1.44,1,1.81,2.96,0.81,4.41
		c-6.76,9.81-17.31,16.7-28.97,18.9c-0.2,0.04-0.39,0.05-0.59,0.05C102.91,139.2,101.58,138.14,101.3,136.62z M103.59,148.37
		c-0.33-1.71,0.8-3.37,2.52-3.7c12.82-2.43,24.12-9.63,31.81-20.26c1.02-1.41,3-1.73,4.42-0.71c1.41,1.03,1.73,3,0.71,4.42
		c-8.65,11.95-21.35,20.03-35.76,22.76c-0.2,0.04-0.4,0.06-0.59,0.06C105.2,150.95,103.88,149.89,103.59,148.37z M153.51,133.7
		c-10.18,15.92-26.63,26.92-45.14,30.19c-0.18,0.03-0.37,0.05-0.55,0.05c-1.51,0-2.84-1.08-3.12-2.62c-0.3-1.72,0.85-3.37,2.57-3.67
		c16.77-2.96,31.69-12.93,40.91-27.36c0.94-1.48,2.91-1.9,4.37-0.96C154.03,130.27,154.46,132.23,153.51,133.7z"/>
</g>
</svg>
