<?xml version="1.0" encoding="utf-8"?>
<!-- Generator: Adobe Illustrator 24.2.1, SVG Export Plug-In . SVG Version: 6.00 Build 0)  -->
<svg version="1.1" id="Capa_1" xmlns="http://www.w3.org/2000/svg" xmlns:xlink="http://www.w3.org/1999/xlink" x="0px" y="0px"
	 viewBox="0 0 200 200" style="enable-background:new 0 0 200 200;" xml:space="preserve">
<style type="text/css">
	.st0{fill:#F9BA31;}
</style>
<g>
	<path class="st0" d="M101.61,52.97c-26.15,0-47.42,21.27-47.42,47.42s21.27,47.42,47.42,47.42c26.15,0,47.42-21.27,47.42-47.42
		S127.75,52.97,101.61,52.97L101.61,52.97z M92.19,76.32c-2.6,0-4.71-2.11-4.71-4.71c0-2.6,2.11-4.71,4.71-4.71h18.84
		c2.6,0,4.71,2.11,4.71,4.71c0,2.6-2.11,4.71-4.71,4.71H92.19z M118.47,131.39c-7.79,0-14.13-6.34-14.13-14.13
		c0-7.79,6.34-14.13,14.13-14.13c7.79,0,14.13,6.34,14.13,14.13C132.6,125.05,126.27,131.39,118.47,131.39L118.47,131.39z
		 M118.47,131.39"/>
	<path class="st0" d="M123.18,117.26c0,2.6-2.11,4.71-4.71,4.71c-2.6,0-4.71-2.11-4.71-4.71c0-2.6,2.11-4.71,4.71-4.71
		C121.08,112.55,123.18,114.66,123.18,117.26L123.18,117.26z M123.18,117.26"/>
	<path class="st0" d="M177.29,95.68h-0.15c-1.03-16.88-7.58-32.7-18.79-45.37l0.11-0.11c1.84-1.84,1.84-4.82,0-6.66
		c-1.84-1.84-4.82-1.84-6.66,0l-0.11,0.11c-12.66-11.21-28.49-17.76-45.37-18.79v-0.15c0-2.6-2.11-4.71-4.71-4.71
		c-2.6,0-4.71,2.11-4.71,4.71v0.15c-16.88,1.03-32.71,7.58-45.37,18.79l-0.1-0.11c-1.84-1.84-4.82-1.84-6.66,0
		c-1.84,1.84-1.84,4.82,0,6.66l0.1,0.11C33.65,62.98,27.1,78.8,26.07,95.68h-0.15c-2.6,0-4.71,2.11-4.71,4.71
		c0,2.6,2.11,4.71,4.71,4.71h0.15c1.06,17.31,7.92,33.51,19.65,46.33l-9.97,19.93h-3.37c-2.6,0-4.71,2.11-4.71,4.71
		c0,2.6,2.11,4.71,4.71,4.71h6.28c1.78,0,3.42-1.01,4.21-2.6l9.96-19.91c12.44,10.51,27.75,16.66,44.06,17.66v0.15
		c0,2.6,2.11,4.71,4.71,4.71c2.6,0,4.71-2.11,4.71-4.71v-0.15c16.3-0.99,31.62-7.14,44.06-17.66l9.96,19.91
		c0.8,1.59,2.43,2.6,4.21,2.6h6.28c2.6,0,4.71-2.11,4.71-4.71c0-2.6-2.11-4.71-4.71-4.71h-3.37l-9.97-19.93
		c11.74-12.82,18.6-29.02,19.66-46.33h0.15c2.6,0,4.71-2.11,4.71-4.71C182,97.79,179.89,95.68,177.29,95.68L177.29,95.68z
		 M101.61,157.23c-31.34,0-56.84-25.5-56.84-56.84c0-31.34,25.5-56.84,56.84-56.84c31.34,0,56.84,25.5,56.84,56.84
		C158.45,131.74,132.95,157.23,101.61,157.23L101.61,157.23z M101.61,157.23"/>
</g>
</svg>
