<svg xmlns="http://www.w3.org/2000/svg" version="1.1" width="36" height="32" style=""><rect id="backgroundrect" width="100%" height="100%" x="0" y="0" fill="none" stroke="none"/>
<title>books</title>



<g class="currentLayer" style=""><title>Layer 1</title><path d="M7 4h-6c-0.55 0-1 0.45-1 1v22c0 0.55 0.45 1 1 1h6c0.55 0 1-0.45 1-1v-22c0-0.55-0.45-1-1-1zM6 10h-4v-2h4v2z" id="svg_1" class=""/><path d="M7,4 h-6 c-0.55,0 -1,0.45 -1,1 v22 c0,0.55 0.45,1 1,1 h6 c0.55,0 1,-0.45 1,-1 v-22 c0,-0.55 -0.45,-1 -1,-1 zM6,10 h-4 v-2 h4 v2 z" class="" id="svg_5" fill-opacity="1" fill="#fabb31"/><path d="M17 4h-6c-0.55 0-1 0.45-1 1v22c0 0.55 0.45 1 1 1h6c0.55 0 1-0.45 1-1v-22c0-0.55-0.45-1-1-1zM16 10h-4v-2h4v2z" id="svg_2" class=""/><path d="M17,4 h-6 c-0.55,0 -1,0.45 -1,1 v22 c0,0.55 0.45,1 1,1 h6 c0.55,0 1,-0.45 1,-1 v-22 c0,-0.55 -0.45,-1 -1,-1 zM16,10 h-4 v-2 h4 v2 z" class="" id="svg_4"/><path d="M17,4 h-6 c-0.55,0 -1,0.45 -1,1 v22 c0,0.55 0.45,1 1,1 h6 c0.55,0 1,-0.45 1,-1 v-22 c0,-0.55 -0.45,-1 -1,-1 zM16,10 h-4 v-2 h4 v2 z" class="" id="svg_6" fill-opacity="1" fill="#fabb31"/><path d="M23.909 5.546l-5.358 2.7c-0.491 0.247-0.691 0.852-0.443 1.343l8.999 17.861c0.247 0.491 0.852 0.691 1.343 0.443l5.358-2.7c0.491-0.247 0.691-0.852 0.443-1.343l-8.999-17.861c-0.247-0.491-0.852-0.691-1.343-0.443z" id="svg_3" class="" fill-opacity="1" fill="#fabb31"/></g></svg>