<?xml version="1.0" encoding="utf-8"?>
<!-- Generator: Adobe Illustrator 24.2.1, SVG Export Plug-In . SVG Version: 6.00 Build 0)  -->
<svg version="1.1" id="Capa_1" xmlns="http://www.w3.org/2000/svg" xmlns:xlink="http://www.w3.org/1999/xlink" x="0px" y="0px"
	 viewBox="0 0 200 200" style="enable-background:new 0 0 200 200;" xml:space="preserve">
<style type="text/css">
	.st0{fill:#F9BA31;}
</style>
<g>
	<g>
		<g>
			<path class="st0" d="M103.54,118.78c-0.95,0.48-2.09,0.41-2.98-0.17c-0.89-0.59-1.4-1.6-1.34-2.67c0.06-1.06,0.69-2.02,1.64-2.5
				c1.32-0.63,2.49-1.52,3.46-2.62c4.55-5.37,1.1-14.41,1.06-14.5c-0.5-1.26-0.09-2.69,1-3.49c4.2-2.79,7.15-7.09,8.24-12.01
				c0.18-1.14-0.17-2.3-0.93-3.16c-0.25-0.05-0.51,0.04-0.68,0.22c-0.59,0.65-1.22,1.26-1.88,1.84c-0.02,0.02-0.04,0.03-0.06,0.05
				c-3.54,2.99-7.25,5.76-11.11,8.31c-1.54,1.06-2.81,1.92-3.48,2.45c-0.45,0.35-0.78,0.82-0.95,1.36l-7.91,23.73
				c-0.16,0.47-0.21,0.97-0.12,1.46l5.22,31.29c0.47,2.84-0.45,5.73-2.48,7.77c-0.09,0.09-0.18,0.17-0.28,0.25L57.17,182h46.36
				c2-2.54,4.29-4.82,6.84-6.8c0.1-0.06,0.2-0.11,0.3-0.16l-2.9-59.33C106.52,116.95,105.1,117.98,103.54,118.78z"/>
			<path class="st0" d="M129.04,131.3c0.01-1.54,0.42-3.05,1.19-4.39c-3.66-2.28-5.15-6.87-3.52-10.87
				c-4.33-1.16-7.13-5.35-6.54-9.8c0.59-4.44,4.38-7.76,8.87-7.75h16.13l1.61-32.8h-35.49l0.3,6.3c0.58-0.19,1.18-0.3,1.79-0.33
				c1.7-0.02,3.34,0.64,4.54,1.85c1.97,2.08,2.92,4.93,2.6,7.79c-0.85,5.44-3.63,10.39-7.83,13.95l4.11,83.89
				c0.07,1.6,1.38,2.86,2.98,2.86h18.5c1.58,0,2.88-1.24,2.96-2.82l0.6-12.09h-18.76c-1.65,0-2.98-1.34-2.98-2.98
				s1.34-2.98,2.98-2.98h19.05l1.02-20.88h-5.16C133.05,140.25,129.04,136.24,129.04,131.3z"/>
			<path class="st0" d="M148.98,59.73c3.76-4.13,6.12-9.35,6.72-14.91h-53.33c0.6,5.56,2.96,10.78,6.72,14.91H148.98z"/>
			<path class="st0" d="M129.04,15c-13.66,0.02-25.13,10.28-26.66,23.86h53.33C154.17,25.28,142.7,15.02,129.04,15z M117.11,32.89
				h-2.98c-1.65,0-2.98-1.34-2.98-2.98s1.34-2.98,2.98-2.98h2.98c1.65,0,2.98,1.34,2.98,2.98S118.76,32.89,117.11,32.89z
				 M129.04,26.93h-2.98c-1.65,0-2.98-1.34-2.98-2.98c0-1.65,1.34-2.98,2.98-2.98h2.98c1.65,0,2.98,1.34,2.98,2.98
				C132.03,25.59,130.69,26.93,129.04,26.93z M143.95,32.89h-2.98c-1.65,0-2.98-1.34-2.98-2.98s1.34-2.98,2.98-2.98h2.98
				c1.65,0,2.98,1.34,2.98,2.98S145.6,32.89,143.95,32.89z"/>
			<path class="st0" d="M149.92,128.32h-11.93c-1.65,0-2.98,1.34-2.98,2.98c0,1.65,1.34,2.98,2.98,2.98h11.93
				c1.65,0,2.98-1.34,2.98-2.98S151.56,128.32,149.92,128.32z"/>
			<path class="st0" d="M158.29,81.91l-6.09-5.15l-0.48,9.81h2.96c1.63,0.11,3.17-0.73,3.95-2.16
				C159.03,83.58,158.9,82.6,158.29,81.91z"/>
			<path class="st0" d="M152.9,116.39h-17.89c-1.65,0-2.98,1.34-2.98,2.98c0,1.65,1.34,2.98,2.98,2.98h17.89
				c1.65,0,2.98-1.34,2.98-2.98C155.88,117.73,154.55,116.39,152.9,116.39z"/>
			<path class="st0" d="M152.9,104.46h-23.86c-1.65,0-2.98,1.34-2.98,2.98c0,1.65,1.34,2.98,2.98,2.98h23.86
				c1.65,0,2.98-1.34,2.98-2.98C155.88,105.8,154.55,104.46,152.9,104.46z"/>
		</g>
	</g>
</g>
</svg>
