<svg xmlns="http://www.w3.org/2000/svg" version="1.1" width="24" height="24"><rect id="backgroundrect" width="100%" height="100%" x="0" y="0" fill="none" stroke="none"/>
<title>check_circle_outline</title>

<g class="currentLayer" style=""><title>Layer 1</title><path d="M12 20.016q3.281 0 5.648-2.367t2.367-5.648-2.367-5.648-5.648-2.367-5.648 2.367-2.367 5.648 2.367 5.648 5.648 2.367zM12 2.016q4.125 0 7.055 2.93t2.93 7.055-2.93 7.055-7.055 2.93-7.055-2.93-2.93-7.055 2.93-7.055 7.055-2.93zM16.594 7.594l1.406 1.406-8.016 8.016-4.969-5.016 1.406-1.406 3.563 3.563z" id="svg_1" class="" fill-opacity="1" fill="#fabb31"/><path d="M12,20.016 q3.281,0 5.648,-2.367 t2.367,-5.648 t-2.367,-5.648 t-5.648,-2.367 t-5.648,2.367 t-2.367,5.648 t2.367,5.648 t5.648,2.367 zM12,2.016 q4.125,0 7.055,2.93 t2.93,7.055 t-2.93,7.055 t-7.055,2.93 t-7.055,-2.93 t-2.93,-7.055 t2.93,-7.055 t7.055,-2.93 zM16.594,7.594 l1.4060000000000001,1.4060000000000001 l-8.016,8.016 l-4.969,-5.016 l1.4060000000000001,-1.4060000000000001 l3.563,3.563 z" class="" id="svg_2" fill-opacity="1" fill="#fabb31"/></g></svg>