<?xml version="1.0" encoding="utf-8"?>
<!-- Generator: Adobe Illustrator 24.2.1, SVG Export Plug-In . SVG Version: 6.00 Build 0)  -->
<svg version="1.1" id="Capa_1" xmlns="http://www.w3.org/2000/svg" xmlns:xlink="http://www.w3.org/1999/xlink" x="0px" y="0px"
	 viewBox="0 0 100 100" style="enable-background:new 0 0 100 100;" xml:space="preserve">
<style type="text/css">
	.st0{fill:#282828;}
</style>
<g>
	<g>
		<path class="st0" d="M16.67,63.33c-0.53,1.06-0.32,2.34,0.51,3.17l0.67,0.67c1.94-2.3,4.2-4.79,6.94-7.53
			c0.19-0.19,0.39-0.29,0.59-0.47l-4.32-4.32C18.55,59.4,17.09,62.5,16.67,63.33z"/>
		<path class="st0" d="M40.31,75.17c-2.75,2.75-5.23,5.01-7.52,6.95l0.91,0.91c0.84,0.84,2.13,1.05,3.19,0.5
			c1.42-0.73,3.66-1.78,8.4-4.43l-4.52-4.52C40.6,74.77,40.51,74.97,40.31,75.17z"/>
		<path class="st0" d="M38.85,61.11c-1.98-1.98-7.56-0.21-10.18,2.41c-8.76,8.76-12.72,14.97-14.5,18.64
			c-0.51,1.05-0.3,2.31,0.53,3.14c0.83,0.83,2.09,1.04,3.14,0.53c3.59-1.74,9.72-5.68,18.59-14.55C39.31,68.4,40.73,63,38.85,61.11
			L38.85,61.11z"/>
		<path class="st0" d="M11.56,39.85L3.8,47.61c-0.88,0.88-1.06,2.24-0.44,3.31c0.61,1.06,1.88,1.6,3.09,1.28
			c4.19-1.12,7.88-1.6,10.37-0.96c3.54-6.29,7.33-12.07,11.36-17.33C25.85,32.42,18.16,33.25,11.56,39.85z"/>
		<path class="st0" d="M49.44,96.68c1.06,0.53,2.34,0.33,3.17-0.51l7.76-7.76c6.01-6.01,7.07-13.76,5.7-16.22
			c-5.86,4.42-11.8,8.15-17.34,11.27c0.38,2.16,0.13,4.25-0.78,10.37C47.78,95.01,48.4,96.16,49.44,96.68z"/>
		<path class="st0" d="M57.47,30.85c-3.21,3.21-3.21,8.43,0,11.64c3.21,3.21,8.43,3.21,11.64,0s3.21-8.43,0-11.64
			C65.9,27.64,60.68,27.64,57.47,30.85z"/>
		<path class="st0" d="M96.49,6c-0.1-1.36-1.18-2.43-2.53-2.53C87.22,2.96,80.51,3.79,73.93,5.8c0.5,4.52,2.83,9.41,6.82,13.4
			c4.04,4.04,9.06,6.38,13.66,6.81C96.19,19.81,97.03,13.16,96.49,6z"/>
		<path class="st0" d="M76.87,23.09c-4.57-4.57-7.35-10.04-8.25-15.37c-16.48,6.76-32.25,21.51-44.71,42.24l6.19,6.19
			c4.23-1.72,9.37-2.17,12.62,1.09c3.26,3.26,2.8,8.4,1.08,12.62l6.4,6.4c15.95-9.61,34.52-24.76,42.41-44.9
			C87.16,30.52,81.51,27.73,76.87,23.09z M72.99,46.37c-5.35,5.35-14.05,5.35-19.4,0c-5.35-5.35-5.35-14.05,0-19.4
			s14.05-5.35,19.4,0C78.34,32.31,78.34,41.02,72.99,46.37z"/>
	</g>
</g>
</svg>
