<?xml version="1.0" encoding="utf-8"?>
<!-- Generator: Adobe Illustrator 24.2.1, SVG Export Plug-In . SVG Version: 6.00 Build 0)  -->
<svg version="1.1" id="Capa_1" xmlns="http://www.w3.org/2000/svg" xmlns:xlink="http://www.w3.org/1999/xlink" x="0px" y="0px"
	 viewBox="0 0 140 144" style="enable-background:new 0 0 140 144;" xml:space="preserve">
<style type="text/css">
	.st0{fill:#231F20;}
	.st1{fill:#FFFFFF;}
	.st2{fill:#D2DCDF;}
</style>
<g>
	<g>
		<g>
			<g>
				<path d="M16.55,49.42c1.16,0.93,1.95,2.26,2.21,3.73l0.04,0.29l0.01,0.06c0.18,1.25,2.53,1.58,3.65,1.62l1.22-1.64l-0.05-0.31
					c-0.16-1.22-0.81-2.31-1.8-3.03C20.59,49.27,18.81,49.04,16.55,49.42z"/>
			</g>
		</g>
		<g>
			<g>
				<path d="M25.95,57.9c2.02,1.74,14.81,12.63,20.18,13.29c-2.19-4.9-16.3-14.04-18.55-15.48L25.95,57.9z"/>
			</g>
		</g>
		<g>
			<g>
				<polygon points="22.9,55.8 24.93,57.96 27.34,54.72 24.69,53.4 				"/>
			</g>
		</g>
	</g>
	<g>
		<g>
			<g>
				<path d="M23.62,45.52c0.84,1.23,1.21,2.73,1.03,4.21l-0.04,0.29l-0.01,0.06c-0.19,1.25,1.97,2.25,3.02,2.61l1.64-1.22l0.05-0.31
					c0.2-1.21-0.1-2.45-0.84-3.42C27.53,46.55,25.9,45.82,23.62,45.52z"/>
			</g>
		</g>
		<g>
			<g>
				<path d="M30.15,56.37c1.43,2.26,10.5,16.39,15.44,18.58c-0.67-5.32-11.51-18.17-13.25-20.2L30.15,56.37z"/>
			</g>
		</g>
		<g>
			<g>
				<polygon points="27.85,53.47 29.16,56.13 32.41,53.73 30.25,51.7 				"/>
			</g>
		</g>
	</g>
	<g id="XMLID_454_">
		<path id="XMLID_456_" class="st0" d="M107.57,82.97c-1.32-3.04,1.41-5.65,3.2-7.76c2.68-3.16,4.5-7.55,0.83-10.72
			c-1.71-1.48-3.97-2.13-5.71-3.55c-2.91-2.36-2.26-6.05-1.67-9.31c1.27-6.97,1.52-14.21,0.48-21.23
			c-0.93-6.28-2.65-14.31-8.34-18.08c-5.5-3.64-13.71-3.24-19.8-1.55c-9.07,2.53-16.42,9.36-19.47,18.28
			c-1.49,4.35-2,9.07-1.36,13.64c0.64,4.56,4.47,10.54,0.99,14.61c-2.46,2.87-6.32,4.65-5.31,9.12c1.18,5.21,7.9,7.48,5.9,13.5
			c-0.7,2.09-1.89,3.98-2.55,6.09c-0.74,2.36-0.92,4.89-0.59,7.35c0.58,4.41,2.67,8.52,5.78,11.68c7.18,7.31,18.08,8.83,27.82,7.5
			c8.84-1.21,21.05-3.8,24.94-13c1.5-3.53,1.63-7.76-0.59-11.03C110.79,86.58,108.53,85.18,107.57,82.97z"/>
		<path id="XMLID_455_" class="st0" d="M110.98,98.34c-1.87,4.82-6.48,7.56-11.13,9.23c-9.47,3.39-20.94,5.1-30.51,1.22
			c-8.95-3.63-16.1-13.4-12.21-23.24c1.41-3.58,3.81-7.02,2.11-10.97c-1.59-3.71-8.29-7.53-5.03-12c1.93-2.64,5.17-3.88,5.9-7.38
			c0.85-4.15-1.63-8.27-2.26-12.28c-1.6-10.27,2.89-20.97,11.63-26.67c7.61-4.97,22.19-7.87,28.42,0.78
			c2.49,3.46,3.49,8.51,4.3,12.6c1.12,5.65,1.37,11.46,0.69,17.18c-0.48,4.01-2.25,8.63-0.72,12.6c1.2,3.12,4.25,4.18,6.86,5.81
			c5.89,3.69-0.19,8.29-2.55,12.07c-2,3.2-1.5,6.27,0.93,9.04c1.34,1.53,2.93,2.83,3.73,4.75C112.1,93.37,111.87,96.06,110.98,98.34
			z"/>
	</g>
	<g id="XMLID_432_">
		<g id="XMLID_449_">
			<path id="XMLID_453_" class="st0" d="M59.99,64.53c-0.19-0.54-0.48-0.9-0.89-0.97c-1.21-0.2-3.23,1.58-4.15,2.25
				c-0.48,0.35-4.07,2.89-3.89,3.43c-0.33-1.02-1.02-1.94-2.14-2.59c0.39-3.1-0.92-6.13-3.84-7.56c-2.27-1.11-5.3-0.98-6.92,1.02
				c-3.54-1.88-7.44,1.69-8.81,5.11c-1.86,4.65-0.17,9.6,3.63,12.63c-5.28,7.28-10.76,14.99-12.33,24.03
				c-1.3,7.43,0,15.97,5.83,21.27c6.14,5.58,14.19,3.73,19.24-2.28c5.68-6.77,9.09-16.31,11.39-24.72
				c1.5-5.47,2.48-11.08,2.93-16.73c0.23-2.86,0.32-5.74,0.28-8.61C60.3,69.8,60.62,66.27,59.99,64.53z"/>
			<path id="XMLID_452_" class="st1" d="M44.48,61.13c1.73,1.01,2.6,2.91,2.44,4.86c-0.34-0.04-0.68-0.02-1.02,0.02
				c-0.01-0.13-0.04-0.27-0.1-0.42c-0.52-1.12-1.58-1.75-2.73-1.92c0.01-0.1,0.01-0.21-0.01-0.33c-0.33-1.65-1.55-2.27-2.91-2.27
				C41.33,60.14,43.16,60.35,44.48,61.13z"/>
			<path id="XMLID_451_" class="st1" d="M30.02,123.22c-6.95-3.96-8.59-13.21-7.43-20.46c1.47-9.17,7.17-16.93,12.49-24.27
				c0.42-0.58,0.11-1.15-0.39-1.4c-0.01-0.3-0.13-0.59-0.42-0.82c-2.41-1.84-3.84-4.68-3.61-7.73c0.1-1.34,0.57-2.68,1.25-3.83
				c0.96-1.61,3.29-3.86,5.3-2.76c-2.04,1.18-3.52,3.02-4.45,5.17c-0.53,1.22,1.46,1.81,1.99,0.6c0.48-1.12,1.17-2.1,2.07-2.92
				c0.42-0.38,0.86-0.72,1.35-1.01c0.6-0.36,2.57-1.47,2.88,0.06c-2.01,0.66-3.16,2.66-4.06,4.44c-0.6,1.18,1.16,2.28,1.77,1.09
				c0.59-1.16,1.21-2.48,2.32-3.24c0.93-0.63,2.38-0.69,2.92,0.46c0.01,0.02,0.02,0.03,0.03,0.04c-1.5,0.87-2.56,2.52-2.55,4.48
				c0.01,1.33,2.08,1.38,2.07,0.05c-0.01-2.44,2.59-4.11,4.66-2.49c1.93,1.51,0.98,4.17-0.44,5.68c-0.23-0.61-0.55-1.2-0.99-1.75
				c-0.82-1.05-2.31,0.39-1.5,1.43c1.54,1.97,0.88,4.61-1.26,5.8c-0.15,0.08-0.26,0.18-0.34,0.29c-0.29,0.08-0.55,0.29-0.67,0.66
				c-2.89,8.92-4.28,18.19-4.14,27.56c0.02,1.33,2.09,1.38,2.07,0.05c-0.03-2.15,0.02-4.3,0.15-6.43c3.59,1.43,6.76,3.57,9.44,6.39
				c-0.55,1.22-1.11,2.43-1.72,3.63C45.36,118.77,38.77,128.21,30.02,123.22z"/>
			<path id="XMLID_450_" class="st1" d="M51.42,106.31c-2.88-2.9-6.32-5.11-10.17-6.52c0.54-6.14,1.75-12.19,3.64-18.11
				c0.04-0.02,0.08-0.03,0.13-0.06c2.1-1.17,3.18-3.21,3.13-5.32c0.28,0.05,0.58-0.02,0.84-0.27c1.19-1.14,2.03-2.74,2.25-4.35
				c0.23,0,0.47-0.09,0.67-0.33c1.79-2.04,3.84-3.74,6.14-5.12C58.92,79.91,56.7,93.7,51.42,106.31z"/>
		</g>
		<g id="XMLID_445_">
			<path id="XMLID_448_" class="st0" d="M104.21,138.15c0.7-0.95,0.92-2.25,0.91-4.01c-0.01-1.61,0-3.22,0.02-4.82
				c0.13-11.19-0.3-22.38-1.27-33.52c-0.49-5.57-1.11-11.13-1.87-16.67c-0.53-3.84-0.99-7.94-2.97-11.36
				c-1.94-3.35-5.17-4.96-8.89-5.59c-8-1.37-16.47-0.5-24.25,1.11c-2.45,0.51-5.12,0.84-7.38,1.98c-4.05,2.04-6.05,6.74-7.34,10.84
				c-1.72,5.46-2.34,11.26-3.02,16.92c-0.75,6.23-1.3,12.48-1.66,18.74c-0.31,5.37-0.55,10.74-0.54,16.12
				c0.01,2.69,0.07,5.38,0.23,8.06c0.07,1.26-0.38,3.06,0.5,4.1c1.78,2.1,5.36,1.68,7.8,1.93c7.16,0.73,14.2,1.38,21.41,1.15
				c8.33-0.27,16.92-1.21,25.04-3.14C102.55,139.59,103.58,139.01,104.21,138.15z"/>
			<path id="XMLID_447_" class="st1" d="M48.44,138.15c-0.04-0.06-0.08-0.14-0.12-0.22c-0.14-0.34-0.14-0.72-0.14-1.09
				c-0.02-10.86,0.07-21.67,0.98-32.49c0.73-8.79,1.36-18.02,3.75-26.54c1.34-4.77,3.48-9.95,8.66-11.39
				c9.63-2.69,19.91-4.28,29.76-1.81c5.04,1.27,6.99,5.61,7.87,10.33c1.89,10.15,2.66,20.66,3.25,30.95c0.58,10,0.62,20,0.43,30.01
				c-0.03,1.84-5.31,2.11-6.69,2.35c-2.17,0.37-4.35,0.7-6.53,1.02c-4.52,0.67-9.08,1.09-13.64,1.25c-4.57,0.16-9.14,0.06-13.7-0.29
				c-2.28-0.18-4.56-0.42-6.83-0.73c-1.83-0.25-4.82-0.19-6.45-0.95C48.78,138.44,48.58,138.35,48.44,138.15z"/>
		</g>
		<g id="XMLID_434_">
			<g id="XMLID_441_">
				<path id="XMLID_444_" class="st0" d="M116.62,84.7c-4.93-9.09-12.61-16.44-21.74-21.23c-0.72-0.38-1.32,0.16-1.43,0.78
					c-0.26,0.06-0.49,0.24-0.6,0.59c-3.23,9.7,0.82,19.61,3.86,28.83c1.79,5.44,3.58,10.87,5.37,16.31
					c-0.04,0.32,0.08,0.65,0.29,0.89c1.36,4.27,2.44,9.36,5.7,12.6c2.64,2.63,6.6,3.57,9.81,1.37c3.57-2.45,4.47-6.93,4.82-10.96
					C123.55,103.81,121.44,93.58,116.62,84.7z"/>
				<path id="XMLID_443_" class="st1" d="M94.72,65.74c12.93,7.06,22.15,19.48,25.09,33.8c-5.75,2.2-11.14,5.15-16.08,8.82
					c-1.42-4.32-2.85-8.64-4.27-12.96C96.43,86.19,91.48,75.51,94.72,65.74z"/>
				<path id="XMLID_442_" class="st1" d="M120.02,117.8c-0.6,2.41-1.96,4.97-4.43,5.92c-2.55,0.98-5.2-0.52-6.77-2.5
					c-2.32-2.94-3.34-7.07-4.43-10.76c4.85-3.68,10.13-6.63,15.8-8.84c0.18,1.14,0.33,2.28,0.43,3.44
					C120.99,109.22,121.04,113.71,120.02,117.8z"/>
			</g>
			<g id="XMLID_435_">
				<path id="XMLID_440_" class="st0" d="M110.8,78.77c1.34-0.96,2.68-1.91,4.02-2.87c0.18-0.13,0.29-0.28,0.36-0.45
					c2.68-2.64,3.61-6.71,1.93-10.34c-0.92-1.98-2.86-3.66-4.83-3.97c-0.15-3.13-4.06-4.08-6.7-2.84c-2.53,1.18-5.37,4.15-3.68,6.8
					c-0.56,0.15-1.1,0.43-1.62,0.84c-0.2,0.16-0.31,0.35-0.37,0.55c-0.46-0.07-0.96-0.06-1.53,0.1c-3.4,0.94-3.5,4.87-2.44,7.59
					c0.07,0.19,0.18,0.33,0.31,0.43c-1.57,3.07-0.44,7.1,3.12,8.73c0.05,5.02,0.1,10.04,0.14,15.07c0.05,5.3-0.31,10.84,0.72,16.06
					c1.29,6.54,6.48,13.73,14.06,12.01c8.65-1.97,7.6-12.48,6.15-18.96C118.22,97.62,114.96,88.01,110.8,78.77z"/>
				<path id="XMLID_439_" class="st1" d="M110.21,61.38c-0.63,0.27-1.22,0.74-1.73,1.45c-1.67-0.58-3.59,0.04-4.43,1.68
					c-0.04-0.06-0.09-0.12-0.15-0.18C101.03,61.56,110.41,57.48,110.21,61.38z"/>
				<path id="XMLID_437_" class="st1" d="M114.31,124.33c-3.96,1.22-7.89-1.29-9.93-4.57c-2.31-3.72-2.62-8.22-2.71-12.48
					c-0.19-8.39-0.17-16.79-0.25-25.19c-0.01-0.85-0.85-1.08-1.46-0.79c-3.03-1.65-3.19-5.66-0.15-7.57
					c1.13-0.71-0.07-2.4-1.19-1.69c-0.36,0.22-0.67,0.48-0.96,0.74c-0.45-1.52-0.62-3.6,1.17-4.17c1.99-0.63,2.54,2.37,2.73,3.66
					c0.2,1.31,2.27,1.14,2.07-0.18c-0.23-1.53-0.81-3.46-1.93-4.62c1.65-1.06,3.9,0.02,3.65,2.17c-0.15,1.32,1.88,1.7,2.04,0.38
					c0.21-1.77-0.57-3.28-1.78-4.19c0.1-0.09,0.18-0.2,0.25-0.34c0.61-1.28,2.16-0.86,2.95-0.01c0.98,1.04,1.22,2.55,1.47,3.9
					c0.23,1.3,2.3,1.14,2.07-0.18c-0.34-1.88-0.79-3.92-2.14-5.28c1.47-2.2,3.91,0.13,4.7,1.44c0.81,1.34,1.14,2.97,0.94,4.52
					c-0.32,2.47-1.92,4.32-4.04,5.47c-0.22,0.12-0.35,0.27-0.42,0.44c-0.86,0.62-1.72,1.23-2.58,1.85
					c-0.63,0.45-0.49,1.22-0.04,1.62c3.29,7.26,6.02,14.74,8.12,22.43C118.52,107.72,123.26,121.59,114.31,124.33z"/>
			</g>
		</g>
	</g>
	<g id="XMLID_416_">
		<path id="XMLID_424_" class="st0" d="M65.37,68.16c0.03-0.62,0.07-1.25,0.13-1.87c0.14-1.35,0.36-2.69,0.63-4.02
			c0.26-1.26,0.33-2.57,0.48-3.85c0.06-0.57,0.29-1.31,0.02-1.84c-0.27-0.54-1.03-0.83-1.48-1.21c-0.64-0.53-1.23-1.14-1.79-1.76
			c-1.22-1.36-2.23-2.89-3-4.55c-2.46-5.3-3.04-11.85-1.76-20.03c1.16-7.41,4.75-20.35,15.71-23.68c0.13-0.04,0.24-0.06,0.35-0.09
			c0.11-0.03,0.22-0.05,0.37-0.1c1.65-0.58,3.41-0.9,5.24-0.95c3.11-0.08,6.36,0.64,9.41,2.08c4.81,2.28,8.45,6.66,10.25,12.35
			c1.39,4.39,1.78,9.52,1.15,15.25c-0.8,7.25-2.66,13.19-5.53,17.65c-1.35,2.1-3.1,3.86-5.19,5.23c-0.71,0.47-1.46,0.88-2.22,1.24
			c-0.45,0.21-0.48,0.39-0.6,0.98l-0.06,0.29c-0.12,0.54-0.23,1.08-0.34,1.62c-0.22,1.11-0.41,2.2-0.57,3.26
			c-0.34,2.26-0.53,4.48-0.58,6.58c0,0.08-10.18,21.32-15.94,18.68c-2.79-1.28-4.72-5.4-5.06-8.41c-0.39-3.48-0.05-7.07,0.24-10.55
			C65.3,69.7,65.33,68.93,65.37,68.16z"/>
		<path id="XMLID_423_" class="st1" d="M96,46.61c-1.79,4.31-4.59,7.78-8.72,9.77c-0.24,0.17-0.45,0.36-0.64,0.56
			c-0.16,0.17-0.29,0.36-0.42,0.56c-0.27,0.61-0.49,1.24-0.65,1.88c-0.01,0.03-0.02,0.05-0.04,0.07c-0.8,3.53-1.25,7.12-1.37,10.75
			C83.1,74.53,73.37,88.02,70.4,86.87c-2.07-0.8-2.74-3.56-3.1-5.5c-0.52-2.8-0.55-5.69-0.48-8.53c0.05-1.93,0.11-3.86,0.34-5.78
			c0.22-1.85,0.71-3.64,0.97-5.48c0.23-1.66,0.63-3.48,0.13-5.16c-0.56-1.88-2.3-2.65-3.54-4.01c-1.27-1.38-2.3-2.98-3.03-4.71
			c-1.95-4.63-2.11-9.87-1.67-14.8c0.8-9.14,4.07-21.25,13.34-25.2c0.42-0.21,0.57-0.28,0.86-0.41c4.25-1.96,9.01-1.53,13.39,0.15
			c4.36,1.67,7.69,5.01,9.6,9.24c1.87,4.16,2.45,8.8,2.31,13.32C99.35,35.63,98.17,41.4,96,46.61z"/>
		<path id="XMLID_422_" class="st2" d="M87.6,7.43c-4.37-1.68-9.13-2.1-13.39-0.15c-0.29,0.14-0.44,0.2-0.86,0.41
			c-8.86,3.78-12.23,15.02-13.22,23.98c9.99-0.94,19.54-4.71,27.47-10.87c-0.41,8.9,2.65,17.79,8.68,24.51
			c0.05,0.06,0.11,0.11,0.16,0.15c1.88-4.9,2.91-10.24,3.06-15.47c0.13-4.53-0.44-9.16-2.31-13.32C95.29,12.44,91.96,9.1,87.6,7.43z
			"/>
	</g>
	<path id="XMLID_413_" class="st0" d="M70.68,36c-0.43-0.95-1.37-0.8-1.91-0.14c-0.76,0.93-0.73,2.64,0.04,3.54
		c0.5,0.59,1.5,0.63,1.86-0.17C71.11,38.21,71.15,37.03,70.68,36z"/>
	<path id="XMLID_412_" class="st0" d="M84.73,35.96c-0.43-0.95-1.37-0.8-1.91-0.14c-0.76,0.93-0.73,2.64,0.04,3.54
		c0.5,0.59,1.5,0.63,1.86-0.17C85.17,38.17,85.2,36.99,84.73,35.96z"/>
	<path id="XMLID_410_" class="st0" d="M79.96,45.41c-1.35,1.12-2.95,1.64-4.7,1.39c-1.32-0.18-1.7,1.85-0.38,2.04
		c2.26,0.32,4.51-0.27,6.27-1.74C82.18,46.26,80.99,44.56,79.96,45.41z"/>
	<g id="XMLID_24_">
		<g id="XMLID_45_">
			<path id="XMLID_50_" class="st0" d="M102.66,19.88c-0.85-3.45-2.43-8.49-5.46-10.68c-1.93-1.4-4.51-0.66-5.76,1.27
				c-1.52,2.36-1.88,5.84-2.16,8.58c-0.3,2.9-0.26,5.84,0.1,8.74c0.74,5.81,2.82,11.45,6.08,16.32c0.3,0.44,0.6,0.88,0.92,1.31
				c0.48,0.66,1.34,0.62,1.79-0.04C103.21,37.96,104.8,28.58,102.66,19.88z"/>
			<path id="XMLID_49_" class="st0" d="M101.53,27.58c0.01,5.47-1.48,10.78-4.29,15.43c0.1-0.17-1.7-2.81-1.88-3.16
				c-0.63-1.18-1.18-2.4-1.67-3.64c-0.95-2.41-1.64-4.93-2.05-7.49c-0.77-4.77-0.97-10.87,0.89-15.44c0.59-1.45,3.03-3.67,4.27-1.57
				c0.29,0.33,0.55,0.69,0.76,1.08c0.35,0.55,0.65,1.14,0.94,1.72c0.72,1.43,1.31,2.93,1.78,4.47
				C101.11,21.76,101.52,24.67,101.53,27.58z"/>
		</g>
		<g id="XMLID_25_">
			<path id="XMLID_35_" class="st0" d="M94.21,10.03c-1.78-4.72-6.15-7.97-11.13-8.62C77.16,0.64,71.36,3.21,67,7.07
				c-8.36,7.4-15.73,20.42-9.55,31.29c0.44,0.77,1.76,0.44,1.87-0.41c0.26-2.13,0.52-4.26,0.78-6.39c8.87-1.66,17.13-5.5,24.06-11.1
				c-3.08,3.37-6.6,6.34-10.51,8.83c-1.12,0.72,0.07,2.41,1.19,1.69c7.69-4.91,13.93-11.61,18.32-19.6
				C93.82,11.41,94.51,10.83,94.21,10.03z"/>
			<path id="XMLID_33_" class="st0" d="M58.19,30.05c-0.15,1.24-0.3,2.49-0.45,3.74c-2.4-8.61,3.37-18.12,9.4-24.03
				c3.66-3.59,8.45-6.41,13.71-6.41c4.54,0,8.85,2.25,10.91,6.28c-0.03,0.04-0.07,0.07-0.1,0.11c-7.75,10.3-19.1,17.41-31.78,19.77
				C59.32,29.04,58.3,29.13,58.19,30.05z"/>
		</g>
	</g>
	<path id="XMLID_421_" class="st0" d="M77,42.36c-0.35-1.42-0.31-2.81,0.15-4.2c0.34-1.05-1.06-1.6-1.4-0.56
		c-0.55,1.66-0.63,3.43-0.22,5.12C75.79,43.77,77.26,43.42,77,42.36z"/>
	<g>
		<path class="st0" d="M85.27,132.57c-1.23,0.15-2.49,0.95-2.33,2.36c0.15,1.27,1.46,2.09,2.65,2.19c1.31,0.11,2.62-0.57,3.4-1.6
			c0.92-1.22,0.92-2.78,0.88-4.24c-0.09-3.3-0.51-6.58-0.95-9.85c-0.22-1.66-0.45-3.32-0.64-4.99c-0.14-1.23-0.5-3,0.98-3.55
			c0.52-0.2,1.12-0.09,1.48,0.36c0.49,0.61,0.24,1.49,0.09,2.17c-0.13,0.57-0.25,1.17-0.56,1.68c-0.37,0.62-0.99,0.94-1.62,1.23
			c-2.46,1.14-4.67,2.54-6.03,4.98c-1.14,2.04-1.7,4.93-0.32,7c1.56,2.35,5,2.5,7.48,1.82c2.64-0.72,5.92-3.43,3.68-6.28
			c-0.88-1.12-2.03-1.54-3.4-1.74c-1.41-0.2-2.47,0.31-3.56,1.17c-0.96,0.76,0.39,2.09,1.34,1.34c0.7-0.55,1.28-0.76,2.14-0.62
			c0.91,0.15,1.93,0.5,2.28,1.47c0.37,1.04-0.99,1.96-1.77,2.37c-0.96,0.49-2.06,0.72-3.13,0.73c-1.13,0.01-2.54-0.15-3.32-1.08
			c-0.62-0.74-0.72-1.78-0.62-2.71c0.21-2.05,1.5-3.89,3.09-5.13c1.82-1.42,4.56-1.73,5.6-4.01c0.89-1.94,1.44-4.91-0.66-6.27
			c-2.06-1.33-4.76,0.22-5.13,2.5c-0.21,1.26,0.07,2.58,0.22,3.83c0.18,1.43,0.37,2.85,0.56,4.28c0.42,3.13,0.8,6.26,0.87,9.42
			c0.03,1.27,0.1,2.82-1.16,3.54c-0.47,0.27-1.07,0.39-1.57,0.14c-0.43-0.21-0.63-0.56,0.01-0.64c0.51-0.06,0.94-0.39,0.95-0.95
			C86.22,133.05,85.77,132.51,85.27,132.57L85.27,132.57z"/>
	</g>
</g>
</svg>
