<?xml version="1.0" encoding="utf-8"?>
<!-- Generator: Adobe Illustrator 24.2.1, SVG Export Plug-In . SVG Version: 6.00 Build 0)  -->
<svg version="1.1" id="Capa_1" xmlns="http://www.w3.org/2000/svg" xmlns:xlink="http://www.w3.org/1999/xlink" x="0px" y="0px"
	 viewBox="0 0 60 60" style="enable-background:new 0 0 60 60;" xml:space="preserve">
<style type="text/css">
	.st0{fill:#F9BA31;}
</style>
<g>
	<path class="st0" d="M28.48,32.39c0-0.78,0.63-1.4,1.4-1.4c0.78,0,1.4,0.63,1.4,1.4v1.89h12.26v-0.57
		c-3.69-3.57-8.53-5.53-13.67-5.53s-9.97,1.96-13.67,5.53v0.57h12.26V32.39z M28.48,32.39"/>
	<path class="st0" d="M17.62,42.71c-0.77,0-1.4,0.63-1.4,1.4c0,0.77,0.63,1.4,1.4,1.4c0.77,0,1.4-0.63,1.4-1.4
		C19.03,43.34,18.4,42.71,17.62,42.71L17.62,42.71z M17.62,42.71"/>
	<path class="st0" d="M29.89,25.37c3.08,0,6.06,0.61,8.87,1.82c1.72,0.74,3.33,1.68,4.8,2.82v-24H16.22v24
		c1.47-1.13,3.08-2.07,4.8-2.82C23.83,25.98,26.81,25.37,29.89,25.37L29.89,25.37z M37.62,22.33L38,21.09
		c0.23-0.74,1.01-1.16,1.75-0.93c0.74,0.23,1.16,1.01,0.93,1.75l-0.38,1.24c-0.19,0.6-0.74,0.99-1.34,0.99
		c-0.14,0-0.28-0.02-0.41-0.06C37.81,23.86,37.39,23.07,37.62,22.33L37.62,22.33z M25.37,20.66l3.05-8.01
		c0-0.01,0.01-0.02,0.01-0.03c0.25-0.6,0.82-0.99,1.47-0.99h0c0.65,0,1.22,0.39,1.47,0.99c0,0.01,0.01,0.02,0.01,0.04l3.02,8.01
		c0.27,0.73-0.09,1.54-0.82,1.81c-0.16,0.06-0.33,0.09-0.5,0.09c-0.57,0-1.1-0.35-1.31-0.91l-0.41-1.09h-2.96l-0.42,1.09
		c-0.28,0.72-1.09,1.09-1.81,0.81C25.45,22.2,25.09,21.38,25.37,20.66L25.37,20.66z M19.47,23.16l-0.38-1.24
		c-0.23-0.74,0.19-1.53,0.93-1.75c0.74-0.23,1.53,0.19,1.75,0.93l0.38,1.24c0.23,0.74-0.19,1.53-0.93,1.75
		c-0.14,0.04-0.28,0.06-0.41,0.06C20.21,24.15,19.65,23.76,19.47,23.16L19.47,23.16z M19.47,23.16"/>
	<path class="st0" d="M29.89,16.66l-0.42,1.1h0.83L29.89,16.66z M29.89,16.66"/>
	<path class="st0" d="M42.15,42.71c-0.77,0-1.4,0.63-1.4,1.4c0,0.77,0.63,1.4,1.4,1.4c0.77,0,1.4-0.63,1.4-1.4
		C43.55,43.34,42.92,42.71,42.15,42.71L42.15,42.71z M42.15,42.71"/>
	<path class="st0" d="M52.45,6.01h-6.09v29.68c0,0.78-0.63,1.4-1.4,1.4H14.81c-0.78,0-1.4-0.63-1.4-1.4V6.01H7.32
		c-0.78,0-1.4,0.63-1.4,1.4v45.13c0,0.78,0.63,1.4,1.4,1.4h45.13c0.78,0,1.4-0.63,1.4-1.4V7.42C53.85,6.64,53.22,6.01,52.45,6.01
		L52.45,6.01z M17.62,48.33c-2.32,0-4.21-1.89-4.21-4.21c0-2.32,1.89-4.21,4.21-4.21c2.32,0,4.21,1.89,4.21,4.21
		C21.83,46.44,19.94,48.33,17.62,48.33L17.62,48.33z M27.08,48.33h-0.94c-0.78,0-1.4-0.63-1.4-1.4c0-0.78,0.63-1.4,1.4-1.4h0.94
		c0.78,0,1.4,0.63,1.4,1.4C28.48,47.7,27.85,48.33,27.08,48.33L27.08,48.33z M27.08,42.71h-0.94c-0.78,0-1.4-0.63-1.4-1.4
		c0-0.78,0.63-1.4,1.4-1.4h0.94c0.78,0,1.4,0.63,1.4,1.4C28.48,42.08,27.85,42.71,27.08,42.71L27.08,42.71z M33.63,48.33h-0.94
		c-0.78,0-1.4-0.63-1.4-1.4c0-0.78,0.63-1.4,1.4-1.4h0.94c0.78,0,1.4,0.63,1.4,1.4C35.04,47.7,34.41,48.33,33.63,48.33L33.63,48.33z
		 M33.63,42.71h-0.94c-0.78,0-1.4-0.63-1.4-1.4c0-0.78,0.63-1.4,1.4-1.4h0.94c0.78,0,1.4,0.63,1.4,1.4
		C35.04,42.08,34.41,42.71,33.63,42.71L33.63,42.71z M42.15,48.33c-2.32,0-4.21-1.89-4.21-4.21c0-2.32,1.89-4.21,4.21-4.21
		c2.32,0,4.21,1.89,4.21,4.21C46.36,46.44,44.47,48.33,42.15,48.33L42.15,48.33z M42.15,48.33"/>
</g>
</svg>
