<?xml version="1.0" encoding="utf-8"?>
<!-- Generator: Adobe Illustrator 24.2.1, SVG Export Plug-In . SVG Version: 6.00 Build 0)  -->
<svg version="1.1" id="Capa_1" xmlns="http://www.w3.org/2000/svg" xmlns:xlink="http://www.w3.org/1999/xlink" x="0px" y="0px"
	 viewBox="0 0 200 200" style="enable-background:new 0 0 200 200;" xml:space="preserve">
<style type="text/css">
	.st0{fill:#F9BA31;}
</style>
<g>
	<path class="st0" d="M78.27,52.36c-12.52,0-22.71,10.19-22.71,22.71s10.19,22.71,22.71,22.71s22.71-10.19,22.71-22.71
		S90.79,52.36,78.27,52.36z M78.27,84.14c-5.02,0-9.08-4.07-9.08-9.08c0-5.02,4.07-9.08,9.08-9.08c5.02,0,9.08,4.07,9.08,9.08
		C87.36,80.08,83.29,84.14,78.27,84.14z"/>
	<path class="st0" d="M169.47,88.74c-1.1-0.86-2.54-1.17-3.9-0.83l-48.44,12.11c-2.02,0.51-3.44,2.32-3.44,4.41v37.11
		c-1.42-0.5-2.95-0.78-4.54-0.78c-7.51,0-13.62,6.11-13.62,13.62c0,7.51,6.11,13.62,13.62,13.62c7.51,0,13.62-6.11,13.62-13.62
		v-32.92l39.36-9.84v23.86c-1.42-0.5-2.95-0.78-4.54-0.78c-7.51,0-13.62,6.11-13.62,13.62c0,7.51,6.11,13.62,13.62,13.62
		c7.51,0,13.62-6.11,13.62-13.62V92.32C171.21,90.92,170.57,89.6,169.47,88.74L169.47,88.74z"/>
	<path class="st0" d="M114.93,91.21l24.6-6.15c0.53-3.29,0.8-6.62,0.8-10c0-34.22-27.84-62.06-62.06-62.06
		c-34.22,0-62.06,27.84-62.06,62.06s27.84,62.06,62.06,62.06c9.24,0,18.19-2.03,26.34-5.85v-26.84
		C104.61,98.16,108.85,92.73,114.93,91.21L114.93,91.21z M78.27,106.85c-17.53,0-31.79-14.26-31.79-31.79s14.26-31.79,31.79-31.79
		s31.79,14.26,31.79,31.79S95.8,106.85,78.27,106.85L78.27,106.85z"/>
</g>
</svg>
