<?xml version="1.0" encoding="utf-8"?>
<!-- Generator: Adobe Illustrator 24.2.1, SVG Export Plug-In . SVG Version: 6.00 Build 0)  -->
<svg version="1.1" id="Capa_1" xmlns="http://www.w3.org/2000/svg" xmlns:xlink="http://www.w3.org/1999/xlink" x="0px" y="0px"
	 viewBox="0 0 91.09 89.17" style="enable-background:new 0 0 91.09 89.17;" xml:space="preserve">
<style type="text/css">
	.st0{fill:#F9BA31;}
</style>
<g>
	<g>
		<path class="st0" d="M85.11,39.46c-0.07-0.66-0.41-1.26-0.93-1.66l-6.43-4.87l2.34-7.72c0.19-0.63,0.11-1.32-0.22-1.89
			c-0.33-0.57-0.88-0.98-1.53-1.13l-7.86-1.83l-1-8c-0.08-0.66-0.43-1.25-0.97-1.64c-0.53-0.39-1.21-0.54-1.86-0.41l-7.92,1.52
			l-4.17-6.9c-0.34-0.57-0.9-0.96-1.55-1.1c-0.65-0.14-1.32,0-1.86,0.38l-6.62,4.61L37.91,4.2c-0.54-0.38-1.22-0.51-1.86-0.38
			c-0.65,0.14-1.21,0.54-1.55,1.1l-4.17,6.9l-7.92-1.52c-0.65-0.12-1.32,0.03-1.86,0.41c-0.53,0.39-0.88,0.98-0.97,1.64l-1,8
			l-7.86,1.83c-0.64,0.15-1.2,0.56-1.53,1.13c-0.33,0.57-0.41,1.26-0.22,1.89l2.34,7.72l-6.43,4.87c-0.53,0.4-0.86,1-0.93,1.66
			c-0.07,0.66,0.14,1.31,0.57,1.81l5.28,6.1l-3.89,7.07c-0.32,0.58-0.38,1.26-0.18,1.89c0.2,0.63,0.66,1.14,1.26,1.43l7.3,3.43
			l-0.68,8.04c-0.06,0.66,0.16,1.31,0.61,1.8c0.44,0.49,1.07,0.78,1.73,0.79l8.07,0.16l2.65,7.62c0.22,0.62,0.68,1.13,1.29,1.4
			c0.6,0.27,1.29,0.28,1.9,0.02l7.43-3.13l5.52,5.89c0.45,0.48,1.08,0.76,1.74,0.76c0.66,0,1.29-0.27,1.74-0.76l5.52-5.89l7.43,3.13
			c0.61,0.26,1.3,0.25,1.9-0.02c0.6-0.27,1.07-0.78,1.29-1.4l2.65-7.62l8.07-0.16c0.66-0.01,1.29-0.3,1.73-0.79
			c0.44-0.49,0.66-1.14,0.61-1.8l-0.68-8.04l7.3-3.43c0.6-0.28,1.05-0.8,1.26-1.43c0.2-0.63,0.14-1.31-0.18-1.89l-3.89-7.07
			l5.28-6.1C84.97,40.78,85.18,40.12,85.11,39.46z M44.53,67.03c-12.61,0-22.88-10.26-22.88-22.88s10.26-22.88,22.88-22.88
			s22.88,10.26,22.88,22.88C67.41,56.76,57.15,67.03,44.53,67.03z"/>
	</g>
</g>
<path class="st0" d="M44.53,26.05c-9.98,0-18.09,8.12-18.09,18.1s8.12,18.09,18.09,18.09c9.98,0,18.1-8.12,18.1-18.09
	S54.51,26.05,44.53,26.05z M48.14,51.47l-0.19-0.02c-0.31,1.9-1.99,3.66-4.36,4.34c-3.05,0.87-6.09-0.41-6.78-2.84
	c-0.69-2.44,1.22-5.12,4.27-5.99c2.03-0.58,4.03-0.19,5.36,0.83l1.43-16.81l1.99,0.17L48.14,51.47z"/>
</svg>
