<?xml version="1.0" encoding="utf-8"?>
<!-- Generator: Adobe Illustrator 24.2.1, SVG Export Plug-In . SVG Version: 6.00 Build 0)  -->
<svg version="1.1" id="Capa_1" xmlns="http://www.w3.org/2000/svg" xmlns:xlink="http://www.w3.org/1999/xlink" x="0px" y="0px"
	 viewBox="0 0 200 200" style="enable-background:new 0 0 200 200;" xml:space="preserve">
<style type="text/css">
	.st0{fill:#F9BA31;}
</style>
<g>
	<path class="st0" d="M108.84,76.06l6.33-6.33l6.33,6.33l-6.33,6.33L108.84,76.06z M108.84,76.06"/>
	<path class="st0" d="M96.18,88.71l6.33-6.33l6.33,6.33l-6.33,6.33L96.18,88.71z M96.18,88.71"/>
	<path class="st0" d="M83.53,101.36l6.33-6.33l6.33,6.33l-6.33,6.33L83.53,101.36z M83.53,101.36"/>
	<path class="st0" d="M121.5,63.41l6.33-6.33l6.33,6.33l-6.33,6.33L121.5,63.41z M121.5,63.41"/>
	<path class="st0" d="M70.87,114.02l6.33-6.33l6.33,6.33l-6.33,6.33L70.87,114.02z M70.87,114.02"/>
	<path class="st0" d="M165.93,39.2l-13.89-13.89c-1.75-1.75-4.58-1.75-6.33,0L135.12,35.9c-0.53,0.53-0.92,1.19-1.13,1.91
		l-2.89,9.86l12.47,12.47l9.86-2.89c0.72-0.21,1.37-0.6,1.91-1.13l10.59-10.59c0.84-0.84,1.31-1.98,1.31-3.16
		C167.24,41.18,166.77,40.04,165.93,39.2L165.93,39.2z M165.93,39.2"/>
	<path class="st0" d="M108.26,105.57c-1.32-0.01-2.45-0.04-3.44-0.17l-24.45,24.45c-0.87,0.87-2.02,1.31-3.16,1.31
		c-1.14,0-2.29-0.44-3.16-1.31L61.4,117.19c-1.75-1.75-1.75-4.58,0-6.33L93.46,78.8c-0.87-0.45-1.11-0.78-1.14-0.84
		c-0.21-0.34-0.22-1.31-0.22-2.26c-0.02-2.59-0.05-6.5-3.68-10.14c-2.54-2.54-6.24-3.71-10.15-3.22c-3.94,0.5-7.91,2.65-11.47,6.21
		c-3.47,3.47-6.46,9.26-9.1,14.36c-1.47,2.84-3.29,6.37-4.18,7.26c-3.09,3.09-6.35,4.04-10.46,5.24c-5.01,1.46-11.25,3.28-17.67,9.7
		c-8.13,8.13-11.81,18.14-10.67,28.96c1.04,9.79,6.17,19.73,14.45,28.01c8.28,8.28,18.22,13.41,28.01,14.45
		c1.29,0.14,2.57,0.21,3.83,0.21c9.34,0,17.97-3.71,25.12-10.87c6.42-6.42,8.24-12.66,9.7-17.67c1.2-4.12,2.15-7.37,5.24-10.46
		c1.4-1.4,2.73-1.64,5.37-2c3.06-0.43,7.24-1.01,11.17-4.94c0.87-0.87,3.8-4.05,5.14-8.52c1.48-4.94,0.39-9.57-3.07-13.03
		C116.11,105.65,111.76,105.6,108.26,105.57L108.26,105.57z M59.08,149.03c-0.87,0.87-2.02,1.31-3.16,1.31
		c-1.14,0-2.29-0.44-3.16-1.31l-10.55-10.55c-1.75-1.75-1.75-4.58,0-6.33c1.75-1.75,4.58-1.75,6.33,0l10.55,10.55
		C60.83,144.45,60.83,147.28,59.08,149.03L59.08,149.03z M72.8,150.44c-2.47,0-4.47-2-4.47-4.47c0-2.47,2-4.47,4.47-4.47
		c2.47,0,4.47,2,4.47,4.47C77.27,148.44,75.27,150.44,72.8,150.44L72.8,150.44z M72.8,150.44"/>
</g>
</svg>
