<?xml version="1.0" encoding="utf-8"?>
<!-- Generator: Adobe Illustrator 24.2.1, SVG Export Plug-In . SVG Version: 6.00 Build 0)  -->
<svg version="1.1" id="Capa_1" xmlns="http://www.w3.org/2000/svg" xmlns:xlink="http://www.w3.org/1999/xlink" x="0px" y="0px"
	 viewBox="0 0 100 100" style="enable-background:new 0 0 100 100;" xml:space="preserve">
<style type="text/css">
	.st0{fill:#F9BA31;}
</style>
<g>
	<g>
		<path class="st0" d="M37.83,69.26c0.34,1.51,1.88,2.45,3.43,2.1l25.27-5.69c1.55-0.35,2.54-1.86,2.2-3.37l-6.62-29.38l-30.89,6.96
			L37.83,69.26z M42.6,40.58l14.27-3.22c0.65-0.15,1.29,0.25,1.43,0.88c0.14,0.63-0.27,1.26-0.92,1.41l-14.27,3.22
			c-0.65,0.15-1.29-0.25-1.43-0.88C41.54,41.36,41.96,40.73,42.6,40.58L42.6,40.58z M43.65,45.21L57.92,42
			c0.65-0.15,1.29,0.25,1.43,0.88c0.14,0.63-0.27,1.26-0.92,1.41L44.16,47.5c-0.65,0.15-1.29-0.25-1.43-0.88
			C42.59,45.99,43,45.36,43.65,45.21L43.65,45.21z M44.69,49.84l14.27-3.22c0.65-0.15,1.29,0.25,1.43,0.88
			c0.14,0.63-0.27,1.26-0.92,1.41l-14.27,3.22c-0.65,0.15-1.29-0.25-1.43-0.88C43.63,50.62,44.04,49.99,44.69,49.84L44.69,49.84z
			 M45.73,54.48l14.27-3.22c0.65-0.15,1.29,0.25,1.43,0.88c0.14,0.63-0.27,1.26-0.92,1.41l-14.27,3.22
			c-0.65,0.15-1.29-0.25-1.43-0.88C44.68,55.25,45.09,54.62,45.73,54.48L45.73,54.48z M46.78,59.11l14.27-3.22
			c0.65-0.15,1.29,0.25,1.43,0.88c0.14,0.63-0.27,1.26-0.92,1.41l-14.27,3.22c-0.65,0.15-1.29-0.25-1.43-0.88
			C45.72,59.88,46.13,59.25,46.78,59.11L46.78,59.11z M47.82,63.74l14.27-3.22c0.65-0.15,1.29,0.25,1.43,0.88
			c0.14,0.63-0.27,1.26-0.92,1.41l-14.27,3.22c-0.65,0.15-1.29-0.25-1.43-0.88C46.76,64.52,47.17,63.89,47.82,63.74L47.82,63.74z
			 M37.85,41.65c0.66-0.15,1.26,0.27,1.43,0.88c0.17,0.61-0.3,1.27-0.92,1.41c-0.66,0.15-1.26-0.27-1.43-0.88
			C36.76,42.45,37.23,41.79,37.85,41.65L37.85,41.65z M38.89,46.28c0.66-0.15,1.26,0.27,1.43,0.88c0.17,0.61-0.3,1.27-0.92,1.41
			c-0.66,0.15-1.26-0.27-1.43-0.88C37.81,47.08,38.28,46.42,38.89,46.28L38.89,46.28z M39.93,50.92c0.66-0.15,1.26,0.27,1.43,0.88
			c0.17,0.61-0.3,1.27-0.92,1.41c-0.66,0.15-1.26-0.27-1.43-0.88C38.85,51.71,39.32,51.05,39.93,50.92L39.93,50.92z M40.98,55.55
			c0.66-0.15,1.26,0.27,1.43,0.88c0.17,0.61-0.3,1.27-0.92,1.41c-0.66,0.15-1.26-0.27-1.43-0.88
			C39.89,56.35,40.36,55.69,40.98,55.55L40.98,55.55z M42.02,60.18c0.66-0.15,1.26,0.27,1.43,0.88c0.17,0.61-0.3,1.27-0.92,1.41
			c-0.66,0.15-1.26-0.27-1.43-0.88C40.94,60.98,41.41,60.32,42.02,60.18L42.02,60.18z M43.06,64.81c0.66-0.15,1.26,0.27,1.43,0.88
			c0.17,0.61-0.3,1.27-0.92,1.41c-0.66,0.15-1.26-0.27-1.43-0.88C41.98,65.61,42.45,64.95,43.06,64.81L43.06,64.81z M43.06,64.81"/>
		<path class="st0" d="M61.17,28.74c-0.34-1.51-1.88-2.45-3.43-2.1l-25.27,5.69c-1.55,0.35-2.54,1.86-2.2,3.37l0.43,1.89l30.89-6.96
			L61.17,28.74z M61.17,28.74"/>
	</g>
</g>
</svg>
