<?xml version="1.0" encoding="utf-8"?>
<!-- Generator: Adobe Illustrator 24.2.1, SVG Export Plug-In . SVG Version: 6.00 Build 0)  -->
<svg version="1.1" id="Capa_1" xmlns="http://www.w3.org/2000/svg" xmlns:xlink="http://www.w3.org/1999/xlink" x="0px" y="0px"
	 viewBox="0 0 100 100" style="enable-background:new 0 0 100 100;" xml:space="preserve">
<style type="text/css">
	.st0{fill:#F9BA31;}
</style>
<g>
	<g>
		<path class="st0" d="M69.07,30.59c-0.23-0.23-0.55-0.37-0.88-0.37h-4.98v-1.25c0-0.69-0.56-1.25-1.25-1.25H37.04
			c-0.69,0-1.25,0.56-1.25,1.25v1.25h-4.98c-0.33,0-0.65,0.13-0.88,0.37c-0.23,0.23-0.37,0.55-0.37,0.88l0,3.74
			c0,2.75,2.24,4.98,4.98,4.98h4.39c1.98,2.39,4.75,4.1,7.9,4.72l-1.95,1.95c-0.27,0.27-0.4,0.64-0.36,1.02l0.82,7.42h8.32
			l0.82-7.42c0.04-0.38-0.09-0.75-0.36-1.02l-1.95-1.95c3.16-0.62,5.92-2.33,7.9-4.72h4.39c2.75,0,4.98-2.24,4.98-4.98l0-3.74
			C69.44,31.14,69.31,30.82,69.07,30.59L69.07,30.59z M34.55,37.7c-1.37,0-2.49-1.12-2.49-2.49l0-2.49h3.8
			c0.16,1.78,0.66,3.46,1.44,4.98H34.55z M66.94,35.21c0,1.37-1.12,2.49-2.49,2.49h-2.75c0.78-1.52,1.28-3.2,1.44-4.98h3.8
			L66.94,35.21z M66.94,35.21"/>
		<path class="st0" d="M59.47,67.77h-1.52l-2.26-9.02c-0.14-0.55-0.64-0.94-1.21-0.94h-9.97c-0.57,0-1.07,0.39-1.21,0.94l-2.26,9.02
			h-1.52c-0.69,0-1.25,0.56-1.25,1.25c0,0.69,0.56,1.25,1.25,1.25h19.94c0.69,0,1.25-0.56,1.25-1.25
			C60.71,68.33,60.16,67.77,59.47,67.77L59.47,67.77z M50.75,65.28h-2.49c-0.69,0-1.25-0.56-1.25-1.25c0-0.69,0.56-1.25,1.25-1.25
			h2.49c0.69,0,1.25,0.56,1.25,1.25C51.99,64.72,51.43,65.28,50.75,65.28L50.75,65.28z M50.75,65.28"/>
	</g>
</g>
</svg>
