<?xml version="1.0" encoding="utf-8"?>
<!-- Generator: Adobe Illustrator 24.2.1, SVG Export Plug-In . SVG Version: 6.00 Build 0)  -->
<svg version="1.1" id="Capa_1" xmlns="http://www.w3.org/2000/svg" xmlns:xlink="http://www.w3.org/1999/xlink" x="0px" y="0px"
	 viewBox="0 0 100 100" style="enable-background:new 0 0 100 100;" xml:space="preserve">
<style type="text/css">
	.st0{fill:#F9BA31;}
</style>
<g>
	<path class="st0" d="M68.35,62.11H30.65c-0.79,0-1.19,0.99-0.79,1.59l3.57,3.97c0.2,0.2,0.4,0.4,0.79,0.4h30.75
		c0.4,0,0.6-0.2,0.6-0.4l3.57-3.97C69.54,62.91,69.14,62.11,68.35,62.11L68.35,62.11z M68.35,62.11"/>
	<path class="st0" d="M53.67,41.84c0,2.19-1.78,3.97-3.97,3.97c-2.19,0-3.97-1.78-3.97-3.97c0-2.19,1.78-3.97,3.97-3.97
		C51.89,37.87,53.67,39.65,53.67,41.84L53.67,41.84z M53.67,41.84"/>
	<path class="st0" d="M65.57,29.94H33.83c-1.19,0-1.98,0.79-1.98,1.98v27.77h35.71V31.92C67.55,30.73,66.56,29.94,65.57,29.94
		L65.57,29.94z M63.58,53.74h-7.93v-3.97c0-2.58-11.9-2.58-11.9,0v3.97h-7.94V33.9h27.77V53.74z M63.58,53.74"/>
</g>
</svg>
