<?xml version="1.0" encoding="utf-8"?>
<!-- Generator: Adobe Illustrator 24.2.1, SVG Export Plug-In . SVG Version: 6.00 Build 0)  -->
<svg version="1.1" id="Capa_1" xmlns="http://www.w3.org/2000/svg" xmlns:xlink="http://www.w3.org/1999/xlink" x="0px" y="0px"
	 viewBox="0 0 100 100" style="enable-background:new 0 0 100 100;" xml:space="preserve">
<style type="text/css">
	.st0{fill:#F9BA31;}
</style>
<g>
	<g>
		<path class="st0" d="M54.34,42.55l-7.17-4.3c-0.54-0.36-1.25,0.18-1.25,0.72v9.14c0,0.72,0.72,1.07,1.25,0.72l7.17-4.66
			C55.05,43.8,55.05,42.91,54.34,42.55L54.34,42.55z M54.34,42.55"/>
		<path class="st0" d="M65.62,31.09H33.38c-1.08,0-1.79,0.72-1.79,1.79v32.25c0,0.9,0.72,1.79,1.79,1.79h32.25
			c0.9,0,1.79-0.9,1.79-1.79V32.88C67.41,31.8,66.52,31.09,65.62,31.09L65.62,31.09z M63.83,61.54h-21.5v1.79h-3.58v-1.79h-3.58
			v-3.58h3.58v-1.79h3.58v1.79h21.5V61.54z M63.83,52.58H35.17V34.67h28.66V52.58z M63.83,52.58"/>
	</g>
</g>
</svg>
