<?xml version="1.0" encoding="utf-8"?>
<!-- Generator: Adobe Illustrator 24.2.1, SVG Export Plug-In . SVG Version: 6.00 Build 0)  -->
<svg version="1.1" id="Capa_1" xmlns="http://www.w3.org/2000/svg" xmlns:xlink="http://www.w3.org/1999/xlink" x="0px" y="0px"
	 viewBox="0 0 100 100" style="enable-background:new 0 0 100 100;" xml:space="preserve">
<style type="text/css">
	.st0{fill:#1D1C1A;}
</style>
<g>
	<g>
		<path class="st0" d="M58.92,36.7l3.23-3.23l3.23,3.23l-3.23,3.23L58.92,36.7z M58.92,36.7"/>
	</g>
	<g>
		<path class="st0" d="M52.45,43.16l3.23-3.23l3.23,3.23l-3.23,3.23L52.45,43.16z M52.45,43.16"/>
	</g>
	<g>
		<path class="st0" d="M45.99,49.62l3.23-3.23l3.23,3.23l-3.23,3.23L45.99,49.62z M45.99,49.62"/>
	</g>
	<g>
		<path class="st0" d="M65.38,30.24l3.23-3.23l3.23,3.23l-3.23,3.23L65.38,30.24z M65.38,30.24"/>
	</g>
	<g>
		<path class="st0" d="M39.53,56.09l3.23-3.23l3.23,3.23l-3.23,3.23L39.53,56.09z M39.53,56.09"/>
	</g>
	<g>
		<path class="st0" d="M88.07,17.87l-7.09-7.09c-0.89-0.89-2.34-0.89-3.23,0l-5.41,5.41c-0.27,0.27-0.47,0.61-0.58,0.97l-1.48,5.04
			l6.37,6.37l5.04-1.48c0.37-0.11,0.7-0.31,0.97-0.58l5.41-5.41c0.43-0.43,0.67-1.01,0.67-1.62C88.74,18.88,88.5,18.3,88.07,17.87
			L88.07,17.87z M88.07,17.87"/>
	</g>
	<g>
		<path class="st0" d="M58.62,51.77c-0.68-0.01-1.25-0.02-1.76-0.09L44.38,64.17c-0.45,0.45-1.03,0.67-1.62,0.67
			c-0.58,0-1.17-0.22-1.62-0.67l-6.46-6.46c-0.89-0.89-0.89-2.34,0-3.23L51.06,38.1c-0.45-0.23-0.57-0.4-0.58-0.43
			c-0.11-0.17-0.11-0.67-0.11-1.15c-0.01-1.32-0.03-3.32-1.88-5.18c-1.3-1.3-3.19-1.9-5.18-1.64c-2.01,0.26-4.04,1.35-5.86,3.17
			c-1.77,1.77-3.3,4.73-4.65,7.33c-0.75,1.45-1.68,3.25-2.13,3.71c-1.58,1.58-3.24,2.06-5.34,2.68c-2.56,0.75-5.75,1.67-9.02,4.95
			c-4.15,4.15-6.03,9.26-5.45,14.79c0.53,5,3.15,10.08,7.38,14.31c4.23,4.23,9.31,6.85,14.31,7.38c0.66,0.07,1.31,0.1,1.96,0.1
			c4.77,0,9.17-1.9,12.83-5.55c3.28-3.28,4.21-6.47,4.96-9.02c0.61-2.1,1.1-3.76,2.68-5.34c0.71-0.71,1.39-0.84,2.74-1.02
			c1.56-0.22,3.7-0.52,5.71-2.52c0.44-0.44,1.94-2.07,2.63-4.35c0.76-2.52,0.2-4.89-1.57-6.65C62.63,51.81,60.41,51.79,58.62,51.77
			L58.62,51.77z M33.51,73.96c-0.45,0.45-1.03,0.67-1.62,0.67c-0.58,0-1.17-0.22-1.62-0.67l-5.39-5.39c-0.89-0.89-0.89-2.34,0-3.23
			c0.89-0.89,2.34-0.89,3.23,0l5.39,5.39C34.4,71.62,34.4,73.07,33.51,73.96L33.51,73.96z M40.51,74.69c-1.26,0-2.29-1.02-2.29-2.29
			c0-1.26,1.02-2.29,2.29-2.29c1.26,0,2.29,1.02,2.29,2.29C42.79,73.66,41.77,74.69,40.51,74.69L40.51,74.69z M40.51,74.69"/>
	</g>
</g>
</svg>
