<svg xmlns="http://www.w3.org/2000/svg" xmlns:xlink="http://www.w3.org/1999/xlink" version="1.1" style="enable-background:new 0 0 100 100;" xml:space="preserve" width="48.3516464571982" height="48.35164645719806"><rect id="backgroundrect" width="100%" height="100%" x="0" y="0" fill="none" stroke="none" class="" style=""/>
<style type="text/css">
	.st0{fill:#F9BA31;}
</style>

<g class="currentLayer" style=""><title>Layer 1</title><g id="svg_1" class="">
	<path class="st0" d="M42.525823211669916,36.83527313232422 H4.8258232116699205 c-0.79,0 -1.19,0.99 -0.79,1.59 l3.5700000000000003,3.9699999999999998 c0.2,0.2 0.4,0.4 0.79,0.4 h30.75 c0.4,0 0.6000000000000001,-0.2 0.6000000000000001,-0.4 l3.5700000000000003,-3.9699999999999998 C43.71582321166993,37.635273132324215 43.31582321166992,36.83527313232422 42.525823211669916,36.83527313232422 L42.525823211669916,36.83527313232422 zM42.525823211669916,36.83527313232422 " id="svg_2"/>
	<path class="st0" d="M27.845823211669924,16.565273132324222 c0,2.19 -1.78,3.9699999999999998 -3.9699999999999998,3.9699999999999998 c-2.19,0 -3.9699999999999998,-1.78 -3.9699999999999998,-3.9699999999999998 c0,-2.19 1.78,-3.9699999999999998 3.9699999999999998,-3.9699999999999998 C26.065823211669922,12.595273132324216 27.845823211669924,14.375273132324217 27.845823211669924,16.565273132324222 L27.845823211669924,16.565273132324222 zM27.845823211669924,16.565273132324222 " id="svg_3"/>
	<path class="st0" d="M39.745823211669915,4.66527313232422 H8.00582321166992 c-1.19,0 -1.98,0.79 -1.98,1.98 v27.77 h35.71 V6.6452731323242205 C41.72582321166992,5.455273132324219 40.735823211669924,4.66527313232422 39.745823211669915,4.66527313232422 L39.745823211669915,4.66527313232422 zM37.75582321166992,28.46527313232422 h-7.93 v-3.9699999999999998 c0,-2.58 -11.9,-2.58 -11.9,0 v3.9699999999999998 h-7.94 V8.625273132324217 h27.77 V28.46527313232422 zM37.75582321166992,28.46527313232422 " id="svg_4"/>
</g></g></svg>