<?xml version="1.0" encoding="utf-8"?>
<!-- Generator: Adobe Illustrator 24.2.1, SVG Export Plug-In . SVG Version: 6.00 Build 0)  -->
<svg version="1.1" id="Capa_1" xmlns="http://www.w3.org/2000/svg" xmlns:xlink="http://www.w3.org/1999/xlink" x="0px" y="0px"
	 viewBox="0 0 22.38 19.32" style="enable-background:new 0 0 22.38 19.32;" xml:space="preserve">
<style type="text/css">
	.st0{fill-rule:evenodd;clip-rule:evenodd;fill:#F9BA31;}
	.st1{fill:#F9BA31;}
</style>
<g>
	<path class="st0" d="M0.6,3.45l10.23-3.12c0.11-0.03,0.22-0.03,0.33,0l10.23,3.12c0.38,0.11,0.41,0.45,0.41,0.55
		c0,0.1-0.03,0.44-0.41,0.55l-5.4,1.61L10.9,3.94c-0.26-0.11-0.82-0.07-0.98,0.25c-0.22,0.44,0.3,0.65,0.57,0.76l4.03,1.71
		l-3.36,1.03c-0.11,0.03-0.22,0.03-0.33,0L0.6,4.56C0.22,4.44,0.19,4.11,0.19,4.01C0.19,3.9,0.22,3.57,0.6,3.45"/>
	<path class="st0" d="M15.96,6.68l3.11-0.92v3.92c0,0.17-0.09,0.34-0.24,0.43c-0.62,0.39-2.21,0.98-2.87,1.19V6.68z"/>
	<path class="st0" d="M10.9,8.18c0.16,0,0.32-0.02,0.47-0.07l3.24-0.96v4.67c-3.77,1.39-7.17,0.63-11.38-1.58
		c-0.13-0.1-0.2-0.25-0.2-0.4V5.91l7.4,2.19C10.58,8.15,10.74,8.18,10.9,8.18"/>
	<path class="st1" d="M15.48,6.5c0,0,0-0.13-0.03-0.18c-0.03-0.05-0.18-0.13-0.18-0.13l-4.6-2.01c-0.1-0.05-0.23,0-0.27,0.11
		c-0.05,0.1,0,0.23,0.11,0.27l4.4,1.92c0,0,0.12,0.05,0.14,0.08c0.03,0.04,0.03,0.2,0.03,0.2v9.19c-0.44-0.39-1.17-0.5-1.87-0.24
		c-0.94,0.35-1.47,1.24-1.19,1.99c0.28,0.75,1.27,1.07,2.21,0.72c0.81-0.3,1.32-1.01,1.26-1.68c0-0.01,0.01-0.01,0.01-0.02V6.5z"/>
</g>
</svg>
