<svg xmlns="http://www.w3.org/2000/svg" xmlns:xlink="http://www.w3.org/1999/xlink" version="1.1" style="enable-background:new 0 0 100 100;" xml:space="preserve" width="48" height="48"><rect id="backgroundrect" width="100%" height="100%" x="0" y="0" fill="none" stroke="none" class="" style=""/>
<style type="text/css">
	.st0{fill:#F9BA31;}
</style>

<g class="currentLayer" style=""><title>Layer 1</title><g id="svg_1" class="">
	<g id="svg_2">
		<path class="st0" d="M28.515822615623478,17.824724960327146 l-7.17,-4.3 c-0.54,-0.3600000000000001 -1.25,0.18000000000000005 -1.25,0.7200000000000002 v9.14 c0,0.7200000000000002 0.7200000000000002,1.07 1.25,0.7200000000000002 l7.17,-4.66 C29.22582261562347,19.074724960327146 29.22582261562347,18.184724960327145 28.515822615623478,17.824724960327146 L28.515822615623478,17.824724960327146 zM28.515822615623478,17.824724960327146 " id="svg_3"/>
		<path class="st0" d="M39.79582261562348,6.364724960327148 H7.555822615623477 c-1.08,0 -1.79,0.7200000000000002 -1.79,1.79 v32.25 c0,0.9 0.7200000000000002,1.79 1.79,1.79 h32.25 c0.9,0 1.79,-0.9 1.79,-1.79 V8.154724960327151 C41.58582261562347,7.074724960327149 40.69582261562347,6.364724960327148 39.79582261562348,6.364724960327148 L39.79582261562348,6.364724960327148 zM38.00582261562347,36.81472496032715 h-21.5 v1.79 h-3.58 v-1.79 h-3.58 v-3.58 h3.58 v-1.79 h3.58 v1.79 h21.5 V36.81472496032715 zM38.00582261562347,27.854724960327147 H9.345822615623476 V9.94472496032715 h28.66 V27.854724960327147 zM38.00582261562347,27.854724960327147 " id="svg_4"/>
	</g>
</g></g></svg>