<svg xmlns="http://www.w3.org/2000/svg" xmlns:xlink="http://www.w3.org/1999/xlink" version="1.1" style="enable-background:new 0 0 100 100;" xml:space="preserve" width="48" height="48"><rect id="backgroundrect" width="100%" height="100%" x="0" y="0" fill="none" stroke="none" class="" style=""/>
<style type="text/css">
	.st0{fill:#F9BA31;}
</style>

<g class="currentLayer" style=""><title>Layer 1</title><g id="svg_1" class="">
	
		<ellipse transform="matrix(0.3785,-0.9256,0.9256,0.3785,-1.0544,67.1832) " class="st0" cx="62.81926320054959" cy="1.6271193336373457" rx="7.269999980926514" ry="7.269999980926514" id="svg_2"/>
	<path class="st0" d="M29.565273787975315,17.904724245071414 c-1.54,1 -3.37,1.58 -5.34,1.58 c-1.97,0 -3.8,-0.5800000000000006 -5.34,-1.58 c-1.7000000000000002,0.6500000000000009 -3.2800000000000002,1.61 -4.65,2.84 l9.99,3.75 l9.99,-3.75 C32.84527378797531,19.514724245071413 31.26527378797531,18.554724245071412 29.565273787975315,17.904724245071414 L29.565273787975315,17.904724245071414 z" id="svg_3"/>
	<path class="st0" d="M39.61527378797531,28.89472424507141 h-0.8600000000000008 c-0.7100000000000006,0 -1.28,0.5700000000000006 -1.28,1.28 v3.42 c0,0.7100000000000006 0.5700000000000006,1.28 1.28,1.28 h0.8600000000000008 c1.6500000000000008,0 2.99,-1.34 2.99,-2.99 C42.61527378797531,30.234724245071412 41.27527378797531,28.89472424507141 39.61527378797531,28.89472424507141 z" id="svg_4"/>
	<path class="st0" d="M9.815273787975315,22.41472424507141 c-0.3500000000000003,0.24000000000000019 -0.55,0.6300000000000008 -0.55,1.05 v2.8600000000000003 h0.4300000000000003 c2.12,0 3.85,1.73 3.85,3.85 v3.42 c0,2.12 -1.73,3.85 -3.85,3.85 h-0.4300000000000003 v2.7 c0,0.53 0.33000000000000046,1.01 0.8300000000000006,1.2 l12.85,4.82 V26.754724245071408 L10.995273787975314,22.27472424507141 C10.595273787975309,22.124724245071413 10.155273787975311,22.17472424507141 9.815273787975315,22.41472424507141 L9.815273787975315,22.41472424507141 z" id="svg_5"/>
	<path class="st0" d="M34.91527378797531,33.59472424507141 V30.17472424507141 c0,-2.12 1.73,-3.85 3.85,-3.85 h0.4300000000000003 V23.474724245071414 c0,-0.4200000000000003 -0.2100000000000002,-0.81 -0.55,-1.05 c-0.3500000000000003,-0.24000000000000019 -0.79,-0.2900000000000003 -1.18,-0.1500000000000002 l-11.95,4.48 v19.42 l12.85,-4.82 c0.5,-0.19000000000000022 0.8300000000000006,-0.670000000000001 0.8300000000000006,-1.2 v-2.7 h-0.4300000000000003 C36.64527378797531,37.44472424507141 34.91527378797531,35.71472424507141 34.91527378797531,33.59472424507141 L34.91527378797531,33.59472424507141 z" id="svg_6"/>
	<path class="st0" d="M10.965273787975313,33.59472424507141 V30.17472424507141 c0,-0.7100000000000006 -0.5700000000000006,-1.28 -1.28,-1.28 h-0.8600000000000008 c-1.6500000000000008,0 -2.99,1.34 -2.99,2.99 c0,1.6500000000000008 1.34,2.99 2.99,2.99 h0.8600000000000008 C10.395273787975313,34.87472424507141 10.965273787975313,34.30472424507141 10.965273787975313,33.59472424507141 z" id="svg_7"/>
</g></g></svg>