<svg xmlns="http://www.w3.org/2000/svg" xmlns:xlink="http://www.w3.org/1999/xlink" version="1.1" style="enable-background:new 0 0 100 100;" xml:space="preserve" width="48" height="48"><rect id="backgroundrect" width="100%" height="100%" x="0" y="0" fill="none" stroke="none" class="" style=""/>
<style type="text/css">
	.st0{fill:#F9BA31;}
</style>

<g class="currentLayer" style=""><title>Layer 1</title><g id="svg_1" class="">
	<g id="svg_2">
		<path class="st0" d="M12.09900553703308,44.113800952434545 c0.340000000000001,1.51 1.8800000000000003,2.45 3.43,2.1 l25.27,-5.69 c1.55,-0.3500000000000003 2.54,-1.86 2.2,-3.37 l-6.62,-29.38 l-30.89,6.96 L12.09900553703308,44.113800952434545 zM16.869005537033082,15.433800952434538 l14.27,-3.22 c0.6500000000000018,-0.15000000000000024 1.29,0.25 1.4300000000000002,0.8800000000000016 c0.14,0.6300000000000016 -0.27,1.26 -0.92,1.4100000000000001 l-14.27,3.22 c-0.6500000000000018,0.15000000000000024 -1.29,-0.25 -1.4300000000000002,-0.8800000000000016 C15.80900553703308,16.21380095243454 16.229005537033082,15.583800952434537 16.869005537033082,15.433800952434538 L16.869005537033082,15.433800952434538 zM17.91900553703308,20.06380095243454 L32.18900553703308,16.85380095243454 c0.6500000000000018,-0.15000000000000024 1.29,0.25 1.4300000000000002,0.8800000000000016 c0.14,0.6300000000000016 -0.27,1.26 -0.92,1.4100000000000001 L18.429005537033078,22.35380095243454 c-0.6500000000000018,0.15000000000000024 -1.29,-0.25 -1.4300000000000002,-0.8800000000000016 C16.859005537033084,20.843800952434542 17.26900553703308,20.21380095243454 17.91900553703308,20.06380095243454 L17.91900553703308,20.06380095243454 zM18.95900553703308,24.693800952434543 l14.27,-3.22 c0.6500000000000018,-0.15000000000000024 1.29,0.25 1.4300000000000002,0.8800000000000016 c0.14,0.6300000000000016 -0.27,1.26 -0.92,1.4100000000000001 l-14.27,3.22 c-0.6500000000000018,0.15000000000000024 -1.29,-0.25 -1.4300000000000002,-0.8800000000000016 C17.899005537033084,25.473800952434537 18.30900553703308,24.843800952434542 18.95900553703308,24.693800952434543 L18.95900553703308,24.693800952434543 zM19.999005537033078,29.333800952434537 l14.27,-3.22 c0.6500000000000018,-0.15000000000000024 1.29,0.25 1.4300000000000002,0.8800000000000016 c0.14,0.6300000000000016 -0.27,1.26 -0.92,1.4100000000000001 l-14.27,3.22 c-0.6500000000000018,0.15000000000000024 -1.29,-0.25 -1.4300000000000002,-0.8800000000000016 C18.949005537033084,30.10380095243454 19.359005537033084,29.473800952434537 19.999005537033078,29.333800952434537 L19.999005537033078,29.333800952434537 zM21.049005537033082,33.96380095243454 l14.27,-3.22 c0.6500000000000018,-0.15000000000000024 1.29,0.25 1.4300000000000002,0.8800000000000016 c0.14,0.6300000000000016 -0.27,1.26 -0.92,1.4100000000000001 l-14.27,3.22 c-0.6500000000000018,0.15000000000000024 -1.29,-0.25 -1.4300000000000002,-0.8800000000000016 C19.98900553703308,34.73380095243454 20.399005537033084,34.10380095243454 21.049005537033082,33.96380095243454 L21.049005537033082,33.96380095243454 zM22.08900553703308,38.59380095243454 l14.27,-3.22 c0.6500000000000018,-0.15000000000000024 1.29,0.25 1.4300000000000002,0.8800000000000016 c0.14,0.6300000000000016 -0.27,1.26 -0.92,1.4100000000000001 l-14.27,3.22 c-0.6500000000000018,0.15000000000000024 -1.29,-0.25 -1.4300000000000002,-0.8800000000000016 C21.029005537033083,39.373800952434536 21.439005537033083,38.74380095243454 22.08900553703308,38.59380095243454 L22.08900553703308,38.59380095243454 zM12.119005537033082,16.50380095243454 c0.660000000000002,-0.15000000000000024 1.26,0.27 1.4300000000000002,0.8800000000000016 c0.17,0.6100000000000015 -0.3000000000000003,1.27 -0.92,1.4100000000000001 c-0.660000000000002,0.15000000000000024 -1.26,-0.27 -1.4300000000000002,-0.8800000000000016 C11.029005537033079,17.303800952434543 11.499005537033078,16.64380095243454 12.119005537033082,16.50380095243454 L12.119005537033082,16.50380095243454 zM13.159005537033083,21.13380095243454 c0.660000000000002,-0.15000000000000024 1.26,0.27 1.4300000000000002,0.8800000000000016 c0.17,0.6100000000000015 -0.3000000000000003,1.27 -0.92,1.4100000000000001 c-0.660000000000002,0.15000000000000024 -1.26,-0.27 -1.4300000000000002,-0.8800000000000016 C12.079005537033083,21.933800952434538 12.549005537033082,21.27380095243454 13.159005537033083,21.13380095243454 L13.159005537033083,21.13380095243454 zM14.19900553703308,25.77380095243454 c0.660000000000002,-0.15000000000000024 1.26,0.27 1.4300000000000002,0.8800000000000016 c0.17,0.6100000000000015 -0.3000000000000003,1.27 -0.92,1.4100000000000001 c-0.660000000000002,0.15000000000000024 -1.26,-0.27 -1.4300000000000002,-0.8800000000000016 C13.119005537033082,26.56380095243454 13.589005537033081,25.903800952434537 14.19900553703308,25.77380095243454 L14.19900553703308,25.77380095243454 zM15.249005537033078,30.403800952434537 c0.660000000000002,-0.15000000000000024 1.26,0.27 1.4300000000000002,0.8800000000000016 c0.17,0.6100000000000015 -0.3000000000000003,1.27 -0.92,1.4100000000000001 c-0.660000000000002,0.15000000000000024 -1.26,-0.27 -1.4300000000000002,-0.8800000000000016 C14.159005537033083,31.20380095243454 14.62900553703308,30.543800952434538 15.249005537033078,30.403800952434537 L15.249005537033078,30.403800952434537 zM16.289005537033084,35.03380095243454 c0.660000000000002,-0.15000000000000024 1.26,0.27 1.4300000000000002,0.8800000000000016 c0.17,0.6100000000000015 -0.3000000000000003,1.27 -0.92,1.4100000000000001 c-0.660000000000002,0.15000000000000024 -1.26,-0.27 -1.4300000000000002,-0.8800000000000016 C15.209005537033079,35.83380095243454 15.679005537033078,35.17380095243454 16.289005537033084,35.03380095243454 L16.289005537033084,35.03380095243454 zM17.329005537033083,39.66380095243454 c0.660000000000002,-0.15000000000000024 1.26,0.27 1.4300000000000002,0.8800000000000016 c0.17,0.6100000000000015 -0.3000000000000003,1.27 -0.92,1.4100000000000001 c-0.660000000000002,0.15000000000000024 -1.26,-0.27 -1.4300000000000002,-0.8800000000000016 C16.249005537033078,40.46380095243453 16.719005537033084,39.80380095243454 17.329005537033083,39.66380095243454 L17.329005537033083,39.66380095243454 zM17.329005537033083,39.66380095243454 " id="svg_3"/>
		<path class="st0" d="M35.43900553703308,3.593800952434539 c-0.340000000000001,-1.51 -1.8800000000000003,-2.45 -3.43,-2.1 l-25.27,5.69 c-1.55,0.3500000000000003 -2.54,1.86 -2.2,3.37 l0.4300000000000003,1.8900000000000001 l30.89,-6.96 L35.43900553703308,3.593800952434539 zM35.43900553703308,3.593800952434539 " id="svg_4"/>
	</g>
</g></g></svg>