<svg xmlns="http://www.w3.org/2000/svg" xmlns:xlink="http://www.w3.org/1999/xlink" version="1.1" style="enable-background:new 0 0 100 100;" xml:space="preserve" width="48" height="48"><rect id="backgroundrect" width="100%" height="100%" x="0" y="0" fill="none" stroke="none" class="" style=""/>
<style type="text/css">
	.st0{fill:#F9BA31;}
</style>

<g class="currentLayer" style=""><title>Layer 1</title><g id="svg_1" class="">
	<path class="st0" d="M22.514724900722506,32.95472370862961 l-0.060000000000000074,-0.3100000000000004 l-7.66,1.55 l3.15,8.26 c0.39000000000000046,1.03 1.46,1.62 2.54,1.4 l2.46,-0.5 c0.6100000000000008,-0.12000000000000002 1.15,-0.5 1.47,-1.03 c0.32000000000000045,-0.53 0.4100000000000003,-1.18 0.24000000000000019,-1.78 L22.514724900722506,32.95472370862961 zM22.514724900722506,32.95472370862961 " id="svg_2"/>
	
		<rect x="19.69142065732887" y="11.00576296914938" transform="matrix(0.9803,-0.1977,0.1977,0.9803,-8.7191,9.0739) " class="st0" width="4.079999923706055" height="16.149999618530273" id="svg_3"/>
	<path class="st0" d="M38.3947249007225,4.584723708629607 c-0.3800000000000004,-0.1100000000000001 -0.78,-0.010000000000000012 -1.06,0.27 c-0.030000000000000047,0.030000000000000047 -1.46,1.44 -4,3.24 l4.63,22.98 c3.04,0.670000000000001 4.92,1.4300000000000002 4.94,1.44 c0.2,0.0800000000000001 0.4100000000000003,0.1 0.6100000000000008,0.060000000000000074 c0.17,-0.030000000000000047 0.33000000000000046,-0.1100000000000001 0.4700000000000003,-0.22000000000000022 c0.3000000000000003,-0.25 0.4400000000000004,-0.6500000000000009 0.3600000000000003,-1.03 l-5.23,-25.92 C39.054724900722505,5.014723708629607 38.764724900722506,4.69472370862961 38.3947249007225,4.584723708629607 L38.3947249007225,4.584723708629607 zM38.3947249007225,4.584723708629607 " id="svg_4"/>
	<path class="st0" d="M18.844724900722504,14.724723708629611 l3.2,15.86 c5.35,-0.91 10.25,-0.52 13.68,0.05000000000000007 l-4.29,-21.26 C28.264724900722506,11.364723708629612 23.954724900722503,13.534723708629606 18.844724900722504,14.724723708629611 L18.844724900722504,14.724723708629611 zM18.844724900722504,14.724723708629611 " id="svg_5"/>
	<path class="st0" d="M10.734724900722505,16.674723708629607 l-5.01,2.87 c-0.4,0.23 -0.6000000000000006,0.680000000000001 -0.51,1.13 l1.96,9.71 c0.09000000000000016,0.45 0.46,0.79 0.91,0.8400000000000006 l5.73,0.7000000000000006 L10.734724900722505,16.674723708629607 zM10.734724900722505,16.674723708629607 " id="svg_6"/>
</g></g></svg>