<?xml version="1.0" encoding="utf-8"?>
<!-- Generator: Adobe Illustrator 24.2.1, SVG Export Plug-In . SVG Version: 6.00 Build 0)  -->
<svg version="1.1" id="Capa_1" xmlns="http://www.w3.org/2000/svg" xmlns:xlink="http://www.w3.org/1999/xlink" x="0px" y="0px"
	 viewBox="0 0 100 100" style="enable-background:new 0 0 100 100;" xml:space="preserve">
<style type="text/css">
	.st0{fill:#1D1C1A;}
</style>
<g>
	<g>
		<g>
			<g>
				<g>
					<path class="st0" d="M46.73,29.63c0-3.05-2.48-5.53-5.53-5.53c-3.05,0-5.53,2.48-5.53,5.53V40.7h11.07L46.73,29.63L46.73,29.63
						z"/>
				</g>
				<g>
					<path class="st0" d="M63.33,42.24V29.63c0-3.05-2.48-5.53-5.53-5.53c-3.05,0-5.53,2.48-5.53,5.53V40.7h5.53
						C59.82,40.7,61.7,41.29,63.33,42.24z"/>
				</g>
				<g>
					<path class="st0" d="M30.13,13.03c0-3.05-2.48-5.53-5.53-5.53s-5.53,2.48-5.53,5.53v33.52c2.9-2.97,6.76-4.95,11.07-5.58
						L30.13,13.03L30.13,13.03z"/>
				</g>
				<g>
					<path class="st0" d="M74.4,7.5c-3.05,0-5.53,2.48-5.53,5.53v38.73c0,6.1-4.96,11.07-11.07,11.07h-9.44
						c5.71,4.57,9.44,11.5,9.44,19.37c0,1.53-1.24,2.77-2.77,2.77c-1.53,0-2.77-1.24-2.77-2.77c0-10.68-8.69-19.37-19.37-19.37
						c-1.53,0-2.77-1.24-2.77-2.77c0-1.53,1.24-2.77,2.77-2.77h24.9c3.05,0,5.53-2.48,5.53-5.53c0-3.05-2.48-5.53-5.53-5.53H32.9
						c-7.63,0-13.83,6.21-13.83,13.83v5.53c0,13.73,11.17,24.9,24.9,24.9h11.07c13.73,0,24.9-11.17,24.9-24.9V13.03
						C79.93,9.98,77.45,7.5,74.4,7.5z"/>
				</g>
			</g>
		</g>
	</g>
</g>
</svg>
