<?xml version="1.0" encoding="utf-8"?>
<!-- Generator: Adobe Illustrator 24.2.1, SVG Export Plug-In . SVG Version: 6.00 Build 0)  -->
<svg version="1.1" id="Capa_1" xmlns="http://www.w3.org/2000/svg" xmlns:xlink="http://www.w3.org/1999/xlink" x="0px" y="0px"
	 viewBox="0 0 100 100" style="enable-background:new 0 0 100 100;" xml:space="preserve">
<style type="text/css">
	.st0{stroke:#F9BA31;stroke-miterlimit:10;}
</style>
<g>
	<g>
		<path d="M85.64,5.85c-2.62-2.7-6.43-3.54-9.8-2.5c-0.51,0.16-1.08,0.73-1.29,1.22c-0.62,1.47-1.17,2.91-1.51,4.06
			c-0.16,0.56-0.42,1.31-0.76,2.16L70.7,9.16c0.6-0.65,0.87-1.25,0.11-2.04c-1.13-1.17-2.99-1.2-4.16-0.07
			c-1.17,1.13-1.2,2.99-0.07,4.16c0.76,0.79,1.37,0.54,2.04-0.04l2.34,2.41c-0.86,1.55-2.01,3.2-3.51,4.72l-2.33-2.4
			c0.6-0.65,0.87-1.25,0.11-2.04c-1.13-1.17-2.99-1.2-4.16-0.07c-1.17,1.13-1.2,2.99-0.07,4.16c0.76,0.79,1.37,0.54,2.04-0.04
			l2.21,2.28c-1.51,1.13-3.3,2.1-5.39,2.78l-2.34-2.41c0.6-0.65,0.87-1.25,0.11-2.04c-1.13-1.17-2.99-1.2-4.16-0.07
			c-1.17,1.13-1.2,2.99-0.07,4.16c0.76,0.79,1.37,0.54,2.04-0.04l1.13,1.16c-0.51,0.08-1.01,0.16-1.55,0.2
			c-0.53,0.04-0.82,0.47-0.67,0.98c1.6,5.49-0.33,8.91-2.04,10.72c-0.37-0.23-0.85-0.21-1.18,0.11l-0.62,0.6
			c-0.38,0.37-0.39,0.98-0.02,1.37l0.21,0.21L40.43,48l10.12,10.1l10.1-9.89c0.37,0.32,0.93,0.32,1.29-0.03l0.62-0.6
			c0.32-0.31,0.36-0.78,0.16-1.15c1.86-1.64,5.35-3.47,10.78-1.7c0.51,0.17,0.94-0.11,1-0.64c0.06-0.54,0.16-1.04,0.26-1.55
			l1.11,1.15c-0.6,0.65-0.87,1.25-0.11,2.04c1.13,1.17,2.99,1.2,4.16,0.07c1.17-1.13,1.19-2.99,0.07-4.16
			c-0.76-0.79-1.37-0.54-2.04,0.04l-2.33-2.4c0.75-2.07,1.77-3.82,2.95-5.3l2.2,2.27c-0.6,0.65-0.87,1.25-0.11,2.04
			c1.13,1.17,2.99,1.2,4.16,0.07c1.17-1.13,1.2-2.99,0.07-4.16c-0.76-0.79-1.37-0.54-2.04,0.04l-2.31-2.39
			c1.57-1.45,3.26-2.55,4.83-3.36l2.33,2.4c-0.6,0.65-0.87,1.25-0.11,2.04c1.13,1.17,2.99,1.2,4.16,0.07
			c1.17-1.13,1.2-2.99,0.07-4.16c-0.76-0.79-1.37-0.54-2.04,0.04l-1.58-1.63c0.86-0.31,1.61-0.54,2.18-0.69
			c1.15-0.3,2.59-0.8,4.06-1.36c0.5-0.19,1.09-0.74,1.27-1.25c1.17-3.34,0.46-7.2-2.17-9.92"/>
		<polygon points="30.24,77.97 20.13,67.86 2.11,85.5 12.14,95.69 		"/>
		<path class="st0" d="M52.77,57.76l-1.26,1.44c0,0-0.74,0.56-0.57,0.57c0.35,0.03-1-1-1-1L39.3,48.17l-3.15-3.14
			c-1.4-1.4-4.22-0.89-4.58,1.54c-0.13,0.89,0.23,1.78,0.87,2.42l2.99,2.99l6.19,6.2l0,0c-0.63,0.63-1.66,0.63-2.3,0l-5.06-5.06
			l-3.1-3.1l-3.48-3.47c-0.83-0.83-2.38-1.11-3.38-0.51c-0.85,0.51-1.34,1.39-1.34,2.34c0,0.73,0.28,1.41,0.8,1.92l2.14,2.14
			l4.48,4.48l6.25,6.25l0,0c-0.63,0.63-1.66,0.63-2.29,0l-5.11-5.11l-4.4-4.4c-0.84-0.84-2.13-1.13-3.18-0.59
			c-1.74,0.9-1.98,3.1-0.72,4.36l4.27,4.27l0.15,0.15l6.3,6.3l0,0c-0.63,0.63-1.66,0.63-2.3,0l-5.17-5.17l-0.07-0.07
			c-0.83-0.84-2.13-1.13-3.18-0.59c-1.74,0.9-1.98,3.1-0.72,4.36l0.1,0.1l10.62,10.62l9.48,9.48c0.58,0.57,1.51,0.57,2.08,0
			l16.36-16.36c1.01-1.01,1.41-2.49,1.04-3.88L57,55.9c-0.19-0.7-1.05-0.94-1.58-0.44L52.77,57.76z"/>
	</g>
</g>
</svg>
