<svg xmlns="http://www.w3.org/2000/svg" xmlns:xlink="http://www.w3.org/1999/xlink" version="1.1" style="enable-background:new 0 0 100 100;" xml:space="preserve" width="48" height="48"><rect id="backgroundrect" width="100%" height="100%" x="0" y="0" fill="none" stroke="none" class="" style=""/>
<style type="text/css">
	.st0{fill:#F9BA31;}
</style>

<g class="currentLayer" style=""><title>Layer 1</title><g id="svg_1" class="">
	<g id="svg_2">
		<path class="st0" d="M44.344724245071404,5.8647249007225035 c-0.23,-0.23 -0.55,-0.37000000000000055 -0.8800000000000011,-0.37000000000000055 h-4.98 v-1.25 c0,-0.6900000000000017 -0.56,-1.25 -1.25,-1.25 H12.31472424507141 c-0.6900000000000017,0 -1.25,0.56 -1.25,1.25 v1.25 h-4.98 c-0.3300000000000006,0 -0.6500000000000012,0.13 -0.8800000000000011,0.37000000000000055 c-0.23,0.23 -0.37000000000000055,0.55 -0.37000000000000055,0.8800000000000011 l0,3.74 c0,2.75 2.24,4.98 4.98,4.98 h4.39 c1.98,2.39 4.75,4.1 7.9,4.72 l-1.9500000000000002,1.9500000000000002 c-0.27,0.27 -0.4,0.6400000000000012 -0.3600000000000003,1.02 l0.8200000000000006,7.42 h8.32 l0.8200000000000006,-7.42 c0.04000000000000007,-0.38000000000000056 -0.09000000000000022,-0.7500000000000011 -0.3600000000000003,-1.02 l-1.9500000000000002,-1.9500000000000002 c3.16,-0.6200000000000011 5.92,-2.33 7.9,-4.72 h4.39 c2.75,0 4.98,-2.24 4.98,-4.98 l0,-3.74 C44.71472424507141,6.414724900722505 44.58472424507141,6.094724900722504 44.344724245071404,5.8647249007225035 L44.344724245071404,5.8647249007225035 zM9.824724245071408,12.974724900722507 c-1.37,0 -2.49,-1.12 -2.49,-2.49 l0,-2.49 h3.8 c0.16000000000000034,1.78 0.6600000000000015,3.46 1.44,4.98 H9.824724245071408 zM42.214724245071416,10.484724900722505 c0,1.37 -1.12,2.49 -2.49,2.49 h-2.75 c0.78,-1.52 1.28,-3.2 1.44,-4.98 h3.8 L42.214724245071416,10.484724900722505 zM42.214724245071416,10.484724900722505 " id="svg_3"/>
		<path class="st0" d="M34.74472424507141,43.0447249007225 h-1.52 l-2.26,-9.02 c-0.14,-0.55 -0.6400000000000012,-0.9400000000000006 -1.21,-0.9400000000000006 h-9.97 c-0.5700000000000006,0 -1.07,0.3900000000000006 -1.21,0.9400000000000006 l-2.26,9.02 h-1.52 c-0.6900000000000017,0 -1.25,0.56 -1.25,1.25 c0,0.6900000000000017 0.56,1.25 1.25,1.25 h19.94 c0.6900000000000017,0 1.25,-0.56 1.25,-1.25 C35.98472424507141,43.6047249007225 35.434724245071415,43.0447249007225 34.74472424507141,43.0447249007225 L34.74472424507141,43.0447249007225 zM26.02472424507141,40.554724900722505 h-2.49 c-0.6900000000000017,0 -1.25,-0.56 -1.25,-1.25 c0,-0.6900000000000017 0.56,-1.25 1.25,-1.25 h2.49 c0.6900000000000017,0 1.25,0.56 1.25,1.25 C27.264724245071413,39.9947249007225 26.70472424507141,40.554724900722505 26.02472424507141,40.554724900722505 L26.02472424507141,40.554724900722505 zM26.02472424507141,40.554724900722505 " id="svg_4"/>
	</g>
</g></g></svg>