<?xml version="1.0" encoding="utf-8"?>
<!-- Generator: Adobe Illustrator 24.2.1, SVG Export Plug-In . SVG Version: 6.00 Build 0)  -->
<svg version="1.1" id="Capa_1" xmlns="http://www.w3.org/2000/svg" xmlns:xlink="http://www.w3.org/1999/xlink" x="0px" y="0px"
	 viewBox="0 0 100 100" style="enable-background:new 0 0 100 100;" xml:space="preserve">
<style type="text/css">
	.st0{fill:#1D1C1A;}
</style>
<g>
	<g>
		<path class="st0" d="M79.29,43.32l-26.73-4c-0.58-0.09-1.16,0.08-1.6,0.46c-0.44,0.38-0.7,0.93-0.7,1.52v20.68
			c-1.55-1.1-3.44-1.75-5.48-1.75c-5.23,0-9.48,4.25-9.48,9.48c0,5.23,4.25,9.48,9.48,9.48c5.23,0,9.48-4.25,9.48-9.48V53.35
			L77,56.76v9.23c-1.55-1.1-3.44-1.75-5.48-1.75c-5.23,0-9.48,4.26-9.48,9.48c0,5.23,4.25,9.48,9.48,9.48
			c5.23,0,9.48-4.25,9.48-9.48V45.3C81,44.31,80.28,43.47,79.29,43.32L79.29,43.32z M79.29,43.32"/>
	</g>
	<g>
		<path class="st0" d="M36.97,28.85l14.71,1.84c0.57,0.07,1.14-0.11,1.57-0.49c0.43-0.38,0.68-0.93,0.68-1.5v-9.73
			c0-1.01-0.75-1.86-1.75-1.99l-16.96-2.12c-0.57-0.07-1.14,0.11-1.57,0.49c-0.43,0.38-0.68,0.93-0.68,1.5v23.9
			c-1.55-1.1-3.44-1.75-5.48-1.75C22.25,39,18,43.26,18,48.48c0,5.23,4.26,9.48,9.48,9.48c5.23,0,9.48-4.25,9.48-9.48V28.85z
			 M36.97,28.85"/>
	</g>
</g>
</svg>
