<?xml version="1.0" encoding="utf-8"?>
<!-- Generator: Adobe Illustrator 24.2.1, SVG Export Plug-In . SVG Version: 6.00 Build 0)  -->
<svg version="1.1" id="Capa_1" xmlns="http://www.w3.org/2000/svg" xmlns:xlink="http://www.w3.org/1999/xlink" x="0px" y="0px"
	 viewBox="0 0 100 100" style="enable-background:new 0 0 100 100;" xml:space="preserve">
<style type="text/css">
	.st0{fill:#1D1C1A;}
</style>
<g>
	<g>
		<path class="st0" d="M72.29,59.54H37.54c3.39,3,5.54,7.38,5.54,12.26c0,4.88-2.14,9.26-5.54,12.26h34.74
			c6.76,0,12.26-5.5,12.26-12.26C84.55,65.04,79.05,59.54,72.29,59.54L72.29,59.54z M72.29,59.54"/>
	</g>
	<g>
		<path class="st0" d="M29.02,73.91c0.83,3.18,3.53,5.61,6.85,6.04c1.49-1.67,2.53-3.75,2.92-6.04H29.02z M29.02,73.91"/>
	</g>
	<g>
		<path class="st0" d="M24.65,71.85c0-1.13,0.92-2.05,2.05-2.05h12.1c-0.96-5.81-6.02-10.26-12.1-10.26
			c-6.76,0-12.26,5.5-12.26,12.26c0,6.76,5.5,12.26,12.26,12.26c1.79,0,3.5-0.39,5.04-1.08C27.56,81.02,24.65,76.77,24.65,71.85
			L24.65,71.85z M24.65,71.85"/>
	</g>
	<g>
		<path class="st0" d="M20.72,26.21l28.2,8.21c0.19,0.05,0.38,0.08,0.57,0.08c0.19,0,0.39-0.03,0.57-0.08l25.57-7.45v26.41
			c0,1.13,0.92,2.05,2.05,2.05c1.13,0,2.05-0.92,2.05-2.05V24.23c0-0.91-0.6-1.72-1.48-1.97l-28.2-8.21c-0.38-0.11-0.77-0.11-1.15,0
			l-28.2,8.21c-0.88,0.26-1.48,1.06-1.48,1.97C19.24,25.15,19.85,25.95,20.72,26.21L20.72,26.21z M20.72,26.21"/>
	</g>
	<g>
		<path class="st0" d="M47.78,38.36l-19.22-5.6v14.73c0,1.8,1.21,4.33,6.98,6.12c3.76,1.17,8.72,1.82,13.97,1.82
			c5.25,0,10.21-0.65,13.97-1.82c5.77-1.8,6.98-4.32,6.98-6.12V32.76l-19.22,5.6c-0.56,0.16-1.14,0.25-1.72,0.25
			S48.34,38.53,47.78,38.36L47.78,38.36z M47.78,38.36"/>
	</g>
</g>
</svg>
