<?xml version="1.0" encoding="utf-8"?>
<!-- Generator: Adobe Illustrator 24.2.1, SVG Export Plug-In . SVG Version: 6.00 Build 0)  -->
<svg version="1.1" id="Capa_1" xmlns="http://www.w3.org/2000/svg" xmlns:xlink="http://www.w3.org/1999/xlink" x="0px" y="0px"
	 viewBox="0 0 100 100" style="enable-background:new 0 0 100 100;" xml:space="preserve">
<style type="text/css">
	.st0{fill:#F9BA31;}
</style>
<g>
	<path class="st0" d="M47.24,57.68l-0.06-0.31l-7.66,1.55l3.15,8.26c0.39,1.03,1.46,1.62,2.54,1.4l2.46-0.5
		c0.61-0.12,1.15-0.5,1.47-1.03c0.32-0.53,0.41-1.18,0.24-1.78L47.24,57.68z M47.24,57.68"/>
	
		<rect x="39.04" y="40.13" transform="matrix(0.9803 -0.1977 0.1977 0.9803 -8.7191 9.0739)" class="st0" width="4.08" height="16.15"/>
	<path class="st0" d="M63.12,29.31c-0.38-0.11-0.78-0.01-1.06,0.27c-0.03,0.03-1.46,1.44-4,3.24l4.63,22.98
		c3.04,0.67,4.92,1.43,4.94,1.44c0.2,0.08,0.41,0.1,0.61,0.06c0.17-0.03,0.33-0.11,0.47-0.22c0.3-0.25,0.44-0.65,0.36-1.03
		l-5.23-25.92C63.78,29.74,63.49,29.42,63.12,29.31L63.12,29.31z M63.12,29.31"/>
	<path class="st0" d="M43.57,39.45l3.2,15.86c5.35-0.91,10.25-0.52,13.68,0.05l-4.29-21.26C52.99,36.09,48.68,38.26,43.57,39.45
		L43.57,39.45z M43.57,39.45"/>
	<path class="st0" d="M35.46,41.4l-5.01,2.87c-0.4,0.23-0.6,0.68-0.51,1.13l1.96,9.71c0.09,0.45,0.46,0.79,0.91,0.84l5.73,0.7
		L35.46,41.4z M35.46,41.4"/>
</g>
</svg>
