<?xml version="1.0" encoding="utf-8"?>
<!-- Generator: Adobe Illustrator 24.2.1, SVG Export Plug-In . SVG Version: 6.00 Build 0)  -->
<svg version="1.1" id="Capa_1" xmlns="http://www.w3.org/2000/svg" xmlns:xlink="http://www.w3.org/1999/xlink" x="0px" y="0px"
	 viewBox="0 0 100 100" style="enable-background:new 0 0 100 100;" xml:space="preserve">
<style type="text/css">
	.st0{fill:#1D1C1A;}
</style>
<g>
	<g>
		<path class="st0" d="M83.15,67.78H62.07c-0.56,0-1.09,0.22-1.48,0.61l-1.48,1.48H39.89l-1.48-1.48c-0.39-0.39-0.93-0.61-1.48-0.61
			H15.85c-1.16,0-2.09,0.94-2.09,2.09v3.49c0,0.56,0.22,1.09,0.61,1.48l4.19,4.19c0.39,0.39,0.93,0.61,1.48,0.61h58.92
			c0.56,0,1.09-0.22,1.48-0.61l4.19-4.19c0.39-0.39,0.61-0.93,0.61-1.48v-3.49C85.25,68.72,84.31,67.78,83.15,67.78L83.15,67.78z
			 M83.15,67.78"/>
	</g>
	<g>
		<path class="st0" d="M49.5,43.07c-0.2,0-0.4-0.03-0.59-0.09l-7.78-2.31v7.77c0.77,0.61,3.77,1.61,8.38,1.61
			c4.61,0,7.6-1,8.38-1.61v-7.77l-7.78,2.31C49.9,43.04,49.7,43.07,49.5,43.07L49.5,43.07z M49.5,43.07"/>
	</g>
	<g>
		<path class="st0" d="M38.02,35.38l11.48,3.4l11.48-3.4l-11.48-3.4L38.02,35.38z M38.02,35.38"/>
	</g>
	<g>
		<path class="st0" d="M78.96,18.35H20.04c-1.16,0-2.09,0.94-2.09,2.09v43.15h18.99c1.68,0,3.26,0.65,4.44,1.84l0.25,0.25h15.74
			l0.25-0.25c1.19-1.19,2.76-1.84,4.44-1.84h18.99V20.44C81.06,19.29,80.12,18.35,78.96,18.35L78.96,18.35z M70.45,52.14
			c0,1.16-0.94,2.09-2.09,2.09c-1.16,0-2.09-0.94-2.09-2.09V38.19l-4.19,1.24v9.36c0,4.02-6.77,5.45-12.57,5.45
			c-5.8,0-12.57-1.43-12.57-5.45c0,0,0-0.01,0-0.02v-9.34l-6.88-2.04c-0.89-0.26-1.5-1.08-1.5-2.01c0-0.93,0.61-1.74,1.5-2.01
			l18.85-5.59c0.39-0.11,0.8-0.11,1.19,0l18.85,5.59c0.89,0.26,1.5,1.08,1.5,2.01V52.14z M70.45,52.14"/>
	</g>
</g>
</svg>
