<?xml version="1.0" encoding="utf-8"?>
<!-- Generator: Adobe Illustrator 24.2.1, SVG Export Plug-In . SVG Version: 6.00 Build 0)  -->
<svg version="1.1" id="Capa_1" xmlns="http://www.w3.org/2000/svg" xmlns:xlink="http://www.w3.org/1999/xlink" x="0px" y="0px"
	 viewBox="0 0 100 100" style="enable-background:new 0 0 100 100;" xml:space="preserve">
<style type="text/css">
	.st0{fill:#F9BA31;}
</style>
<g>
	
		<ellipse transform="matrix(0.3785 -0.9256 0.9256 0.3785 -1.0544 67.1832)" class="st0" cx="49.5" cy="34.38" rx="7.27" ry="7.27"/>
	<path class="st0" d="M54.84,42.63c-1.54,1-3.37,1.58-5.34,1.58c-1.97,0-3.8-0.58-5.34-1.58c-1.7,0.65-3.28,1.61-4.65,2.84
		l9.99,3.75l9.99-3.75C58.12,44.24,56.54,43.28,54.84,42.63L54.84,42.63z"/>
	<path class="st0" d="M64.89,53.62h-0.86c-0.71,0-1.28,0.57-1.28,1.28v3.42c0,0.71,0.57,1.28,1.28,1.28h0.86
		c1.65,0,2.99-1.34,2.99-2.99C67.89,54.96,66.55,53.62,64.89,53.62z"/>
	<path class="st0" d="M35.09,47.14c-0.35,0.24-0.55,0.63-0.55,1.05v2.86h0.43c2.12,0,3.85,1.73,3.85,3.85v3.42
		c0,2.12-1.73,3.85-3.85,3.85h-0.43v2.7c0,0.53,0.33,1.01,0.83,1.2l12.85,4.82V51.48L36.27,47C35.87,46.85,35.43,46.9,35.09,47.14
		L35.09,47.14z"/>
	<path class="st0" d="M60.19,58.32V54.9c0-2.12,1.73-3.85,3.85-3.85h0.43V48.2c0-0.42-0.21-0.81-0.55-1.05
		c-0.35-0.24-0.79-0.29-1.18-0.15l-11.95,4.48v19.42l12.85-4.82c0.5-0.19,0.83-0.67,0.83-1.2v-2.7h-0.43
		C61.92,62.17,60.19,60.44,60.19,58.32L60.19,58.32z"/>
	<path class="st0" d="M36.24,58.32V54.9c0-0.71-0.57-1.28-1.28-1.28h-0.86c-1.65,0-2.99,1.34-2.99,2.99c0,1.65,1.34,2.99,2.99,2.99
		h0.86C35.67,59.6,36.24,59.03,36.24,58.32z"/>
</g>
</svg>
