<?xml version="1.0" encoding="utf-8"?>
<!-- Generator: Adobe Illustrator 24.2.1, SVG Export Plug-In . SVG Version: 6.00 Build 0)  -->
<svg version="1.1" id="Capa_1" xmlns="http://www.w3.org/2000/svg" xmlns:xlink="http://www.w3.org/1999/xlink" x="0px" y="0px"
	 viewBox="0 0 200 200" style="enable-background:new 0 0 200 200;" xml:space="preserve">
<style type="text/css">
	.st0{fill:#F9BA31;}
</style>
<g>
	<path class="st0" d="M177.15,86.82l-66.47-9.96c-1.43-0.22-2.89,0.2-3.99,1.15c-1.1,0.95-1.73,2.32-1.73,3.77v51.44
		c-3.85-2.74-8.56-4.35-13.63-4.35c-13.01,0-23.59,10.58-23.59,23.59c0,13.01,10.58,23.59,23.59,23.59
		c13.01,0,23.59-10.58,23.59-23.59v-40.69l56.51,8.47v22.95c-3.85-2.74-8.55-4.35-13.63-4.35c-13,0-23.58,10.58-23.58,23.59
		c0,13.01,10.58,23.59,23.58,23.59c13.01,0,23.59-10.58,23.59-23.59V91.74C181.39,89.28,179.59,87.18,177.15,86.82L177.15,86.82z
		 M177.15,86.82"/>
	<path class="st0" d="M71.89,50.81l36.59,4.57c1.41,0.18,2.84-0.26,3.91-1.21c1.07-0.94,1.68-2.3,1.68-3.73v-24.2
		c0-2.51-1.87-4.63-4.36-4.94l-42.19-5.27c-1.42-0.17-2.84,0.26-3.91,1.21c-1.07,0.94-1.68,2.3-1.68,3.73v59.44
		c-3.85-2.74-8.55-4.35-13.63-4.35c-13,0-23.59,10.58-23.59,23.59c0,13.01,10.58,23.59,23.59,23.59c13.01,0,23.59-10.58,23.59-23.59
		V50.81z M71.89,50.81"/>
</g>
</svg>
