<?xml version="1.0" encoding="utf-8"?>
<!-- Generator: Adobe Illustrator 24.2.1, SVG Export Plug-In . SVG Version: 6.00 Build 0)  -->
<svg version="1.1" id="Capa_1" xmlns="http://www.w3.org/2000/svg" xmlns:xlink="http://www.w3.org/1999/xlink" x="0px" y="0px"
	 viewBox="0 0 60 60" style="enable-background:new 0 0 60 60;" xml:space="preserve">
<style type="text/css">
	.st0{fill:#F9BA31;}
</style>
<g>
	<path class="st0" d="M50.12,6.82c-0.93,0-1.69,0.75-1.69,1.69v0.56h-4.76l0.26-3.82c0.05-0.74-0.39-1.43-1.09-1.69
		C38.69,2,34.33,1.2,29.89,1.2c-4.44,0-8.8,0.79-12.96,2.36c-0.7,0.26-1.14,0.95-1.09,1.69l0.26,3.82h-4.75V8.51
		c0-0.93-0.75-1.69-1.69-1.69c-0.93,0-1.69,0.75-1.69,1.69v4.5c0,0.93,0.75,1.69,1.69,1.69c0.93,0,1.69-0.75,1.69-1.69v-0.56h4.98
		l0.52,7.87h-4.38v-0.56c0-0.93-0.75-1.69-1.69-1.69c-0.93,0-1.69,0.75-1.69,1.69v4.5c0,0.93,0.75,1.69,1.69,1.69
		c0.93,0,1.69-0.75,1.69-1.69v-0.56h4.61l0.52,7.87h-4.01v-0.56c0-0.93-0.75-1.69-1.69-1.69c-0.93,0-1.69,0.75-1.69,1.69v4.5
		c0,0.93,0.75,1.69,1.69,1.69c0.93,0,1.69-0.75,1.69-1.69v-0.56h4.23l0.04,0.67c0.02,0.32,0.13,0.63,0.32,0.89l2.47,3.37
		c0.32,0.43,0.82,0.69,1.36,0.69h15.74c0.55,0,1.06-0.26,1.37-0.71l2.4-3.37c0.18-0.25,0.29-0.55,0.31-0.86l0.05-0.68h4.3v0.56
		c0,0.93,0.75,1.69,1.69,1.69s1.69-0.75,1.69-1.69v-4.5c0-0.93-0.75-1.69-1.69-1.69s-1.69,0.75-1.69,1.69v0.56h-4.07l0.54-7.87h4.65
		v0.56c0,0.93,0.75,1.69,1.69,1.69c0.93,0,1.69-0.75,1.69-1.69v-4.5c0-0.93-0.75-1.69-1.69-1.69c-0.93,0-1.69,0.75-1.69,1.69v0.56
		h-4.42l0.54-7.87h5v0.56c0,0.93,0.75,1.69,1.69,1.69c0.93,0,1.69-0.75,1.69-1.69v-4.5C51.81,7.58,51.05,6.82,50.12,6.82z
		 M23.7,9.63c0-0.93,0.75-1.69,1.69-1.69s1.69,0.75,1.69,1.69v2.25c0,0.93-0.75,1.69-1.69,1.69s-1.69-0.75-1.69-1.69V9.63z M23.7,22
		v-2.25c0-0.93,0.75-1.69,1.69-1.69s1.69,0.75,1.69,1.69V22c0,0.93-0.75,1.69-1.69,1.69S23.7,22.93,23.7,22z M27.64,32.12
		c0,0.93-0.75,1.69-1.69,1.69c-0.93,0-1.69-0.75-1.69-1.69v-2.25c0-0.93,0.75-1.69,1.69-1.69c0.93,0,1.69,0.75,1.69,1.69V32.12z
		 M35.51,32.12c0,0.93-0.75,1.69-1.69,1.69c-0.93,0-1.69-0.75-1.69-1.69v-2.25c0-0.93,0.75-1.69,1.69-1.69
		c0.93,0,1.69,0.75,1.69,1.69V32.12z M36.07,22c0,0.93-0.75,1.69-1.69,1.69c-0.93,0-1.69-0.75-1.69-1.69v-2.25
		c0-0.93,0.75-1.69,1.69-1.69c0.93,0,1.69,0.75,1.69,1.69V22z M36.07,11.88c0,0.93-0.75,1.69-1.69,1.69c-0.93,0-1.69-0.75-1.69-1.69
		V9.63c0-0.93,0.75-1.69,1.69-1.69c0.93,0,1.69,0.75,1.69,1.69V11.88z"/>
	<path class="st0" d="M40.32,52.99H19.46l-0.25,3.97c-0.03,0.46,0.14,0.92,0.45,1.26c0.32,0.34,0.76,0.53,1.23,0.53h17.99
		c0.47,0,0.91-0.19,1.23-0.53c0.32-0.34,0.48-0.79,0.45-1.26L40.32,52.99z"/>
	<path class="st0" d="M20.01,43.92l-0.35,5.74h20.45l-0.35-5.74H20.01z"/>
</g>
</svg>
