<svg xmlns="http://www.w3.org/2000/svg" version="1.1" width="32" height="32" style=""><rect id="backgroundrect" width="100%" height="100%" x="0" y="0" fill="none" stroke="none"/>
<title>magic-wand</title>

<g class="currentLayer" style=""><title>Layer 1</title><path d="M8 6l-4-4h-2v2l4 4zM10 0h2v4h-2zM18 10h4v2h-4zM20 4v-2h-2l-4 4 2 2zM0 10h4v2h-4zM10 18h2v4h-2zM2 18v2h2l4-4-2-2zM31.563 27.563l-19.879-19.879c-0.583-0.583-1.538-0.583-2.121 0l-1.879 1.879c-0.583 0.583-0.583 1.538 0 2.121l19.879 19.879c0.583 0.583 1.538 0.583 2.121 0l1.879-1.879c0.583-0.583 0.583-1.538 0-2.121zM15 17l-6-6 2-2 6 6-2 2z" id="svg_1" class="selected" fill-opacity="1" fill="#fabb31"/></g></svg>