<?xml version="1.0" encoding="utf-8"?>
<!-- Generator: Adobe Illustrator 24.2.1, SVG Export Plug-In . SVG Version: 6.00 Build 0)  -->
<svg version="1.1" id="Capa_1" xmlns="http://www.w3.org/2000/svg" xmlns:xlink="http://www.w3.org/1999/xlink" x="0px" y="0px"
	 viewBox="0 0 200 200" style="enable-background:new 0 0 200 200;" xml:space="preserve">
<style type="text/css">
	.st0{fill:#F9BA31;}
</style>
<g>
	<path class="st0" d="M171.79,27.21C165.2,20.63,156.43,17,147.09,17s-18.11,3.63-24.69,10.21l-2.49,2.49l-1.06-1.06
		c-1.79-1.79-4.68-1.79-6.46,0c-1.79,1.79-1.79,4.68,0,6.46l1.06,1.06l-2.78,2.78c-2.03,2.03-3.78,4.27-5.22,6.66l47.95,47.95
		c2.4-1.45,4.63-3.2,6.66-5.22l2.78-2.78l1.06,1.06c0.89,0.89,2.06,1.34,3.23,1.34c1.17,0,2.34-0.45,3.23-1.34
		c1.78-1.79,1.78-4.68,0-6.46l-1.06-1.06l2.49-2.49C185.4,62.98,185.4,40.83,171.79,27.21L171.79,27.21z M171.79,27.21"/>
	<path class="st0" d="M27.06,136.89c-1.51,1.82-1.39,4.48,0.28,6.15l11.08,11.07L27.34,165.2c-1.79,1.79-1.79,4.68,0,6.46
		c0.89,0.89,2.06,1.34,3.23,1.34c1.17,0,2.34-0.45,3.23-1.34l11.08-11.08l11.07,11.08c0.89,0.89,2.06,1.34,3.23,1.34
		c1.03,0,2.07-0.35,2.92-1.06l10.91-9.07l-36.88-36.88L27.06,136.89z M27.06,136.89"/>
	<path class="st0" d="M99.34,52.43c-1.79-1.79-4.68-1.79-6.46,0L83,62.31c-1.79,1.79-1.79,4.68,0,6.46l0.39,0.39L42,118.93
		L80.07,157l49.76-41.39l0.39,0.39c0.89,0.89,2.06,1.34,3.23,1.34c1.17,0,2.34-0.45,3.23-1.34l9.88-9.88c1.79-1.79,1.79-4.68,0-6.46
		L99.34,52.43z M100.15,105.32l-6.46,6.46c-0.89,0.89-2.06,1.34-3.23,1.34s-2.34-0.45-3.23-1.34c-1.79-1.79-1.79-4.68,0-6.46
		l6.46-6.46c1.78-1.79,4.68-1.79,6.46,0C101.93,100.64,101.93,103.53,100.15,105.32L100.15,105.32z M100.15,105.32"/>
</g>
</svg>
