<!-- Generated by IcoMoon.io -->
<svg version="1.1" xmlns="http://www.w3.org/2000/svg" width="640" height="640" viewBox="0 0 640 640">
<title></title>
<g id="icomoon-ignore">
</g>
<path fill="#000" d="M504 256l-119.68-120c-0.196-2.652-0.308-5.746-0.308-8.865 0-70.516 57.164-127.68 127.68-127.68 35.549 0 67.706 14.529 90.855 37.972l0.013 0.013c23.358 23.196 37.816 55.326 37.816 90.834 0 70.692-57.308 128-128 128-2.947 0-5.871-0.099-8.769-0.296l0.393 0.021zM59.2 489.6l294.4-294.080 90.56 90.56-294.4 294.4-90.24-90.88zM14.4 580.16l67.52-67.84 45.44 45.44-67.84 67.84-45.44-45.44zM320 480l64-64v224h-64v-160z"></path>
</svg>
