<?xml version="1.0" encoding="utf-8"?>
<!-- Generator: Adobe Illustrator 24.2.1, SVG Export Plug-In . SVG Version: 6.00 Build 0)  -->
<svg version="1.1" id="Capa_1" xmlns="http://www.w3.org/2000/svg" xmlns:xlink="http://www.w3.org/1999/xlink" x="0px" y="0px"
	 viewBox="0 0 200 200" style="enable-background:new 0 0 200 200;" xml:space="preserve">
<style type="text/css">
	.st0{fill:#F9BA31;}
</style>
<g>
	<g>
		<g>
			<path class="st0" d="M104.11,146.4c-5.56,0-10.09,4.53-10.09,10.09s4.53,10.09,10.09,10.09s10.09-4.53,10.09-10.09
				S109.67,146.4,104.11,146.4z"/>
		</g>
	</g>
	<g>
		<g>
			<path class="st0" d="M104.11,121.18c-19.51,0-35.32,15.81-35.32,35.32s15.81,35.65,35.32,35.65s35.32-16.15,35.32-35.65
				S123.61,121.18,104.11,121.18z M104.11,176.68c-11.13,0-20.18-9.05-20.18-20.18s9.05-20.18,20.18-20.18s20.18,9.05,20.18,20.18
				S115.24,176.68,104.11,176.68z"/>
		</g>
	</g>
	<g>
		<g>
			<path class="st0" d="M58.7,30.17v-5.19c0-2.79-2.26-5.05-5.05-5.05s-5.05,2.26-5.05,5.05v5.19C31.51,30.88,18,35.04,18,40.12
				c0,5.08,13.51,9.24,30.61,9.95v40.84H58.7V50.06c17.09-0.7,30.27-4.87,30.27-9.95C88.97,35.04,75.79,30.88,58.7,30.17z"/>
		</g>
	</g>
	<g>
		<g>
			<path class="st0" d="M159.6,30.17v-5.19c0-2.79-2.26-5.05-5.05-5.05c-2.79,0-5.05,2.26-5.05,5.05v5.19
				c-17.09,0.7-30.27,4.87-30.27,9.95c0,5.08,13.18,9.24,30.27,9.95v40.84h10.09V50.06c17.09-0.7,30.61-4.87,30.61-9.95
				C190.21,35.04,176.7,30.88,159.6,30.17z"/>
		</g>
	</g>
	<g>
		<g>
			<path class="st0" d="M109.15,60.44v-5.19c0-2.79-2.26-5.05-5.05-5.05s-5.05,2.26-5.05,5.05v5.19
				c-17.09,0.7-30.27,4.87-30.27,9.95c0,5.08,13.18,9.24,30.27,9.95v31.26c1.68-0.19,3.32-0.51,5.05-0.51
				c1.73,0,3.37,0.32,5.05,0.51V80.33c17.09-0.7,30.27-4.87,30.27-9.95C139.42,65.31,126.25,61.15,109.15,60.44z"/>
		</g>
	</g>
	<g>
		<g>
			<path class="st0" d="M185.17,101h-60.88c-2.79,0-5.05,2.26-5.05,5.05v7.83c12.82,4.57,22.91,14.66,27.48,27.48h2.79v45.74
				c0,2.79,2.26,5.05,5.05,5.05c2.79,0,5.05-2.26,5.05-5.05v-45.74h25.56c2.79,0,5.05-2.26,5.05-5.05v-30.27
				C190.21,103.25,187.96,101,185.17,101z"/>
		</g>
	</g>
	<g>
		<g>
			<path class="st0" d="M83.93,101H23.05c-2.79,0-5.05,2.26-5.05,5.05v30.27c0,2.79,2.26,5.05,5.05,5.05h25.56v45.74
				c0,2.79,2.26,5.05,5.05,5.05s5.05-2.26,5.05-5.05v-45.74h2.79c4.57-12.82,14.66-22.91,27.48-27.48v-7.83
				C88.97,103.25,86.71,101,83.93,101z"/>
		</g>
	</g>
</g>
</svg>
