<?xml version="1.0" encoding="utf-8"?>
<!-- Generator: Adobe Illustrator 24.2.1, SVG Export Plug-In . SVG Version: 6.00 Build 0)  -->
<svg version="1.1" id="Capa_1" xmlns="http://www.w3.org/2000/svg" xmlns:xlink="http://www.w3.org/1999/xlink" x="0px" y="0px"
	 viewBox="0 0 200 200" style="enable-background:new 0 0 200 200;" xml:space="preserve">
<style type="text/css">
	.st0{fill:#F9BA31;}
</style>
<g>
	<rect x="94.32" y="90.55" class="st0" width="9.93" height="29.78"/>
	<rect x="54.61" y="90.55" class="st0" width="9.93" height="29.78"/>
	<path class="st0" d="M84.39,125.29V90.55h-9.93v34.75c0,2.74-2.22,4.96-4.96,4.96h-4.97v43.02h29.79v-43.02h-4.96
		C86.61,130.26,84.39,128.03,84.39,125.29L84.39,125.29z M84.39,125.29"/>
	<path class="st0" d="M179.04,40.91H19.53c-2.74,0-4.96,2.22-4.96,4.96v34.75H184V45.87C184,43.13,181.78,40.91,179.04,40.91
		L179.04,40.91z M159.18,65.73H39.39c-2.74,0-4.96-2.22-4.96-4.96c0-2.74,2.22-4.96,4.96-4.96h119.79c2.74,0,4.96,2.22,4.96,4.96
		C164.14,63.5,161.92,65.73,159.18,65.73L159.18,65.73z M159.18,65.73"/>
	<path class="st0" d="M44.68,125.29V90.55H14.57v77.77c0,2.74,2.22,4.96,4.96,4.96h35.08v-43.02h-4.96
		C46.9,130.26,44.68,128.03,44.68,125.29L44.68,125.29z M44.68,125.29"/>
	<path class="st0" d="M153.89,125.29c0,2.74-2.22,4.96-4.96,4.96h-4.96v43.02h35.08c2.74,0,4.96-2.22,4.96-4.96V90.55h-30.11V125.29
		z M153.89,125.29"/>
	<rect x="134.03" y="90.55" class="st0" width="9.93" height="29.78"/>
	<path class="st0" d="M124.1,125.29V90.55h-9.93v34.75c0,2.74-2.22,4.96-4.96,4.96h-4.96v43.02h29.79v-43.02h-4.97
		C126.32,130.26,124.1,128.03,124.1,125.29L124.1,125.29z M124.1,125.29"/>
</g>
</svg>
