<svg xmlns="http://www.w3.org/2000/svg" enable-background="new 0 0 512 512" height="512" width="512"><rect id="backgroundrect" width="100%" height="100%" x="0" y="0" fill="none" stroke="none"/><g class="currentLayer" style=""><title>Layer 1</title><g id="svg_1" class="selected" fill-opacity="1" fill="#fabb31"><path d="m436 200h-65c-16.542 0-30-13.458-30-30 0-93.738-76.262-170-170-170s-170 76.262-170 170v327c0 8.284 6.716 15 15 15h480c8.284 0 15-6.716 15-15v-222c0-41.355-33.645-75-75-75zm-405-30c0-77.196 62.804-140 140-140s140 62.804 140 140c0 33.084 26.916 60 60 60h65c24.813 0 45 20.187 45 45v15h-450zm60 220v-70h30v70zm45 30c8.284 0 15-6.716 15-15v-85h30v85c0 8.284 6.716 15 15 15h15v62h-90v-62zm75-30v-70h30v70zm30 30h15c8.284 0 15-6.716 15-15v-85h30v162h-60zm90-100h30v85c0 8.284 6.716 15 15 15h15v62h-60zm60 70v-70h30v70zm-360-70h30v85c0 8.284 6.716 15 15 15h15v62h-60zm450 162h-60v-62h15c8.284 0 15-6.716 15-15v-85h30z" id="svg_2" fill="#fabb31"/><path d="m141 260c27.57 0 50-22.43 50-50v-107.921c23.061 6.545 40 27.791 40 52.921 0 8.284 6.716 15 15 15s15-6.716 15-15c0-46.869-38.131-85-85-85-8.284 0-15 6.716-15 15v79.187c-6.129-2.686-12.891-4.187-20-4.187-27.57 0-50 22.43-50 50s22.43 50 50 50zm0-70c11.028 0 20 8.972 20 20s-8.972 20-20 20-20-8.972-20-20 8.972-20 20-20z" id="svg_3" fill="#fabb31"/></g></g></svg>