<?xml version="1.0" encoding="utf-8"?>
<!-- Generator: Adobe Illustrator 24.2.1, SVG Export Plug-In . SVG Version: 6.00 Build 0)  -->
<svg version="1.1" id="Capa_1" xmlns="http://www.w3.org/2000/svg" xmlns:xlink="http://www.w3.org/1999/xlink" x="0px" y="0px"
	 viewBox="0 0 140 144" style="enable-background:new 0 0 140 144;" xml:space="preserve">
<style type="text/css">
	.st0{fill:#231F20;}
	.st1{fill:#FFFFFF;}
	.st2{fill:#D2DCDF;}
	.st3{stroke:#000000;stroke-width:0.25;stroke-miterlimit:10;}
</style>
<g>
	<g id="XMLID_623_">
		<g id="XMLID_628_">
			<path id="XMLID_630_" class="st0" d="M28.39,23.83c-0.84-0.91-2.21-0.83-3.19-0.19c-0.6,0.4-1.05,0.92-1.46,1.48
				c0.17-2.33,0.23-4.66,0.14-6.99c-0.07-2.03,0.01-4.93-2.06-5.93c-2.94-1.42-3.76,1.77-3.98,4.86c-1.19-2.5-2.89-4.78-4.94-3.95
				c-2.22,0.9-1.85,3.83-0.94,6.45c-1.51-1.01-3.24-1.63-5.09-1.8c-0.52-0.05-0.98,0.37-1.05,0.92c-0.26,2.23,0.53,4.04,1.71,5.61
				c-2.03-0.43-4.07-0.34-4.49,1.94c-0.27,1.5,0.78,2.63,1.88,3.28c1.75,1.05,3.6,1.93,5.4,2.88c1.21,6.32,7.37,9.65,13.02,6.95
				c0.13-0.06,0.24-0.15,0.32-0.24c0.27-0.06,0.51-0.25,0.65-0.6c1.2-3.15,2.4-6.3,3.6-9.44C28.5,27.53,29.74,25.29,28.39,23.83z"/>
			<path id="XMLID_629_" class="st1" d="M26.14,28.34c-0.36,0.94-0.72,1.89-1.08,2.83l-2.4,6.29c-0.03,0.01-0.06,0.02-0.1,0.03
				c-4.81,2.29-9.84-0.77-10.5-6.28c-0.08-0.68-0.64-0.9-1.12-0.78c-0.81-0.43-1.62-0.86-2.43-1.28c-0.83-0.44-2.15-0.84-2.82-1.51
				L5.36,27.4c-0.22-1-0.02-1.43,0.6-1.28c0.48-0.14,1.09,0.19,1.56,0.32c1.01,0.27,2.01,0.56,3.02,0.84
				c1.17,0.32,1.88-1.58,0.7-1.9c0,0-0.01,0-0.01,0c-0.02-0.03-0.05-0.06-0.08-0.09c-1.55-1.46-3.23-3.11-3.44-5.35
				c2.29,0.46,4.24,1.75,5.71,3.76c0.26,0.35,0.6,0.43,0.91,0.34c0.72,0.28,1.63-0.77,1.07-1.65c-0.66-1.05-1.2-2.16-1.57-3.37
				c-0.19-0.61-1.26-4.09,0.27-3.8c0.76,0.15,1.9,2.62,2.22,3.25c0.56,1.11,1.01,2.28,1.35,3.49c0.3,1.05,1.72,0.96,1.9,0.12
				c0.07-0.13,0.12-0.29,0.13-0.48c0.03-1.47,0.05-2.95,0.09-4.42c0.01-0.35,0.02-2.65,0.39-2.73c1.08-0.24,1.74,1.81,1.79,2.59
				c0.21,3.33,0.08,6.66-0.26,9.98c-0.03,0.33,0.07,0.59,0.23,0.78c-0.52,0.57-1.15,1.02-2.03,1.22c-1.19,0.28-0.9,2.28,0.31,2
				c1.13-0.26,2.07-0.7,2.93-1.56c0.66-0.66,1.63-3.11,2.39-3.41C27.85,25.11,26.36,27.79,26.14,28.34z"/>
		</g>
		<g id="XMLID_624_">
			<path id="XMLID_627_" class="st0" d="M75.96,76.81c0.71-0.58,0.35-2.07-0.69-1.82c-12.1,2.93-25.08-0.13-34.59-8.54
				c-8.76-7.74-13.97-19.65-14.27-31.84c0.03-0.03,0.05-0.07,0.08-0.11c0-0.3,0.01-0.6,0.03-0.91c-0.2-0.45-0.68-0.8-1.25-0.59
				c-2.05,0.74-4.11,1.48-6.16,2.22c-1.85,0.67-4.09,1.13-5.78,2.2c-2.02,1.28-2.33,4.04-1.92,6.31c0.37,2.05,1.57,2.55,3.09,2.4
				c0.52,13.7,4.86,27.07,12.32,38.17c4.5,6.7,10.17,12.66,16.71,17.07c6.46,4.36,15.03,7.43,22.14,2.56
				c8.34-5.72,9.62-17.05,10.37-26.62C76.06,77.13,76.02,76.95,75.96,76.81z"/>
			<path id="XMLID_626_" class="st1" d="M13.21,42.19c-0.06-3.44,3.38-3.93,5.79-4.8c1.85-0.67,3.7-1.33,5.54-2
				c0.07,1.63,0.22,3.25,0.45,4.86c-1.88,0.92-3.8,1.75-5.76,2.46C17.49,43.33,13.27,45.48,13.21,42.19z"/>
			<path id="XMLID_625_" class="st1" d="M65.83,101.36c-7,5.88-15.99,2.15-22.43-2.52c-11.46-8.31-19.92-20.99-24.12-35.11
				c-1.73-5.83-2.7-11.89-2.89-18c3.07-0.86,6.06-2.04,8.97-3.42c1.82,9.76,6.56,18.78,13.66,25.3c9.54,8.76,22.75,12.22,35.14,9.7
				C73.47,85.76,72.59,95.67,65.83,101.36z"/>
		</g>
	</g>
	<g id="XMLID_526_">
		<path id="XMLID_528_" class="st0" d="M132.72,107.8c-1.19-4.86-2.94-9.58-5.19-14.05c-4.98-9.86-12.37-18.39-21.46-24.67
			c-0.13-0.09-0.26-0.14-0.38-0.16c-0.08-0.03-0.16-0.06-0.25-0.08c-1.15-0.26-2.21,0.49-2.58,1.53c0,0.01-0.01,0.02-0.01,0.02
			c-6.03,18.89-2.38,41.74,11.06,56.75c3.08,3.44,7.41,6.33,12.25,5.49c4.51-0.78,7.23-4.86,7.99-9.12
			C135.05,118.42,133.94,112.76,132.72,107.8z"/>
		<path id="XMLID_527_" class="st1" d="M129.14,129.07c-4.78,4.18-10.92,0.08-14.23-3.81c-5.8-6.84-9.7-15.41-11.58-24.14
			c-2.13-9.87-1.73-20.16,1.31-29.8c0.04-0.09,0.07-0.18,0.08-0.28c0-0.01,0-0.02,0.01-0.03c0.02-0.03,0.05-0.09,0.06-0.12
			c0.02-0.01,0.07-0.06,0.1-0.08c0.01,0,0.01,0,0.02-0.01c0.01,0,0.03-0.01,0.06-0.01c0.02,0,0.03-0.01,0.04-0.01c0,0,0.01,0,0.01,0
			c0,0,0.01,0,0.01,0c14.29,9.93,24.24,25.67,26.84,42.91C132.62,118.7,133.41,125.34,129.14,129.07z"/>
	</g>
	<g id="XMLID_520_">
		<path id="XMLID_525_" class="st0" d="M113.03,137.44c0.67-0.92,0.87-2.17,0.85-3.87c-0.02-1.55-0.02-3.09-0.02-4.64
			c0.05-10.76-0.45-21.52-1.46-32.23c-0.51-5.36-1.15-10.7-1.92-16.02c-0.54-3.69-1.01-7.63-2.94-10.9
			c-1.89-3.21-5.01-4.73-8.59-5.32c-7.7-1.26-15.84-0.37-23.32,1.24c-2.35,0.51-4.92,0.84-7.08,1.95c-3.88,2-5.77,6.52-6.98,10.48
			c-1.62,5.26-2.17,10.85-2.78,16.3c-0.68,6-1.16,12.01-1.46,18.04c-0.26,5.16-0.45,10.33-0.4,15.51c0.02,2.59,0.11,5.17,0.28,7.75
			c0.08,1.21-0.35,2.95,0.51,3.94c1.72,2.01,5.16,1.58,7.51,1.8c6.89,0.65,13.67,1.23,20.6,0.95c8.01-0.32,16.27-1.29,24.06-3.21
			C111.44,138.83,112.42,138.27,113.03,137.44z"/>
		<path id="XMLID_522_" class="st1" d="M59.39,137.84c-0.04-0.06-0.08-0.13-0.12-0.21c-0.13-0.33-0.14-0.69-0.14-1.05
			c-0.09-10.44-0.08-20.84,0.7-31.26c0.64-8.46,1.17-17.34,3.41-25.55c1.25-4.6,3.28-9.59,8.25-11.02
			c9.25-2.65,19.12-4.26,28.61-1.96c4.86,1.18,6.76,5.34,7.64,9.88c1.89,9.75,2.7,19.85,3.35,29.75c0.63,9.62,0.74,19.23,0.63,28.86
			c-0.02,1.77-5.09,2.07-6.42,2.31c-2.09,0.38-4.18,0.7-6.28,1.03c-4.34,0.68-8.72,1.12-13.11,1.3c-4.39,0.19-8.79,0.13-13.18-0.18
			c-2.2-0.16-4.39-0.37-6.57-0.65c-1.76-0.23-4.63-0.15-6.21-0.87C59.72,138.12,59.53,138.04,59.39,137.84z"/>
	</g>
	<g id="XMLID_515_">
		<path id="XMLID_519_" class="st0" d="M97.2,60.7c-0.03,0.02-0.05,0.04-0.07,0.06c-4.27-1.97-10.18-1.22-14.53-0.31
			c-3.41-0.26-7.61-0.3-10.94,1.07c-3.45-2.66-7.25-0.38-9.62,2.63c-2.71,3.44-6.1,8.1-4.32,12.72c1.74,4.51,8.05,6.64,12.08,8.45
			c3.04,1.36,6.15,2.55,9.31,3.59c1.54,0.5,3.1,0.97,4.66,1.4c1.9,0.52,3.47,1.17,5.33,0.06c1.94-1.17,3.71-2.65,5.58-3.94
			c2.41-1.66,4.81-3.33,7.24-4.98c3.39-2.3,7.37-4.72,8.54-8.93C112.21,66.14,103.71,56.13,97.2,60.7z"/>
		<path id="XMLID_518_" class="st1" d="M64.85,80.68c-1.54-0.83-3.25-1.66-4.38-3.02c-1.86-2.24-1.32-5.17-0.08-7.55
			c1.39-2.67,5.52-9.49,9.31-7.53c-1.45,1-2.59,2.41-3.23,4.37c-2.23,6.86,6.01,13.18,10.51,16.88c1.59,1.31,3.34,2.89,5.28,3.95
			C76.24,86,70.39,83.66,64.85,80.68z"/>
		<path id="XMLID_517_" class="st1" d="M86.88,86.91c-3.61,0.54-7.74-3.78-10.21-5.94c-2.62-2.31-5.59-4.84-7.37-7.89
			c-2.12-3.63-1.06-7.45,2.63-9.49c3.42-1.89,7.28-0.88,10.97-1.25c0.05-0.01,0.11-0.01,0.16-0.02c3.97-0.44,7.74-1.71,11.7-0.35
			c3.68,1.26,6.43,4.65,5.31,8.65c-0.9,3.25-3.49,6-5.49,8.62C92.69,81.74,90.29,86.41,86.88,86.91z"/>
		<path id="XMLID_516_" class="st1" d="M105.37,76.51c-2.7,2.37-5.97,4.24-8.94,6.26c-1.45,0.98-2.89,1.96-4.34,2.94
			c0.22-0.25,0.43-0.51,0.64-0.77c2.54-3.19,5.24-6.44,7.42-9.88c1.66-2.62,2.83-5.75,1.81-8.85c-0.62-1.87-1.63-3.26-2.9-4.27
			c3.32-1.43,6.72,1.86,8.41,4.6C109.75,70.25,108.46,73.8,105.37,76.51z"/>
	</g>
	<g id="XMLID_496_">
		<path id="XMLID_498_" class="st0" d="M109.15,24.45c-0.27-0.97-1.55-0.93-1.9-0.27c-0.17-0.08-0.38-0.11-0.62-0.06
			c-3.49,0.74-5.28,3.98-5.39,7.36c-0.16,5.04,1.58,10.44,2.51,15.37c0.16,0.84,1.33,1.08,1.8,0.37
			C110.03,40.49,111.36,32.23,109.15,24.45z"/>
		<path id="XMLID_497_" class="st0" d="M105.23,43.87c-0.49-2.58-0.98-5.16-1.45-7.74c-0.63-3.45-1.37-9.08,3.25-10.06
			c0.18-0.04,0.32-0.11,0.43-0.21C108.94,32,108.16,38.34,105.23,43.87z"/>
	</g>
	<g id="XMLID_485_">
		<path id="XMLID_489_" class="st0" d="M94.74,71.2c0.08-0.59,0.16-1.19,0.22-1.79c0.11-1.3,0.16-2.61,0.14-3.92
			c-0.02-1.24,0.16-2.49,0.25-3.73c0.05-0.55-0.03-1.29,0.32-1.74c0.36-0.46,1.12-0.6,1.62-0.87c0.7-0.38,1.37-0.85,2.01-1.33
			c1.4-1.06,2.64-2.32,3.67-3.75c3.3-4.55,5.04-10.63,5.32-18.6c0.26-7.21-0.76-20.08-10.51-25.23c-0.11-0.06-0.21-0.1-0.32-0.15
			c-0.1-0.04-0.2-0.09-0.33-0.16c-1.45-0.85-3.06-1.47-4.77-1.85c-2.92-0.64-6.13-0.56-9.26,0.24c-4.96,1.27-9.2,4.75-11.94,9.79
			c-2.12,3.89-3.42,8.67-3.87,14.19c-0.57,6.99,0.1,12.94,2,17.67c0.89,2.23,2.22,4.21,3.94,5.89c0.58,0.57,1.21,1.1,1.87,1.58
			c0.38,0.28,0.38,0.46,0.39,1.04l0,0.29c0.02,0.53,0.02,1.06,0.03,1.59c0.01,1.09-0.01,2.16-0.06,3.18
			c-0.1,2.2-0.32,4.32-0.66,6.32c-0.01,0.07,5.72,22,11.64,20.56c2.87-0.7,5.44-4.23,6.31-7.02c1.01-3.22,1.34-6.66,1.7-10
			C94.52,72.66,94.63,71.93,94.74,71.2z"/>
		<path id="XMLID_488_" class="st1" d="M69.75,45.25c0.9,4.4,2.91,8.19,6.45,10.82c0.19,0.2,0.36,0.42,0.5,0.65
			c0.12,0.19,0.21,0.4,0.3,0.6c0.14,0.63,0.24,1.26,0.27,1.9c0,0.03,0.01,0.05,0.02,0.07c0.11,3.48-0.12,6.96-0.67,10.4
			c0.2,4.28,6.93,18.8,9.95,18.25c2.1-0.38,3.24-2.86,3.93-4.62c1-2.55,1.56-5.27,2.01-7.96c0.31-1.83,0.6-3.67,0.74-5.52
			c0.13-1.79-0.01-3.57,0.09-5.36c0.08-1.61,0.04-3.4,0.82-4.9c0.87-1.67,2.66-2.09,4.08-3.14c1.45-1.07,2.72-2.39,3.72-3.9
			c2.69-4.01,3.8-8.93,4.29-13.67c0.91-8.77,0.04-20.81-7.99-26.23c-0.36-0.27-0.49-0.36-0.74-0.55c-3.66-2.62-8.23-3.09-12.67-2.31
			c-4.42,0.78-8.18,3.32-10.75,6.97c-2.53,3.58-3.92,7.86-4.62,12.16C68.6,34.27,68.66,39.93,69.75,45.25z"/>
		<path id="XMLID_487_" class="st2" d="M92.9,29.41c2.34-0.44,4.22-2.23,4.59-4.34c2.71,1.04,5.67,1.82,8.49,1.36
			c-0.93-5.52-3.18-10.71-7.73-13.78c-0.36-0.27-0.49-0.36-0.74-0.55c-3.66-2.62-8.23-3.09-12.67-2.31
			c-4.42,0.78-8.18,3.32-10.75,6.97c-2.53,3.58-3.92,7.86-4.62,12.16c-0.73,4.45-0.8,9.12-0.18,13.62c0.1-0.06,0.2-0.14,0.29-0.26
			c3.23-4.29,5.54-9.09,6.89-14.22c2.42,1.08,5.27,0,6.52-2.27C85.75,28.12,89.33,30.08,92.9,29.41z"/>
	</g>
	<g id="XMLID_478_">
		<g id="XMLID_480_">
			<path id="XMLID_483_" class="st0" d="M83.28,36.75c-0.44-0.91-1.34-0.74-1.84-0.09c-0.71,0.91-0.65,2.55,0.11,3.4
				c0.5,0.56,1.46,0.57,1.78-0.2C83.74,38.87,83.75,37.74,83.28,36.75z"/>
			<path id="XMLID_482_" class="st0" d="M99.61,35.83c-0.34-0.94-1.25-0.87-1.83-0.27c-0.8,0.83-0.9,2.47-0.23,3.4
				c0.44,0.6,1.39,0.72,1.79-0.02C99.86,37.98,99.98,36.86,99.61,35.83z"/>
			<path id="XMLID_481_" class="st0" d="M92.78,35.86c-0.29-1.25-2.24-0.86-1.96,0.39c0.56,2.45,0.58,4.9-0.03,7.35
				c-0.31,1.24,1.57,1.91,1.88,0.67C93.37,41.47,93.43,38.67,92.78,35.86z"/>
		</g>
		<path id="XMLID_479_" class="st0" d="M92.32,47.12c-0.06-0.53-2.26-0.86-3.27-1.28c-1.32-0.55-2.63-1.13-3.69-2.08
			c-1.11-0.99-1.73,0.86-1.95,1.67c-0.76,2.71-0.95,6.63,2.25,7.78C88.82,54.34,92.55,49.04,92.32,47.12z"/>
	</g>
	<g id="XMLID_471_">
		<g id="XMLID_475_">
			<path id="XMLID_477_" class="st0" d="M69.84,17.93c-5.01,0.2-6.36,6.14-6.73,10.13c-0.51,5.58,0.73,11.15,3.38,16.06
				c0.17,0.32,1.73,0.85,2.07,0.28c2.95-5.01,5.03-10.45,6.01-16.2C75.2,24.5,75.36,17.71,69.84,17.93z"/>
			<path id="XMLID_476_" class="st0" d="M71.78,31.7c-0.95,3.6-2.35,7.04-4.14,10.29c-1.43-2.99-2.34-6.18-2.59-9.51
				c-0.26-3.49-0.28-10.42,3.54-12.1C75.09,17.51,72.47,29.1,71.78,31.7z"/>
		</g>
		<g id="XMLID_472_">
			<path id="XMLID_474_" class="st0" d="M107.23,8.72c-5.71-4.8-12.31-8.33-19.96-7.86c-5.94,0.37-13.08,2.91-16.65,7.93
				c-3.96,5.57-1.64,14.06,4.5,16.94c2.09,0.98,4.83,1.14,6.3-0.96c0.33-0.47,0.54-0.96,0.64-1.44c1.22,0.93,2.5,1.77,3.85,2.51
				c2.04,1.13,4.63,2.52,7.05,2.31c1.64-0.14,3.18-1.07,3.69-2.7c0.27-0.84,0.25-1.64,0.05-2.41c4.92,2.51,11.23,3.26,15.86,0.18
				C119.74,18.46,111.16,12.03,107.23,8.72z"/>
			<path id="XMLID_473_" class="st0" d="M112.71,20.42c-1.85,2.72-6.59,2.97-9.53,2.62c-3.31-0.4-6.31-1.76-8.84-3.91
				c-0.83-0.7-2.23,0.41-1.48,1.31c0.63,0.76,1.4,1.61,1.75,2.54c0.39,1.04-0.17,2.43-1.11,3.06c-1.41,0.94-4.32-0.77-5.58-1.39
				c-2.49-1.24-4.74-2.82-6.8-4.68c-0.25-0.3-0.54-0.57-0.87-0.81c-0.02-0.02-0.03-0.03-0.05-0.04c-0.07-0.05-0.14-0.1-0.21-0.15
				c-0.98-0.65-1.86,0.9-1.1,1.65c0.34,0.33,0.69,0.65,1.05,0.97c0.86,1.49-1.17,3.07-2.62,2.82c-0.56-0.1-1.12-0.35-1.62-0.6
				c-1.41-0.71-2.64-1.9-3.51-3.2c-4.85-7.31,1.72-13.69,8.33-16.2c6.87-2.61,14.72-1.56,20.86,2.4c2.55,1.64,4.86,3.64,7.1,5.67
				C110.59,14.4,114.86,17.25,112.71,20.42z"/>
		</g>
	</g>
	<g id="XMLID_459_">
		<g id="XMLID_466_">
			<path id="XMLID_469_" class="st0" d="M134.08,114.48c-0.6-3.81-4.43,0.25-9.14-0.66c-3.46-0.67-8.33-3.83-11.06-1.79
				c-3.12,2.34-6.76,4.04-10.18,5.93c-3.45,1.91-8.11,3.65-10.31,7.13c-1.84,2.91-1.44,6.73,0.5,9.49c2.26,3.2,6.12,4.75,9.91,5.12
				c8.03,0.78,18.1-1.56,24.34-6.83C133.69,128.19,135.32,122.38,134.08,114.48z"/>
			<path id="XMLID_468_" class="st1" d="M115.12,136.7c-4.25,0.94-9.09,1.73-13.38,0.67c-4.47-1.11-9.49-5.64-6.96-10.69
				c0.97-1.94,2.94-3.09,4.75-4.13c2.15-1.23,4.34-2.4,6.51-3.6c2.54-1.41,5.17-2.64,7.72-4.04c3.31-1.82,6.68-5.09,10.77-4.78
				c4.83,0.37,7.7-2.81,7.96,10.03C132.68,129.58,123.13,134.93,115.12,136.7z"/>
		</g>
		<g id="XMLID_460_">
			<path id="XMLID_465_" class="st0" d="M104.07,131.32c-1.17-3.19-2.04-6.87-3.68-9.84c-1.64-2.97-5.78-1.85-8.53-1.66
				c-2.22,0.16-4.43,0.31-6.65,0.47c-1.73,0.12-3.48,0.32-5.21,0.37c-1.6,0.04-3.09-0.2-4.2,1.11c-1.12,1.33-1.61,3.19-2.45,4.7
				c-1.13,2.03-2.26,4.06-3.39,6.1c-1.2,2.15-3.74,5.14-2.49,7.75c1.24,2.58,4.5,2.67,6.97,2.86c4.22,0.33,8.45,0.43,12.68,0.29
				c3.83-0.12,7.65-0.43,11.45-0.91c2.28-0.29,5.4-0.48,6.8-2.65C107.06,137.32,104.98,133.8,104.07,131.32z"/>
			<path id="XMLID_462_" class="st1" d="M102.73,139.63c-1.29,0.78-3.21,0.81-4.65,0.99c-7.65,0.97-15.42,1.16-23.11,0.59
				c-0.87-0.06-1.75-0.11-2.61-0.24c-0.49-0.03-0.97-0.12-1.44-0.27c-1.33-0.25-1.75-0.99-1.26-2.21c0.11-2.14,1.46-3.9,2.49-5.77
				c1.7-3.07,3.46-6.11,5.08-9.22c0.69-1.34,3.63-0.92,4.92-1.01c2.09-0.15,4.17-0.3,6.26-0.44c1.79-0.13,3.59-0.25,5.38-0.38
				c0.81-0.06,1.85-0.32,2.66-0.17c1.41,0.25,2.18,1.15,2.78,2.42c1.52,3.19,2.49,6.78,3.71,10.09
				C103.6,135.78,104.85,138.35,102.73,139.63z"/>
		</g>
	</g>
	<g>
		<path class="st3" d="M96.73,96.07c-0.05-0.9-0.76-1.61-1.66-1.66c-1.81-0.1-5.35,0-8.73,1.75c-1.73,0.89-3.55,2.41-5.01,4.15
			c-0.02,0.02-0.04,0.04-0.05,0.06l-3.3,0.26c-0.54,0.04-1.03,0.33-1.33,0.78l-2.25,3.41c-0.23,0.35-0.26,0.78-0.1,1.16
			c0.17,0.38,0.51,0.64,0.92,0.71l2.78,0.43c-0.01,0.05-0.02,0.11-0.03,0.16c-0.09,0.55,0.09,1.12,0.49,1.52l3.88,3.88
			c0.33,0.33,0.78,0.51,1.24,0.51c0.09,0,0.19-0.01,0.28-0.02c0.05-0.01,0.11-0.02,0.16-0.03l0.43,2.78
			c0.06,0.41,0.33,0.75,0.71,0.92c0.16,0.07,0.32,0.1,0.49,0.1c0.23,0,0.46-0.07,0.67-0.2l3.41-2.25c0.46-0.3,0.74-0.79,0.78-1.33
			l0.26-3.3c0.02-0.02,0.04-0.04,0.06-0.05c1.75-1.46,3.26-3.28,4.15-5.01C96.73,101.41,96.82,97.87,96.73,96.07L96.73,96.07z
			 M89,113.39l-3.26,2.16l-0.42-2.71c1.38-0.41,2.74-1.05,4.04-1.92l-0.17,2.15C89.18,113.19,89.11,113.31,89,113.39L89,113.39z
			 M83.27,111.74l-3.88-3.88c-0.1-0.1-0.14-0.24-0.12-0.37c0.12-0.69,0.29-1.35,0.52-1.96l5.82,5.82c-0.74,0.27-1.41,0.42-1.96,0.52
			C83.51,111.89,83.37,111.84,83.27,111.74L83.27,111.74z M78.07,101.94l2.15-0.17c-0.87,1.3-1.52,2.66-1.92,4.04l-2.71-0.42
			l2.16-3.26C77.82,102.02,77.94,101.95,78.07,101.94z M89.98,108.79c-1.07,0.89-2.1,1.54-3.06,2l-6.58-6.58
			c0.61-1.25,1.36-2.29,2-3.06c1.35-1.62,3.02-3.01,4.6-3.82c3.11-1.61,6.38-1.69,8.05-1.6c0.22,0.01,0.4,0.19,0.41,0.41
			c0.09,1.67,0,4.95-1.6,8.05C92.99,105.76,91.6,107.44,89.98,108.79L89.98,108.79z"/>
		<path class="st3" d="M89.64,104.79c0.85,0,1.69-0.32,2.34-0.97c0.62-0.62,0.97-1.45,0.97-2.34c0-0.88-0.34-1.71-0.97-2.34
			c-1.29-1.29-3.39-1.29-4.67,0c-0.62,0.62-0.97,1.45-0.97,2.34c0,0.88,0.34,1.71,0.97,2.34C87.95,104.47,88.8,104.79,89.64,104.79
			L89.64,104.79z"/>
		<path class="st3" d="M74.86,112.98c0.17,0,0.34-0.06,0.47-0.19l2.16-2.16c0.26-0.26,0.26-0.68,0-0.93c-0.26-0.26-0.68-0.26-0.93,0
			l-2.16,2.16c-0.26,0.26-0.26,0.68,0,0.93C74.52,112.91,74.69,112.98,74.86,112.98z"/>
		<path class="st3" d="M79.47,111.67c-0.26-0.26-0.68-0.26-0.94,0l-4.15,4.15c-0.26,0.26-0.26,0.68,0,0.93
			c0.13,0.13,0.3,0.19,0.47,0.19s0.34-0.06,0.47-0.19l4.15-4.15C79.72,112.34,79.72,111.93,79.47,111.67L79.47,111.67z"/>
		<path class="st3" d="M80.51,113.65l-2.16,2.16c-0.26,0.26-0.26,0.68,0,0.93c0.13,0.13,0.3,0.19,0.47,0.19
			c0.17,0,0.34-0.06,0.47-0.19l2.16-2.16c0.26-0.26,0.26-0.68,0-0.93C81.18,113.39,80.77,113.39,80.51,113.65z"/>
	</g>
</g>
</svg>
