<?xml version="1.0" encoding="utf-8"?>
<!-- Generator: Adobe Illustrator 24.2.1, SVG Export Plug-In . SVG Version: 6.00 Build 0)  -->
<svg version="1.1" id="Capa_1" xmlns="http://www.w3.org/2000/svg" xmlns:xlink="http://www.w3.org/1999/xlink" x="0px" y="0px"
	 viewBox="0 0 200 200" style="enable-background:new 0 0 200 200;" xml:space="preserve">
<style type="text/css">
	.st0{fill:#F9BA31;}
</style>
<g>
	<g>
		<g>
			<path class="st0" d="M103.61,115.16c28.84,0,83.39-4.36,83.39-20.85c0-13.71-37.23-18.34-56.21-19.82
				c-2.96-6.17-16.9-7.58-23.71-7.89V42.19c0-1.92-1.55-3.47-3.47-3.47c-1.92,0-3.47,1.55-3.47,3.47V66.6
				c-6.8,0.31-20.75,1.72-23.71,7.89c-18.98,1.48-56.21,6.12-56.21,19.82C20.21,110.81,74.76,115.16,103.61,115.16z"/>
			<path class="st0" d="M179.56,112.71c-0.91-0.5-2.01-0.56-2.97-0.18c-19.65,7.91-50.53,9.58-72.99,9.58s-53.34-1.66-72.99-9.58
				c-0.96-0.38-2.06-0.33-2.97,0.18c-4.93,2.7-7.44,5.87-7.44,9.4c0,15.86,50.4,20.49,79.92,20.82v17.41c0,1.92,1.55,3.47,3.47,3.47
				c1.92,0,3.47-1.55,3.47-3.47v-17.41c29.52-0.33,79.92-4.95,79.92-20.82C187,118.58,184.5,115.42,179.56,112.71z"/>
		</g>
	</g>
</g>
</svg>
