<?xml version="1.0" encoding="utf-8"?>
<!-- Generator: Adobe Illustrator 24.2.1, SVG Export Plug-In . SVG Version: 6.00 Build 0)  -->
<svg version="1.1" id="Capa_1" xmlns="http://www.w3.org/2000/svg" xmlns:xlink="http://www.w3.org/1999/xlink" x="0px" y="0px"
	 viewBox="0 0 200 200" style="enable-background:new 0 0 200 200;" xml:space="preserve">
<style type="text/css">
	.st0{fill:#F9BA31;}
</style>
<path class="st0" d="M90.1,38.81c8.85,0,16.05,7.2,16.05,16.05v3.15c7.09-1.65,14.6,1.04,18.49,7.38c3.03,4.95,3.28,10.8,0.85,15.79
	l10.18,12.11c8.8-8.65,13.89-20.55,13.89-33.12v-0.03c0-23.82-19.31-43.13-43.13-43.13H59.95v10.01c0,4.18,1.12,8.24,3.18,11.8H90.1
	z"/>
<path class="st0" d="M142.38,129.51l-51.2,17.61l-11.13,35.11H173C173.01,160.6,161.37,140.08,142.38,129.51z"/>
<path class="st0" d="M92.55,136.42l42.11-14.49l-3.4-13.6c-0.47-1.88-0.56-3.78-0.33-5.64l-17.75-21.12l2.61-3.11
	c2.95-3.53,1.2-7.03,0.6-8.02c-1.26-2.06-3.88-3.97-7.42-3.15l-12.49,2.88V54.86c0-3.51-2.86-6.37-6.37-6.37H66.84v13.55
	L53.06,85.01l6.89,6.89v5.77l13.71,5.69l-12.34,9.34l1.03,5.61c0.68,3.71,4.22,6.18,7.93,5.54l20.79-3.57L92.55,136.42z"/>
<g>
	<path class="st0" d="M48.88,104.58c-4.9,0-10.73-0.81-15.33-3.87c-4.03-2.68-6.52-6.68-7.39-11.87l3.18-0.53
		c0.72,4.28,2.73,7.55,5.98,9.71c8.45,5.63,22.61,2.41,22.75,2.37l0.74,3.14C58.5,103.61,54.24,104.58,48.88,104.58z"/>
</g>
<g>
	<path class="st0" d="M31.96,125.75l-3.23-0.09c0.14-5.27,2.05-9.57,5.67-12.78c8.64-7.67,23.99-6.36,24.64-6.3l-0.3,3.21l0.15-1.61
		l-0.15,1.61c-0.14-0.01-14.62-1.24-22.2,5.5C33.62,117.9,32.08,121.41,31.96,125.75z"/>
</g>
</svg>
