<?xml version="1.0" encoding="utf-8"?>
<!-- Generator: Adobe Illustrator 24.2.1, SVG Export Plug-In . SVG Version: 6.00 Build 0)  -->
<svg version="1.1" id="Capa_1" xmlns="http://www.w3.org/2000/svg" xmlns:xlink="http://www.w3.org/1999/xlink" x="0px" y="0px"
	 viewBox="0 0 60 60" style="enable-background:new 0 0 60 60;" xml:space="preserve">
<style type="text/css">
	.st0{fill:#F9BA31;}
</style>
<g>
	<path class="st0" d="M15.71,5.95h-5.63v5.63H5.85v15.49h4.22v26.94h5.63V27.07h4.22V11.58h-4.22V5.95z M14.3,21.44h-2.82v-4.22
		h2.82V21.44z M14.3,21.44"/>
	<path class="st0" d="M32.7,5.95h-5.63V32.7h-4.22v15.49h4.22v5.82h5.63v-5.82h4.22V32.7H32.7V5.95z M31.29,42.56h-2.82v-4.22h2.82
		V42.56z M31.29,42.56"/>
	<path class="st0" d="M49.69,15.8V5.95h-5.63v9.86h-4.22v15.49h4.22v22.72h5.63V31.29h4.22V15.8H49.69z M48.28,25.66h-2.82v-4.22
		h2.82V25.66z M48.28,25.66"/>
</g>
</svg>
