<?xml version="1.0" encoding="utf-8"?>
<!-- Generator: Adobe Illustrator 24.2.1, SVG Export Plug-In . SVG Version: 6.00 Build 0)  -->
<svg version="1.1" id="Capa_1" xmlns="http://www.w3.org/2000/svg" xmlns:xlink="http://www.w3.org/1999/xlink" x="0px" y="0px"
	 viewBox="0 0 200 200" style="enable-background:new 0 0 200 200;" xml:space="preserve">
<style type="text/css">
	.st0{fill:#F9BA31;}
</style>
<g>
	<g>
		<g>
			<path class="st0" d="M94.87,64.76c0-5.62-4.57-10.19-10.19-10.19c-5.62,0-10.19,4.57-10.19,10.19v20.38h20.38L94.87,64.76
				L94.87,64.76z"/>
			<path class="st0" d="M125.43,87.97V64.76c0-5.62-4.57-10.19-10.19-10.19c-5.62,0-10.19,4.57-10.19,10.19v20.38h10.19
				C118.97,85.14,122.43,86.22,125.43,87.97z"/>
			<path class="st0" d="M64.3,34.2c0-5.62-4.57-10.19-10.19-10.19S43.93,28.58,43.93,34.2v61.72c5.35-5.47,12.45-9.12,20.38-10.27
				L64.3,34.2L64.3,34.2z"/>
			<path class="st0" d="M145.81,24.01c-5.62,0-10.19,4.57-10.19,10.19v71.32c0,11.24-9.14,20.38-20.38,20.38H97.86
				c10.51,8.41,17.39,21.18,17.39,35.66c0,2.82-2.28,5.09-5.09,5.09c-2.82,0-5.09-2.28-5.09-5.09c0-19.66-16-35.66-35.66-35.66
				c-2.82,0-5.09-2.28-5.09-5.09c0-2.82,2.28-5.09,5.09-5.09h45.85c5.62,0,10.19-4.57,10.19-10.19c0-5.62-4.57-10.19-10.19-10.19
				H69.4c-14.04,0-25.47,11.43-25.47,25.47v10.19c0,25.28,20.57,45.85,45.85,45.85h20.38c25.28,0,45.85-20.57,45.85-45.85V34.2
				C156,28.58,151.43,24.01,145.81,24.01z"/>
		</g>
	</g>
</g>
</svg>
