<?xml version="1.0" encoding="utf-8"?>
<!-- Generator: Adobe Illustrator 24.2.1, SVG Export Plug-In . SVG Version: 6.00 Build 0)  -->
<svg version="1.1" id="Capa_1" xmlns="http://www.w3.org/2000/svg" xmlns:xlink="http://www.w3.org/1999/xlink" x="0px" y="0px"
	 viewBox="0 0 200 200" style="enable-background:new 0 0 200 200;" xml:space="preserve">
<style type="text/css">
	.st0{fill:#F9BA31;}
</style>
<g>
	<path class="st0" d="M184.63,37.92c-1.97-1.64-4.89-1.37-6.53,0.59l-4.83,5.8c-1.33-0.67-2.81-1.03-4.32-1.03
		c-2.85,0-5.53,1.25-7.36,3.42l-3.19,3.8c-2.93,3.5-2.94,8.49-0.28,11.98l-10.64,12.77l-9.93-49.67c-0.96-4.82-5.57-8.59-10.48-8.59
		h-39.7c-4.91,0-9.52,3.77-10.48,8.59L56.78,126.18l45.81,0V99.72H97.3c-2.56,0-4.63-2.07-4.63-4.63c0-2.56,2.07-4.63,4.63-4.63
		h5.29v-8.6H97.3c-2.56,0-4.63-2.07-4.63-4.63c0-2.56,2.07-4.63,4.63-4.63h5.29v-8.6H97.3c-2.56,0-4.63-2.07-4.63-4.63
		s2.07-4.63,4.63-4.63h5.29v-8.6H97.3c-2.56,0-4.63-2.07-4.63-4.63s2.07-4.63,4.63-4.63h19.85c2.56,0,4.63,2.07,4.63,4.63
		s-2.07,4.63-4.63,4.63h-5.29v8.6h5.29c2.56,0,4.63,2.07,4.63,4.63s-2.07,4.63-4.63,4.63h-5.29v8.6h5.29c2.56,0,4.63,2.07,4.63,4.63
		c0,2.56-2.07,4.63-4.63,4.63h-5.29v8.6h5.29c2.56,0,4.63,2.07,4.63,4.63s-2.07,4.63-4.63,4.63h-5.29v18.3v8.16h5.21h0.05
		l48.12-57.75c1.33,0.67,2.81,1.03,4.32,1.03c2.85,0,5.53-1.25,7.36-3.42l3.19-3.8c1.64-1.96,2.43-4.45,2.2-7
		c-0.16-1.84-0.83-3.55-1.92-4.98l4.84-5.8C186.86,42.48,186.6,39.56,184.63,37.92L184.63,37.92z"/>
	<path class="st0" d="M129.13,126.18h28.54l-5.52-27.62L129.13,126.18z"/>
	<path class="st0" d="M159.53,135.45l-104.6,0l-5.86,29.29c-0.53,2.64,0.1,5.3,1.73,7.28c1.63,1.99,4.11,3.13,6.8,3.13h99.25
		c2.7,0,5.17-1.14,6.8-3.13c1.63-1.99,2.26-4.64,1.73-7.28L159.53,135.45z"/>
</g>
</svg>
