<?xml version="1.0" encoding="utf-8"?>
<!-- Generator: Adobe Illustrator 24.2.1, SVG Export Plug-In . SVG Version: 6.00 Build 0)  -->
<svg version="1.1" id="Capa_1" xmlns="http://www.w3.org/2000/svg" xmlns:xlink="http://www.w3.org/1999/xlink" x="0px" y="0px"
	 viewBox="0 0 60 60" style="enable-background:new 0 0 60 60;" xml:space="preserve">
<style type="text/css">
	.st0{fill:#F9BA31;}
</style>
<g>
	<g>
		<path class="st0" d="M29.89,4.2c-12.5,0-22.9,4.3-22.9,16.75c0,14.9,15.75,34.81,22.9,34.81c7.14,0,22.9-19.87,22.9-34.81
			C52.79,8.5,42.38,4.2,29.89,4.2L29.89,4.2z M40.23,24.63L28.15,44.26c-0.89,1.44-3.13,0.54-2.76-1.12l2.52-11.33l-5.28,1.06
			c-1.32,0.26-2.3-1.21-1.55-2.33c4.36-6.42,11.46-16.95,11.95-17.89c0.78-1.54,3.26-0.82,2.79,1.17c-0.26,1.1-2.1,8.44-2.38,9.58
			l5.21-1.04C39.94,22.1,40.92,23.51,40.23,24.63L40.23,24.63z M29.93,24.98c0.26-1.05,0.55-2.21,0.85-3.4
			c-1.77,2.63-3.67,5.46-5.13,7.6c4.18-0.83,3.97-0.82,4.23-0.82c0.96,0,1.68,0.89,1.47,1.84l-1.07,4.82L35.84,26l-4.15,0.83
			C30.61,27.05,29.66,26.06,29.93,24.98L29.93,24.98z"/>
	</g>
</g>
</svg>
