<?xml version="1.0" encoding="utf-8"?>
<!-- Generator: Adobe Illustrator 24.2.1, SVG Export Plug-In . SVG Version: 6.00 Build 0)  -->
<svg version="1.1" id="Capa_1" xmlns="http://www.w3.org/2000/svg" xmlns:xlink="http://www.w3.org/1999/xlink" x="0px" y="0px"
	 viewBox="0 0 200 200" style="enable-background:new 0 0 200 200;" xml:space="preserve">
<style type="text/css">
	.st0{fill:#F9BA31;}
</style>
<g>
	<path class="st0" d="M43.14,21v18.25h13.71v9.14H43.14v9.25h13.71v9.14H43.14v9.25h13.71v9.14H43.14v9.26h13.71v9.14H43.14v9.25
		h13.71v9.14H43.14v9.25h13.71v9.14H43.14v9.25h13.71v9.14H43.14V177h120.3V21H43.14z M80.05,94.52c0-10.81,6.19-20.2,15.2-24.82
		c-2.22-2.77-3.55-6.29-3.55-10.11c0-8.94,7.27-16.22,16.22-16.22c8.94,0,16.22,7.27,16.22,16.22c0,3.82-1.33,7.34-3.55,10.11
		c9.02,4.62,15.2,14.01,15.2,24.82v4.57H80.05V94.52z M79.93,108.23h55.85v9.14H79.93V108.23z M144.99,158.76h-27.42v-9.14h27.42
		V158.76z M144.99,158.76"/>
	<path class="st0" d="M108.09,75.8c-0.06,0-0.11,0-0.17,0c-0.06,0-0.11,0-0.17,0c-8.67,0.08-15.96,6.08-17.99,14.15h36.32
		C124.04,81.88,116.76,75.88,108.09,75.8L108.09,75.8z M108.09,75.8"/>
	<path class="st0" d="M107.71,66.66c0.07,0,0.14,0,0.21,0c0.07,0,0.14,0,0.21,0c3.81-0.11,6.87-3.24,6.87-7.07
		c0-3.9-3.17-7.08-7.08-7.08c-3.9,0-7.08,3.17-7.08,7.08C100.84,63.42,103.9,66.55,107.71,66.66L107.71,66.66z M107.71,66.66"/>
	<rect x="29.43" y="112.83" class="st0" width="13.71" height="9.14"/>
	<rect x="29.43" y="131.23" class="st0" width="13.71" height="9.14"/>
	<rect x="29.43" y="149.62" class="st0" width="13.71" height="9.14"/>
	<rect x="29.43" y="39.25" class="st0" width="13.71" height="9.14"/>
	<rect x="29.43" y="57.65" class="st0" width="13.71" height="9.14"/>
	<rect x="29.43" y="76.04" class="st0" width="13.71" height="9.14"/>
	<rect x="29.43" y="94.44" class="st0" width="13.71" height="9.14"/>
</g>
</svg>
