<?xml version="1.0" encoding="utf-8"?>
<!-- Generator: Adobe Illustrator 24.2.1, SVG Export Plug-In . SVG Version: 6.00 Build 0)  -->
<svg version="1.1" id="Capa_1" xmlns="http://www.w3.org/2000/svg" xmlns:xlink="http://www.w3.org/1999/xlink" x="0px" y="0px"
	 viewBox="0 0 200 200" style="enable-background:new 0 0 200 200;" xml:space="preserve">
<style type="text/css">
	.st0{fill:#F9BA31;}
</style>
<g>
	<circle class="st0" cx="100.47" cy="37.25" r="29.86"/>
	<path class="st0" d="M122.41,71.15c-6.32,4.11-13.86,6.49-21.94,6.49c-8.08,0-15.62-2.39-21.94-6.49
		c-6.99,2.67-13.47,6.61-19.1,11.67l41.05,15.39l41.05-15.39C135.88,77.77,129.4,73.82,122.41,71.15L122.41,71.15z"/>
	<path class="st0" d="M163.7,116.29h-3.51c-2.91,0-5.27,2.36-5.27,5.27v14.05c0,2.91,2.36,5.27,5.27,5.27h3.51
		c6.79,0,12.3-5.5,12.3-12.3C176,121.8,170.49,116.29,163.7,116.29z"/>
	<path class="st0" d="M41.25,89.69c-1.42,0.98-2.27,2.6-2.27,4.33v11.73h1.76c8.72,0,15.81,7.09,15.81,15.81v14.05
		c0,8.72-7.09,15.81-15.81,15.81h-1.76v11.1c0,2.2,1.36,4.16,3.42,4.93l52.79,19.8V107.5L46.11,89.09
		C44.49,88.48,42.67,88.7,41.25,89.69L41.25,89.69z"/>
	<path class="st0" d="M144.38,135.62v-14.05c0-8.72,7.09-15.81,15.81-15.81h1.76V94.02c0-1.73-0.85-3.35-2.27-4.33
		c-1.42-0.99-3.23-1.21-4.85-0.6l-49.09,18.41v79.76l52.79-19.8c2.06-0.77,3.42-2.74,3.42-4.93v-11.1h-1.76
		C151.47,151.42,144.38,144.33,144.38,135.62L144.38,135.62z"/>
	<path class="st0" d="M46.01,135.62v-14.05c0-2.91-2.36-5.27-5.27-5.27h-3.51c-6.79,0-12.3,5.5-12.3,12.3
		c0,6.79,5.51,12.3,12.3,12.3h3.51C43.65,140.89,46.01,138.53,46.01,135.62z"/>
</g>
</svg>
