<?xml version="1.0" encoding="utf-8"?>
<!-- Generator: Adobe Illustrator 24.2.1, SVG Export Plug-In . SVG Version: 6.00 Build 0)  -->
<svg version="1.1" id="Capa_1" xmlns="http://www.w3.org/2000/svg" xmlns:xlink="http://www.w3.org/1999/xlink" x="0px" y="0px"
	 viewBox="0 0 200 200" style="enable-background:new 0 0 200 200;" xml:space="preserve">
<style type="text/css">
	.st0{fill:#F9BA31;}
</style>
<g>
	<path class="st0" d="M82.29,93.11H58.71c1.6,16.84,15.82,30.06,33.08,30.06s31.48-13.22,33.08-30.06h-23.58v-9.49h23.73v-9.49
		h-23.73v-9.49h23.73v-9.49h-23.73v-9.49h23.7C124.15,28.06,109.58,14,91.78,14c-17.79,0-32.36,14.06-33.19,31.65h23.7v9.49H58.56
		v9.49h23.73v9.49H58.56v9.49h23.73V93.11z M82.29,93.11"/>
	<path class="st0" d="M134.51,74.13v15.82c0,23.56-19.17,42.72-42.72,42.72s-42.72-19.17-42.72-42.72c0-6.79,0-8.41,0-15.82h-9.49
		v15.82c0,27.19,20.89,49.59,47.47,52v24.58H68.05v9.49h47.47v-9.49H96.53v-24.58c26.58-2.41,47.47-24.81,47.47-52V74.13H134.51z
		 M134.51,74.13"/>
</g>
</svg>
